<?xml version="1.0" encoding="utf-8" standalone="no"?>
<!DOCTYPE svg PUBLIC "-//W3C//DTD SVG 1.1//EN"
  "http://www.w3.org/Graphics/SVG/1.1/DTD/svg11.dtd">
<svg xmlns:xlink="http://www.w3.org/1999/xlink" width="1080pt" height="504pt" viewBox="0 0 1080 504" xmlns="http://www.w3.org/2000/svg" version="1.1">
 <metadata>
  <rdf:RDF xmlns:dc="http://purl.org/dc/elements/1.1/" xmlns:cc="http://creativecommons.org/ns#" xmlns:rdf="http://www.w3.org/1999/02/22-rdf-syntax-ns#">
   <cc:Work>
    <dc:type rdf:resource="http://purl.org/dc/dcmitype/StillImage"/>
    <dc:date>2024-09-26T17:37:05.781378</dc:date>
    <dc:format>image/svg+xml</dc:format>
    <dc:creator>
     <cc:Agent>
      <dc:title>Matplotlib v3.9.1.post1, https://matplotlib.org/</dc:title>
     </cc:Agent>
    </dc:creator>
   </cc:Work>
  </rdf:RDF>
 </metadata>
 <defs>
  <style type="text/css">*{stroke-linejoin: round; stroke-linecap: butt}</style>
 </defs>
 <g id="figure_1">
  <g id="patch_1">
   <path d="M 0 504 
L 1080 504 
L 1080 0 
L 0 0 
z
" style="fill: #ffffff"/>
  </g>
  <g id="axes_1">
   <g id="patch_2">
    <path d="M 39.58149 470.64351 
L 1076.99976 470.64351 
L 1076.99976 18.118365 
L 39.58149 18.118365 
z
" style="fill: #ffffff"/>
   </g>
   <g id="matplotlib.axis_1">
    <g id="xtick_1">
     <g id="line2d_1">
      <path d="M 81.997632 470.64351 
L 81.997632 18.118365 
" clip-path="url(#pd75c2e5f74)" style="fill: none; stroke: #b0b0b0; stroke-width: 0.8; stroke-linecap: square"/>
     </g>
     <g id="line2d_2">
      <defs>
       <path id="m6a147952f3" d="M 0 0 
L 0 3.5 
" style="stroke: #000000; stroke-width: 0.8"/>
      </defs>
      <g>
       <use xlink:href="#m6a147952f3" x="81.997632" y="470.64351" style="stroke: #000000; stroke-width: 0.8"/>
      </g>
     </g>
     <g id="text_1">
      <!-- 0 -->
      <g transform="translate(78.816382 485.241947) scale(0.1 -0.1)">
       <defs>
        <path id="DejaVuSans-30" d="M 2034 4250 
Q 1547 4250 1301 3770 
Q 1056 3291 1056 2328 
Q 1056 1369 1301 889 
Q 1547 409 2034 409 
Q 2525 409 2770 889 
Q 3016 1369 3016 2328 
Q 3016 3291 2770 3770 
Q 2525 4250 2034 4250 
z
M 2034 4750 
Q 2819 4750 3233 4129 
Q 3647 3509 3647 2328 
Q 3647 1150 3233 529 
Q 2819 -91 2034 -91 
Q 1250 -91 836 529 
Q 422 1150 422 2328 
Q 422 3509 836 4129 
Q 1250 4750 2034 4750 
z
" transform="scale(0.015625)"/>
       </defs>
       <use xlink:href="#DejaVuSans-30"/>
      </g>
     </g>
    </g>
    <g id="xtick_2">
     <g id="line2d_3">
      <path d="M 200.478476 470.64351 
L 200.478476 18.118365 
" clip-path="url(#pd75c2e5f74)" style="fill: none; stroke: #b0b0b0; stroke-width: 0.8; stroke-linecap: square"/>
     </g>
     <g id="line2d_4">
      <g>
       <use xlink:href="#m6a147952f3" x="200.478476" y="470.64351" style="stroke: #000000; stroke-width: 0.8"/>
      </g>
     </g>
     <g id="text_2">
      <!-- 25 -->
      <g transform="translate(194.115976 485.241947) scale(0.1 -0.1)">
       <defs>
        <path id="DejaVuSans-32" d="M 1228 531 
L 3431 531 
L 3431 0 
L 469 0 
L 469 531 
Q 828 903 1448 1529 
Q 2069 2156 2228 2338 
Q 2531 2678 2651 2914 
Q 2772 3150 2772 3378 
Q 2772 3750 2511 3984 
Q 2250 4219 1831 4219 
Q 1534 4219 1204 4116 
Q 875 4013 500 3803 
L 500 4441 
Q 881 4594 1212 4672 
Q 1544 4750 1819 4750 
Q 2544 4750 2975 4387 
Q 3406 4025 3406 3419 
Q 3406 3131 3298 2873 
Q 3191 2616 2906 2266 
Q 2828 2175 2409 1742 
Q 1991 1309 1228 531 
z
" transform="scale(0.015625)"/>
        <path id="DejaVuSans-35" d="M 691 4666 
L 3169 4666 
L 3169 4134 
L 1269 4134 
L 1269 2991 
Q 1406 3038 1543 3061 
Q 1681 3084 1819 3084 
Q 2600 3084 3056 2656 
Q 3513 2228 3513 1497 
Q 3513 744 3044 326 
Q 2575 -91 1722 -91 
Q 1428 -91 1123 -41 
Q 819 9 494 109 
L 494 744 
Q 775 591 1075 516 
Q 1375 441 1709 441 
Q 2250 441 2565 725 
Q 2881 1009 2881 1497 
Q 2881 1984 2565 2268 
Q 2250 2553 1709 2553 
Q 1456 2553 1204 2497 
Q 953 2441 691 2322 
L 691 4666 
z
" transform="scale(0.015625)"/>
       </defs>
       <use xlink:href="#DejaVuSans-32"/>
       <use xlink:href="#DejaVuSans-35" x="63.623047"/>
      </g>
     </g>
    </g>
    <g id="xtick_3">
     <g id="line2d_5">
      <path d="M 318.95932 470.64351 
L 318.95932 18.118365 
" clip-path="url(#pd75c2e5f74)" style="fill: none; stroke: #b0b0b0; stroke-width: 0.8; stroke-linecap: square"/>
     </g>
     <g id="line2d_6">
      <g>
       <use xlink:href="#m6a147952f3" x="318.95932" y="470.64351" style="stroke: #000000; stroke-width: 0.8"/>
      </g>
     </g>
     <g id="text_3">
      <!-- 50 -->
      <g transform="translate(312.59682 485.241947) scale(0.1 -0.1)">
       <use xlink:href="#DejaVuSans-35"/>
       <use xlink:href="#DejaVuSans-30" x="63.623047"/>
      </g>
     </g>
    </g>
    <g id="xtick_4">
     <g id="line2d_7">
      <path d="M 437.440164 470.64351 
L 437.440164 18.118365 
" clip-path="url(#pd75c2e5f74)" style="fill: none; stroke: #b0b0b0; stroke-width: 0.8; stroke-linecap: square"/>
     </g>
     <g id="line2d_8">
      <g>
       <use xlink:href="#m6a147952f3" x="437.440164" y="470.64351" style="stroke: #000000; stroke-width: 0.8"/>
      </g>
     </g>
     <g id="text_4">
      <!-- 75 -->
      <g transform="translate(431.077664 485.241947) scale(0.1 -0.1)">
       <defs>
        <path id="DejaVuSans-37" d="M 525 4666 
L 3525 4666 
L 3525 4397 
L 1831 0 
L 1172 0 
L 2766 4134 
L 525 4134 
L 525 4666 
z
" transform="scale(0.015625)"/>
       </defs>
       <use xlink:href="#DejaVuSans-37"/>
       <use xlink:href="#DejaVuSans-35" x="63.623047"/>
      </g>
     </g>
    </g>
    <g id="xtick_5">
     <g id="line2d_9">
      <path d="M 555.921008 470.64351 
L 555.921008 18.118365 
" clip-path="url(#pd75c2e5f74)" style="fill: none; stroke: #b0b0b0; stroke-width: 0.8; stroke-linecap: square"/>
     </g>
     <g id="line2d_10">
      <g>
       <use xlink:href="#m6a147952f3" x="555.921008" y="470.64351" style="stroke: #000000; stroke-width: 0.8"/>
      </g>
     </g>
     <g id="text_5">
      <!-- 100 -->
      <g transform="translate(546.377258 485.241947) scale(0.1 -0.1)">
       <defs>
        <path id="DejaVuSans-31" d="M 794 531 
L 1825 531 
L 1825 4091 
L 703 3866 
L 703 4441 
L 1819 4666 
L 2450 4666 
L 2450 531 
L 3481 531 
L 3481 0 
L 794 0 
L 794 531 
z
" transform="scale(0.015625)"/>
       </defs>
       <use xlink:href="#DejaVuSans-31"/>
       <use xlink:href="#DejaVuSans-30" x="63.623047"/>
       <use xlink:href="#DejaVuSans-30" x="127.246094"/>
      </g>
     </g>
    </g>
    <g id="xtick_6">
     <g id="line2d_11">
      <path d="M 674.401852 470.64351 
L 674.401852 18.118365 
" clip-path="url(#pd75c2e5f74)" style="fill: none; stroke: #b0b0b0; stroke-width: 0.8; stroke-linecap: square"/>
     </g>
     <g id="line2d_12">
      <g>
       <use xlink:href="#m6a147952f3" x="674.401852" y="470.64351" style="stroke: #000000; stroke-width: 0.8"/>
      </g>
     </g>
     <g id="text_6">
      <!-- 125 -->
      <g transform="translate(664.858102 485.241947) scale(0.1 -0.1)">
       <use xlink:href="#DejaVuSans-31"/>
       <use xlink:href="#DejaVuSans-32" x="63.623047"/>
       <use xlink:href="#DejaVuSans-35" x="127.246094"/>
      </g>
     </g>
    </g>
    <g id="xtick_7">
     <g id="line2d_13">
      <path d="M 792.882696 470.64351 
L 792.882696 18.118365 
" clip-path="url(#pd75c2e5f74)" style="fill: none; stroke: #b0b0b0; stroke-width: 0.8; stroke-linecap: square"/>
     </g>
     <g id="line2d_14">
      <g>
       <use xlink:href="#m6a147952f3" x="792.882696" y="470.64351" style="stroke: #000000; stroke-width: 0.8"/>
      </g>
     </g>
     <g id="text_7">
      <!-- 150 -->
      <g transform="translate(783.338946 485.241947) scale(0.1 -0.1)">
       <use xlink:href="#DejaVuSans-31"/>
       <use xlink:href="#DejaVuSans-35" x="63.623047"/>
       <use xlink:href="#DejaVuSans-30" x="127.246094"/>
      </g>
     </g>
    </g>
    <g id="xtick_8">
     <g id="line2d_15">
      <path d="M 911.36354 470.64351 
L 911.36354 18.118365 
" clip-path="url(#pd75c2e5f74)" style="fill: none; stroke: #b0b0b0; stroke-width: 0.8; stroke-linecap: square"/>
     </g>
     <g id="line2d_16">
      <g>
       <use xlink:href="#m6a147952f3" x="911.36354" y="470.64351" style="stroke: #000000; stroke-width: 0.8"/>
      </g>
     </g>
     <g id="text_8">
      <!-- 175 -->
      <g transform="translate(901.81979 485.241947) scale(0.1 -0.1)">
       <use xlink:href="#DejaVuSans-31"/>
       <use xlink:href="#DejaVuSans-37" x="63.623047"/>
       <use xlink:href="#DejaVuSans-35" x="127.246094"/>
      </g>
     </g>
    </g>
    <g id="xtick_9">
     <g id="line2d_17">
      <path d="M 1029.844384 470.64351 
L 1029.844384 18.118365 
" clip-path="url(#pd75c2e5f74)" style="fill: none; stroke: #b0b0b0; stroke-width: 0.8; stroke-linecap: square"/>
     </g>
     <g id="line2d_18">
      <g>
       <use xlink:href="#m6a147952f3" x="1029.844384" y="470.64351" style="stroke: #000000; stroke-width: 0.8"/>
      </g>
     </g>
     <g id="text_9">
      <!-- 200 -->
      <g transform="translate(1020.300634 485.241947) scale(0.1 -0.1)">
       <use xlink:href="#DejaVuSans-32"/>
       <use xlink:href="#DejaVuSans-30" x="63.623047"/>
       <use xlink:href="#DejaVuSans-30" x="127.246094"/>
      </g>
     </g>
    </g>
    <g id="text_10">
     <!-- Trial number -->
     <g transform="translate(526.973438 498.920073) scale(0.1 -0.1)">
      <defs>
       <path id="DejaVuSans-54" d="M -19 4666 
L 3928 4666 
L 3928 4134 
L 2272 4134 
L 2272 0 
L 1638 0 
L 1638 4134 
L -19 4134 
L -19 4666 
z
" transform="scale(0.015625)"/>
       <path id="DejaVuSans-72" d="M 2631 2963 
Q 2534 3019 2420 3045 
Q 2306 3072 2169 3072 
Q 1681 3072 1420 2755 
Q 1159 2438 1159 1844 
L 1159 0 
L 581 0 
L 581 3500 
L 1159 3500 
L 1159 2956 
Q 1341 3275 1631 3429 
Q 1922 3584 2338 3584 
Q 2397 3584 2469 3576 
Q 2541 3569 2628 3553 
L 2631 2963 
z
" transform="scale(0.015625)"/>
       <path id="DejaVuSans-69" d="M 603 3500 
L 1178 3500 
L 1178 0 
L 603 0 
L 603 3500 
z
M 603 4863 
L 1178 4863 
L 1178 4134 
L 603 4134 
L 603 4863 
z
" transform="scale(0.015625)"/>
       <path id="DejaVuSans-61" d="M 2194 1759 
Q 1497 1759 1228 1600 
Q 959 1441 959 1056 
Q 959 750 1161 570 
Q 1363 391 1709 391 
Q 2188 391 2477 730 
Q 2766 1069 2766 1631 
L 2766 1759 
L 2194 1759 
z
M 3341 1997 
L 3341 0 
L 2766 0 
L 2766 531 
Q 2569 213 2275 61 
Q 1981 -91 1556 -91 
Q 1019 -91 701 211 
Q 384 513 384 1019 
Q 384 1609 779 1909 
Q 1175 2209 1959 2209 
L 2766 2209 
L 2766 2266 
Q 2766 2663 2505 2880 
Q 2244 3097 1772 3097 
Q 1472 3097 1187 3025 
Q 903 2953 641 2809 
L 641 3341 
Q 956 3463 1253 3523 
Q 1550 3584 1831 3584 
Q 2591 3584 2966 3190 
Q 3341 2797 3341 1997 
z
" transform="scale(0.015625)"/>
       <path id="DejaVuSans-6c" d="M 603 4863 
L 1178 4863 
L 1178 0 
L 603 0 
L 603 4863 
z
" transform="scale(0.015625)"/>
       <path id="DejaVuSans-20" transform="scale(0.015625)"/>
       <path id="DejaVuSans-6e" d="M 3513 2113 
L 3513 0 
L 2938 0 
L 2938 2094 
Q 2938 2591 2744 2837 
Q 2550 3084 2163 3084 
Q 1697 3084 1428 2787 
Q 1159 2491 1159 1978 
L 1159 0 
L 581 0 
L 581 3500 
L 1159 3500 
L 1159 2956 
Q 1366 3272 1645 3428 
Q 1925 3584 2291 3584 
Q 2894 3584 3203 3211 
Q 3513 2838 3513 2113 
z
" transform="scale(0.015625)"/>
       <path id="DejaVuSans-75" d="M 544 1381 
L 544 3500 
L 1119 3500 
L 1119 1403 
Q 1119 906 1312 657 
Q 1506 409 1894 409 
Q 2359 409 2629 706 
Q 2900 1003 2900 1516 
L 2900 3500 
L 3475 3500 
L 3475 0 
L 2900 0 
L 2900 538 
Q 2691 219 2414 64 
Q 2138 -91 1772 -91 
Q 1169 -91 856 284 
Q 544 659 544 1381 
z
M 1991 3584 
L 1991 3584 
z
" transform="scale(0.015625)"/>
       <path id="DejaVuSans-6d" d="M 3328 2828 
Q 3544 3216 3844 3400 
Q 4144 3584 4550 3584 
Q 5097 3584 5394 3201 
Q 5691 2819 5691 2113 
L 5691 0 
L 5113 0 
L 5113 2094 
Q 5113 2597 4934 2840 
Q 4756 3084 4391 3084 
Q 3944 3084 3684 2787 
Q 3425 2491 3425 1978 
L 3425 0 
L 2847 0 
L 2847 2094 
Q 2847 2600 2669 2842 
Q 2491 3084 2119 3084 
Q 1678 3084 1418 2786 
Q 1159 2488 1159 1978 
L 1159 0 
L 581 0 
L 581 3500 
L 1159 3500 
L 1159 2956 
Q 1356 3278 1631 3431 
Q 1906 3584 2284 3584 
Q 2666 3584 2933 3390 
Q 3200 3197 3328 2828 
z
" transform="scale(0.015625)"/>
       <path id="DejaVuSans-62" d="M 3116 1747 
Q 3116 2381 2855 2742 
Q 2594 3103 2138 3103 
Q 1681 3103 1420 2742 
Q 1159 2381 1159 1747 
Q 1159 1113 1420 752 
Q 1681 391 2138 391 
Q 2594 391 2855 752 
Q 3116 1113 3116 1747 
z
M 1159 2969 
Q 1341 3281 1617 3432 
Q 1894 3584 2278 3584 
Q 2916 3584 3314 3078 
Q 3713 2572 3713 1747 
Q 3713 922 3314 415 
Q 2916 -91 2278 -91 
Q 1894 -91 1617 61 
Q 1341 213 1159 525 
L 1159 0 
L 581 0 
L 581 4863 
L 1159 4863 
L 1159 2969 
z
" transform="scale(0.015625)"/>
       <path id="DejaVuSans-65" d="M 3597 1894 
L 3597 1613 
L 953 1613 
Q 991 1019 1311 708 
Q 1631 397 2203 397 
Q 2534 397 2845 478 
Q 3156 559 3463 722 
L 3463 178 
Q 3153 47 2828 -22 
Q 2503 -91 2169 -91 
Q 1331 -91 842 396 
Q 353 884 353 1716 
Q 353 2575 817 3079 
Q 1281 3584 2069 3584 
Q 2775 3584 3186 3129 
Q 3597 2675 3597 1894 
z
M 3022 2063 
Q 3016 2534 2758 2815 
Q 2500 3097 2075 3097 
Q 1594 3097 1305 2825 
Q 1016 2553 972 2059 
L 3022 2063 
z
" transform="scale(0.015625)"/>
      </defs>
      <use xlink:href="#DejaVuSans-54"/>
      <use xlink:href="#DejaVuSans-72" x="46.333984"/>
      <use xlink:href="#DejaVuSans-69" x="87.447266"/>
      <use xlink:href="#DejaVuSans-61" x="115.230469"/>
      <use xlink:href="#DejaVuSans-6c" x="176.509766"/>
      <use xlink:href="#DejaVuSans-20" x="204.292969"/>
      <use xlink:href="#DejaVuSans-6e" x="236.080078"/>
      <use xlink:href="#DejaVuSans-75" x="299.458984"/>
      <use xlink:href="#DejaVuSans-6d" x="362.837891"/>
      <use xlink:href="#DejaVuSans-62" x="460.25"/>
      <use xlink:href="#DejaVuSans-65" x="523.726562"/>
      <use xlink:href="#DejaVuSans-72" x="585.25"/>
     </g>
    </g>
   </g>
   <g id="matplotlib.axis_2">
    <g id="ytick_1">
     <g id="line2d_19">
      <path d="M 39.58149 434.079278 
L 1076.99976 434.079278 
" clip-path="url(#pd75c2e5f74)" style="fill: none; stroke: #b0b0b0; stroke-width: 0.8; stroke-linecap: square"/>
     </g>
     <g id="line2d_20">
      <defs>
       <path id="mb90ad53adc" d="M 0 0 
L -3.5 0 
" style="stroke: #000000; stroke-width: 0.8"/>
      </defs>
      <g>
       <use xlink:href="#mb90ad53adc" x="39.58149" y="434.079278" style="stroke: #000000; stroke-width: 0.8"/>
      </g>
     </g>
     <g id="text_11">
      <!-- 0.6 -->
      <g transform="translate(16.678365 437.878497) scale(0.1 -0.1)">
       <defs>
        <path id="DejaVuSans-2e" d="M 684 794 
L 1344 794 
L 1344 0 
L 684 0 
L 684 794 
z
" transform="scale(0.015625)"/>
        <path id="DejaVuSans-36" d="M 2113 2584 
Q 1688 2584 1439 2293 
Q 1191 2003 1191 1497 
Q 1191 994 1439 701 
Q 1688 409 2113 409 
Q 2538 409 2786 701 
Q 3034 994 3034 1497 
Q 3034 2003 2786 2293 
Q 2538 2584 2113 2584 
z
M 3366 4563 
L 3366 3988 
Q 3128 4100 2886 4159 
Q 2644 4219 2406 4219 
Q 1781 4219 1451 3797 
Q 1122 3375 1075 2522 
Q 1259 2794 1537 2939 
Q 1816 3084 2150 3084 
Q 2853 3084 3261 2657 
Q 3669 2231 3669 1497 
Q 3669 778 3244 343 
Q 2819 -91 2113 -91 
Q 1303 -91 875 529 
Q 447 1150 447 2328 
Q 447 3434 972 4092 
Q 1497 4750 2381 4750 
Q 2619 4750 2861 4703 
Q 3103 4656 3366 4563 
z
" transform="scale(0.015625)"/>
       </defs>
       <use xlink:href="#DejaVuSans-30"/>
       <use xlink:href="#DejaVuSans-2e" x="63.623047"/>
       <use xlink:href="#DejaVuSans-36" x="95.410156"/>
      </g>
     </g>
    </g>
    <g id="ytick_2">
     <g id="line2d_21">
      <path d="M 39.58149 372.377733 
L 1076.99976 372.377733 
" clip-path="url(#pd75c2e5f74)" style="fill: none; stroke: #b0b0b0; stroke-width: 0.8; stroke-linecap: square"/>
     </g>
     <g id="line2d_22">
      <g>
       <use xlink:href="#mb90ad53adc" x="39.58149" y="372.377733" style="stroke: #000000; stroke-width: 0.8"/>
      </g>
     </g>
     <g id="text_12">
      <!-- 0.8 -->
      <g transform="translate(16.678365 376.176952) scale(0.1 -0.1)">
       <defs>
        <path id="DejaVuSans-38" d="M 2034 2216 
Q 1584 2216 1326 1975 
Q 1069 1734 1069 1313 
Q 1069 891 1326 650 
Q 1584 409 2034 409 
Q 2484 409 2743 651 
Q 3003 894 3003 1313 
Q 3003 1734 2745 1975 
Q 2488 2216 2034 2216 
z
M 1403 2484 
Q 997 2584 770 2862 
Q 544 3141 544 3541 
Q 544 4100 942 4425 
Q 1341 4750 2034 4750 
Q 2731 4750 3128 4425 
Q 3525 4100 3525 3541 
Q 3525 3141 3298 2862 
Q 3072 2584 2669 2484 
Q 3125 2378 3379 2068 
Q 3634 1759 3634 1313 
Q 3634 634 3220 271 
Q 2806 -91 2034 -91 
Q 1263 -91 848 271 
Q 434 634 434 1313 
Q 434 1759 690 2068 
Q 947 2378 1403 2484 
z
M 1172 3481 
Q 1172 3119 1398 2916 
Q 1625 2713 2034 2713 
Q 2441 2713 2670 2916 
Q 2900 3119 2900 3481 
Q 2900 3844 2670 4047 
Q 2441 4250 2034 4250 
Q 1625 4250 1398 4047 
Q 1172 3844 1172 3481 
z
" transform="scale(0.015625)"/>
       </defs>
       <use xlink:href="#DejaVuSans-30"/>
       <use xlink:href="#DejaVuSans-2e" x="63.623047"/>
       <use xlink:href="#DejaVuSans-38" x="95.410156"/>
      </g>
     </g>
    </g>
    <g id="ytick_3">
     <g id="line2d_23">
      <path d="M 39.58149 310.676189 
L 1076.99976 310.676189 
" clip-path="url(#pd75c2e5f74)" style="fill: none; stroke: #b0b0b0; stroke-width: 0.8; stroke-linecap: square"/>
     </g>
     <g id="line2d_24">
      <g>
       <use xlink:href="#mb90ad53adc" x="39.58149" y="310.676189" style="stroke: #000000; stroke-width: 0.8"/>
      </g>
     </g>
     <g id="text_13">
      <!-- 1.0 -->
      <g transform="translate(16.678365 314.475407) scale(0.1 -0.1)">
       <use xlink:href="#DejaVuSans-31"/>
       <use xlink:href="#DejaVuSans-2e" x="63.623047"/>
       <use xlink:href="#DejaVuSans-30" x="95.410156"/>
      </g>
     </g>
    </g>
    <g id="ytick_4">
     <g id="line2d_25">
      <path d="M 39.58149 248.974644 
L 1076.99976 248.974644 
" clip-path="url(#pd75c2e5f74)" style="fill: none; stroke: #b0b0b0; stroke-width: 0.8; stroke-linecap: square"/>
     </g>
     <g id="line2d_26">
      <g>
       <use xlink:href="#mb90ad53adc" x="39.58149" y="248.974644" style="stroke: #000000; stroke-width: 0.8"/>
      </g>
     </g>
     <g id="text_14">
      <!-- 1.2 -->
      <g transform="translate(16.678365 252.773862) scale(0.1 -0.1)">
       <use xlink:href="#DejaVuSans-31"/>
       <use xlink:href="#DejaVuSans-2e" x="63.623047"/>
       <use xlink:href="#DejaVuSans-32" x="95.410156"/>
      </g>
     </g>
    </g>
    <g id="ytick_5">
     <g id="line2d_27">
      <path d="M 39.58149 187.273099 
L 1076.99976 187.273099 
" clip-path="url(#pd75c2e5f74)" style="fill: none; stroke: #b0b0b0; stroke-width: 0.8; stroke-linecap: square"/>
     </g>
     <g id="line2d_28">
      <g>
       <use xlink:href="#mb90ad53adc" x="39.58149" y="187.273099" style="stroke: #000000; stroke-width: 0.8"/>
      </g>
     </g>
     <g id="text_15">
      <!-- 1.4 -->
      <g transform="translate(16.678365 191.072318) scale(0.1 -0.1)">
       <defs>
        <path id="DejaVuSans-34" d="M 2419 4116 
L 825 1625 
L 2419 1625 
L 2419 4116 
z
M 2253 4666 
L 3047 4666 
L 3047 1625 
L 3713 1625 
L 3713 1100 
L 3047 1100 
L 3047 0 
L 2419 0 
L 2419 1100 
L 313 1100 
L 313 1709 
L 2253 4666 
z
" transform="scale(0.015625)"/>
       </defs>
       <use xlink:href="#DejaVuSans-31"/>
       <use xlink:href="#DejaVuSans-2e" x="63.623047"/>
       <use xlink:href="#DejaVuSans-34" x="95.410156"/>
      </g>
     </g>
    </g>
    <g id="ytick_6">
     <g id="line2d_29">
      <path d="M 39.58149 125.571554 
L 1076.99976 125.571554 
" clip-path="url(#pd75c2e5f74)" style="fill: none; stroke: #b0b0b0; stroke-width: 0.8; stroke-linecap: square"/>
     </g>
     <g id="line2d_30">
      <g>
       <use xlink:href="#mb90ad53adc" x="39.58149" y="125.571554" style="stroke: #000000; stroke-width: 0.8"/>
      </g>
     </g>
     <g id="text_16">
      <!-- 1.6 -->
      <g transform="translate(16.678365 129.370773) scale(0.1 -0.1)">
       <use xlink:href="#DejaVuSans-31"/>
       <use xlink:href="#DejaVuSans-2e" x="63.623047"/>
       <use xlink:href="#DejaVuSans-36" x="95.410156"/>
      </g>
     </g>
    </g>
    <g id="ytick_7">
     <g id="line2d_31">
      <path d="M 39.58149 63.870009 
L 1076.99976 63.870009 
" clip-path="url(#pd75c2e5f74)" style="fill: none; stroke: #b0b0b0; stroke-width: 0.8; stroke-linecap: square"/>
     </g>
     <g id="line2d_32">
      <g>
       <use xlink:href="#mb90ad53adc" x="39.58149" y="63.870009" style="stroke: #000000; stroke-width: 0.8"/>
      </g>
     </g>
     <g id="text_17">
      <!-- 1.8 -->
      <g transform="translate(16.678365 67.669228) scale(0.1 -0.1)">
       <use xlink:href="#DejaVuSans-31"/>
       <use xlink:href="#DejaVuSans-2e" x="63.623047"/>
       <use xlink:href="#DejaVuSans-38" x="95.410156"/>
      </g>
     </g>
    </g>
    <g id="text_18">
     <!-- Time (ns) -->
     <g transform="translate(10.598678 267.878594) rotate(-90) scale(0.1 -0.1)">
      <defs>
       <path id="DejaVuSans-28" d="M 1984 4856 
Q 1566 4138 1362 3434 
Q 1159 2731 1159 2009 
Q 1159 1288 1364 580 
Q 1569 -128 1984 -844 
L 1484 -844 
Q 1016 -109 783 600 
Q 550 1309 550 2009 
Q 550 2706 781 3412 
Q 1013 4119 1484 4856 
L 1984 4856 
z
" transform="scale(0.015625)"/>
       <path id="DejaVuSans-73" d="M 2834 3397 
L 2834 2853 
Q 2591 2978 2328 3040 
Q 2066 3103 1784 3103 
Q 1356 3103 1142 2972 
Q 928 2841 928 2578 
Q 928 2378 1081 2264 
Q 1234 2150 1697 2047 
L 1894 2003 
Q 2506 1872 2764 1633 
Q 3022 1394 3022 966 
Q 3022 478 2636 193 
Q 2250 -91 1575 -91 
Q 1294 -91 989 -36 
Q 684 19 347 128 
L 347 722 
Q 666 556 975 473 
Q 1284 391 1588 391 
Q 1994 391 2212 530 
Q 2431 669 2431 922 
Q 2431 1156 2273 1281 
Q 2116 1406 1581 1522 
L 1381 1569 
Q 847 1681 609 1914 
Q 372 2147 372 2553 
Q 372 3047 722 3315 
Q 1072 3584 1716 3584 
Q 2034 3584 2315 3537 
Q 2597 3491 2834 3397 
z
" transform="scale(0.015625)"/>
       <path id="DejaVuSans-29" d="M 513 4856 
L 1013 4856 
Q 1481 4119 1714 3412 
Q 1947 2706 1947 2009 
Q 1947 1309 1714 600 
Q 1481 -109 1013 -844 
L 513 -844 
Q 928 -128 1133 580 
Q 1338 1288 1338 2009 
Q 1338 2731 1133 3434 
Q 928 4138 513 4856 
z
" transform="scale(0.015625)"/>
      </defs>
      <use xlink:href="#DejaVuSans-54"/>
      <use xlink:href="#DejaVuSans-69" x="57.958984"/>
      <use xlink:href="#DejaVuSans-6d" x="85.742188"/>
      <use xlink:href="#DejaVuSans-65" x="183.154297"/>
      <use xlink:href="#DejaVuSans-20" x="244.677734"/>
      <use xlink:href="#DejaVuSans-28" x="276.464844"/>
      <use xlink:href="#DejaVuSans-6e" x="315.478516"/>
      <use xlink:href="#DejaVuSans-73" x="378.857422"/>
      <use xlink:href="#DejaVuSans-29" x="430.957031"/>
     </g>
    </g>
    <g id="text_19">
     <!-- 1e8 -->
     <g transform="translate(39.58149 15.118365) scale(0.1 -0.1)">
      <use xlink:href="#DejaVuSans-31"/>
      <use xlink:href="#DejaVuSans-65" x="63.623047"/>
      <use xlink:href="#DejaVuSans-38" x="125.146484"/>
     </g>
    </g>
   </g>
   <g id="line2d_33">
    <path d="M 86.736866 423.812808 
L 96.215333 423.836467 
L 110.433035 423.832182 
L 115.172268 425.979862 
L 119.911502 446.578305 
L 124.650736 448.768744 
L 134.129204 448.251722 
L 143.607671 447.928656 
L 153.086139 447.893733 
L 162.564606 447.910272 
L 200.478476 447.820527 
L 219.435411 447.612068 
L 224.174645 447.725448 
L 228.913879 447.58057 
L 233.653112 447.683553 
L 238.392346 447.577395 
L 243.13158 447.631998 
L 257.349281 447.444555 
L 262.088515 447.434032 
L 266.827749 446.244565 
L 271.566983 447.474354 
L 309.480853 447.270063 
L 318.95932 447.315938 
L 323.698554 447.215796 
L 333.177021 447.345647 
L 342.655489 447.273025 
L 356.87319 447.249704 
L 390.047827 447.139876 
L 394.78706 447.254545 
L 399.526294 447.196333 
L 404.265528 447.264325 
L 409.004762 447.137775 
L 655.444917 447.00395 
L 660.184151 447.169061 
L 664.923385 447.058923 
L 693.358787 447.121396 
L 726.533423 447.187105 
L 731.272657 447.209259 
L 736.011891 447.068209 
L 745.490359 447.17557 
L 773.925761 447.134353 
L 788.143462 447.149563 
L 797.62193 447.059204 
L 802.361164 447.170325 
L 816.578865 447.10958 
L 849.753501 447.054638 
L 859.231969 447.126425 
L 887.667371 447.056147 
L 892.406605 447.157615 
L 944.538176 447.116833 
L 954.016644 447.094494 
L 977.712813 447.11103 
L 987.19128 446.128973 
L 991.930514 447.06423 
L 996.669748 446.154453 
L 1001.408982 447.122352 
L 1015.626683 447.201145 
L 1029.844384 447.110691 
L 1029.844384 447.110691 
" clip-path="url(#pd75c2e5f74)" style="fill: none; stroke: #1f77b4; stroke-width: 1.5; stroke-linecap: square"/>
   </g>
   <g id="line2d_34">
    <path d="M 86.736866 446.474835 
L 91.4761 446.419242 
L 100.954567 446.079303 
L 105.693801 446.158895 
L 119.911502 445.956641 
L 124.650736 444.650188 
L 129.38997 445.280432 
L 134.129204 445.003299 
L 138.868437 445.330595 
L 153.086139 445.534944 
L 167.30384 445.619846 
L 186.260775 445.742478 
L 191.000009 445.648352 
L 209.956944 445.767467 
L 219.435411 445.586129 
L 224.174645 445.72008 
L 238.392346 445.710239 
L 243.13158 445.659026 
L 247.870814 445.731927 
L 252.610047 445.61528 
L 257.349281 445.701971 
L 262.088515 445.63293 
L 271.566983 445.724492 
L 285.784684 445.750098 
L 290.523918 445.599055 
L 309.480853 445.744606 
L 342.655489 445.687443 
L 352.133956 445.741586 
L 361.612424 445.728996 
L 380.569359 445.753985 
L 385.308593 445.657329 
L 394.78706 445.737727 
L 399.526294 445.56549 
L 404.265528 445.693209 
L 437.440164 445.679851 
L 442.179398 445.696479 
L 451.657865 445.408247 
L 456.397099 445.568976 
L 465.875567 445.622965 
L 470.6148 445.543617 
L 480.093268 445.743958 
L 484.832502 445.671613 
L 489.571735 444.972945 
L 494.310969 444.48218 
L 499.050203 444.156026 
L 508.528671 444.215722 
L 513.267904 444.323515 
L 518.007138 444.608851 
L 522.746372 444.760849 
L 527.485606 445.182481 
L 532.224839 445.146354 
L 536.964073 445.447612 
L 541.703307 445.477596 
L 551.181774 445.128307 
L 560.660242 445.164834 
L 570.138709 445.524983 
L 603.313346 445.246373 
L 612.791813 445.317638 
L 622.270281 445.411239 
L 627.009515 445.010768 
L 631.748748 445.093757 
L 641.227216 445.581409 
L 660.184151 445.657086 
L 664.923385 445.42916 
L 674.401852 445.35398 
L 679.141086 445.435978 
L 683.88032 445.265685 
L 693.358787 445.524705 
L 707.576488 445.627315 
L 717.054956 445.443475 
L 726.533423 445.671493 
L 736.011891 445.14981 
L 740.751125 445.187266 
L 745.490359 445.420214 
L 764.447294 445.469143 
L 778.664995 445.635768 
L 783.404229 445.533374 
L 792.882696 445.728749 
L 797.62193 445.684636 
L 802.361164 445.380882 
L 811.839631 445.255381 
L 816.578865 445.338585 
L 821.318099 445.147622 
L 830.796566 445.465626 
L 840.275034 445.292834 
L 859.231969 445.449401 
L 863.971203 445.349538 
L 878.188904 445.560523 
L 887.667371 445.168539 
L 897.145839 445.021782 
L 901.885073 444.752828 
L 911.36354 445.150214 
L 916.102774 445.110169 
L 920.842008 445.588597 
L 925.581241 445.475625 
L 954.016644 445.647584 
L 963.495111 445.59088 
L 968.234345 445.689664 
L 972.973579 445.518504 
L 982.452046 445.60356 
L 987.19128 445.692931 
L 1001.408982 445.61047 
L 1006.148215 445.733627 
L 1010.887449 445.687258 
L 1015.626683 444.868611 
L 1020.365917 445.144383 
L 1025.10515 444.870521 
L 1029.844384 444.901066 
L 1029.844384 444.901066 
" clip-path="url(#pd75c2e5f74)" style="fill: none; stroke: #ff7f0e; stroke-width: 1.5; stroke-linecap: square"/>
   </g>
   <g id="line2d_35">
    <path d="M 86.736866 447.698148 
L 91.4761 447.344358 
L 96.215333 447.884052 
L 100.954567 447.846537 
L 105.693801 447.400935 
L 110.433035 447.754358 
L 115.172268 447.824174 
L 124.650736 449.677173 
L 129.38997 449.764258 
L 138.868437 449.589711 
L 143.607671 450.041021 
L 148.346905 449.412998 
L 153.086139 448.614064 
L 157.825372 448.907452 
L 162.564606 449.039 
L 167.30384 448.228991 
L 172.043074 448.011558 
L 176.782307 448.044843 
L 181.521541 448.624557 
L 186.260775 448.651209 
L 195.739242 449.12023 
L 200.478476 449.745196 
L 209.956944 449.933879 
L 214.696177 449.7091 
L 219.435411 449.960438 
L 224.174645 450.060827 
L 228.913879 449.518847 
L 233.653112 449.732794 
L 243.13158 449.294194 
L 247.870814 449.684235 
L 252.610047 449.91941 
L 257.349281 449.849376 
L 262.088515 450.043951 
L 266.827749 448.910105 
L 271.566983 450.016556 
L 276.306216 449.809211 
L 281.04545 449.966578 
L 285.784684 449.737452 
L 290.523918 450.00499 
L 295.263151 449.987279 
L 304.741619 448.777327 
L 309.480853 448.602097 
L 314.220086 448.251636 
L 318.95932 448.379139 
L 323.698554 449.142288 
L 328.437788 449.779344 
L 333.177021 448.688202 
L 337.916255 448.852785 
L 342.655489 449.542941 
L 347.394723 449.012746 
L 352.133956 449.372339 
L 361.612424 449.014196 
L 366.351658 449.889204 
L 371.090891 450.074062 
L 375.830125 449.977996 
L 380.569359 449.570738 
L 385.308593 449.9837 
L 390.047827 449.478124 
L 394.78706 450.018592 
L 409.004762 449.97028 
L 418.483229 450.06385 
L 423.222463 449.661316 
L 427.961697 449.541275 
L 432.70093 450.016556 
L 437.440164 449.569103 
L 442.179398 449.770648 
L 446.918632 449.293824 
L 451.657865 449.176992 
L 456.397099 449.868414 
L 461.136333 450.046635 
L 465.875567 449.73085 
L 470.6148 449.812574 
L 475.354034 450.023991 
L 480.093268 450.054225 
L 484.832502 449.756644 
L 489.571735 449.584741 
L 494.310969 449.956894 
L 503.789437 450.074185 
L 513.267904 449.66668 
L 518.007138 450.014335 
L 527.485606 450.024423 
L 532.224839 449.600879 
L 536.964073 449.89365 
L 541.703307 450.051602 
L 555.921008 450.057341 
L 560.660242 449.870203 
L 565.399476 450.054009 
L 570.138709 449.666005 
L 574.877943 449.580514 
L 579.617177 449.886893 
L 589.095644 450.019302 
L 593.834878 450.06709 
L 598.574112 449.716844 
L 603.313346 449.727241 
L 608.052579 450.013536 
L 617.531047 450.032907 
L 622.270281 449.76047 
L 627.009515 450.057063 
L 641.227216 449.922187 
L 645.96645 449.73881 
L 650.705683 450.050985 
L 669.662618 449.977101 
L 674.401852 449.513016 
L 679.141086 450.056076 
L 683.88032 449.011327 
L 688.619553 449.369902 
L 693.358787 450.054009 
L 698.098021 450.064868 
L 702.837255 449.225153 
L 707.576488 449.209694 
L 712.315722 449.003617 
L 717.054956 448.579607 
L 721.79419 448.996117 
L 726.533423 449.038722 
L 731.272657 448.738208 
L 736.011891 449.10027 
L 740.751125 449.626146 
L 745.490359 449.66292 
L 750.229592 449.444684 
L 754.968826 449.034187 
L 759.70806 448.746877 
L 764.447294 449.084227 
L 769.186527 449.045047 
L 773.925761 449.155739 
L 778.664995 448.783281 
L 783.404229 449.157806 
L 788.143462 448.908103 
L 792.882696 448.926799 
L 797.62193 449.480345 
L 807.100397 450.054163 
L 811.839631 449.402357 
L 816.578865 449.961395 
L 826.057332 449.364966 
L 830.796566 449.784592 
L 835.5358 449.342942 
L 845.014267 449.176101 
L 849.753501 449.248936 
L 854.492735 449.006579 
L 859.231969 449.168416 
L 863.971203 449.871807 
L 868.710436 449.467884 
L 873.44967 449.195382 
L 878.188904 449.736095 
L 882.928138 449.212628 
L 887.667371 450.034665 
L 897.145839 450.072149 
L 901.885073 448.947129 
L 906.624306 449.341242 
L 911.36354 449.52187 
L 916.102774 449.945325 
L 920.842008 449.611245 
L 925.581241 448.432267 
L 930.320475 448.749749 
L 935.059709 448.744841 
L 939.798943 449.459215 
L 944.538176 449.943902 
L 954.016644 450.045093 
L 958.755878 449.980371 
L 963.495111 448.974494 
L 968.234345 449.138861 
L 972.973579 448.791645 
L 982.452046 448.991215 
L 987.19128 449.671311 
L 991.930514 449.971606 
L 996.669748 449.440149 
L 1001.408982 449.756027 
L 1006.148215 449.661007 
L 1010.887449 449.372247 
L 1015.626683 449.592919 
L 1020.365917 449.961182 
L 1025.10515 450.070668 
L 1029.844384 449.598133 
L 1029.844384 449.598133 
" clip-path="url(#pd75c2e5f74)" style="fill: none; stroke: #2ca02c; stroke-width: 1.5; stroke-linecap: square"/>
   </g>
   <g id="line2d_36">
    <path d="M 86.736866 112.030767 
L 91.4761 140.517775 
L 96.215333 153.254517 
L 100.954567 161.67745 
L 110.433035 175.755503 
L 115.172268 181.52465 
L 119.911502 183.768032 
L 124.650736 176.091064 
L 129.38997 178.328979 
L 134.129204 184.194846 
L 138.868437 194.81238 
L 148.346905 198.737601 
L 153.086139 207.268598 
L 157.825372 213.629827 
L 162.564606 219.801512 
L 167.30384 225.280757 
L 176.782307 235.30143 
L 181.521541 240.368145 
L 186.260775 246.396836 
L 191.000009 253.130369 
L 195.739242 260.354358 
L 200.478476 267.911813 
L 205.21771 278.090501 
L 209.956944 293.5289 
L 214.696177 377.478699 
L 219.435411 445.07383 
L 224.174645 433.296138 
L 228.913879 443.388197 
L 233.653112 444.182595 
L 238.392346 444.765542 
L 243.13158 444.811759 
L 247.870814 445.002966 
L 252.610047 444.905111 
L 262.088515 445.032894 
L 285.784684 444.880584 
L 290.523918 445.086695 
L 304.741619 445.259984 
L 309.480853 445.271642 
L 314.220086 445.15469 
L 342.655489 445.245515 
L 347.394723 445.37308 
L 356.87319 445.162341 
L 361.612424 445.303264 
L 366.351658 445.162341 
L 371.090891 445.407173 
L 385.308593 444.815862 
L 390.047827 444.868799 
L 394.78706 444.78893 
L 399.526294 444.547245 
L 413.743995 444.587631 
L 418.483229 445.02694 
L 423.222463 444.938244 
L 465.875567 445.191369 
L 470.6148 445.10308 
L 480.093268 445.262421 
L 489.571735 445.249464 
L 499.050203 445.255202 
L 503.789437 444.978628 
L 508.528671 445.105576 
L 518.007138 445.042887 
L 522.746372 445.238697 
L 527.485606 445.133129 
L 532.224839 445.247057 
L 541.703307 445.256837 
L 546.442541 445.324459 
L 555.921008 445.203743 
L 570.138709 445.329549 
L 589.095644 445.314648 
L 593.834878 445.384775 
L 598.574112 445.294444 
L 603.313346 445.387734 
L 608.052579 445.270905 
L 622.270281 445.398686 
L 627.009515 445.226634 
L 636.487982 445.361946 
L 641.227216 445.277661 
L 660.184151 445.421117 
L 664.923385 445.388166 
L 669.662618 445.47415 
L 674.401852 445.292652 
L 683.88032 445.440211 
L 693.358787 445.314186 
L 698.098021 445.439967 
L 707.576488 445.246502 
L 712.315722 445.379253 
L 731.272657 445.327825 
L 745.490359 445.335877 
L 750.229592 445.37478 
L 754.968826 445.293735 
L 764.447294 445.354415 
L 769.186527 445.314343 
L 783.404229 445.494848 
L 797.62193 445.372589 
L 802.361164 445.519587 
L 811.839631 445.293148 
L 835.5358 445.416582 
L 840.275034 445.292007 
L 849.753501 445.404828 
L 916.102774 445.387675 
L 920.842008 445.316287 
L 930.320475 445.438514 
L 954.016644 445.358333 
L 958.755878 445.085526 
L 982.452046 444.597658 
L 987.19128 444.691194 
L 991.930514 444.595869 
L 1001.408982 445.10175 
L 1010.887449 445.168268 
L 1029.844384 445.327143 
L 1029.844384 445.327143 
" clip-path="url(#pd75c2e5f74)" style="fill: none; stroke: #d62728; stroke-width: 1.5; stroke-linecap: square"/>
   </g>
   <g id="line2d_37">
    <path d="M 86.736866 98.822765 
L 91.4761 119.784251 
L 96.215333 129.723815 
L 100.954567 136.711524 
L 105.693801 142.435046 
L 110.433035 144.386888 
L 115.172268 159.400574 
L 119.911502 168.27577 
L 124.650736 173.895386 
L 129.38997 178.526217 
L 134.129204 181.640686 
L 138.868437 184.052507 
L 143.607671 187.084085 
L 148.346905 189.350204 
L 153.086139 191.783309 
L 162.564606 195.999696 
L 176.782307 202.931813 
L 181.521541 204.959298 
L 186.260775 206.371572 
L 191.000009 208.51268 
L 195.739242 209.984642 
L 200.478476 211.626196 
L 205.21771 214.151112 
L 209.956944 217.625085 
L 214.696177 220.499233 
L 219.435411 224.200045 
L 224.174645 227.336575 
L 228.913879 228.915033 
L 238.392346 233.505264 
L 243.13158 235.316461 
L 252.610047 240.256382 
L 257.349281 241.783785 
L 266.827749 245.943716 
L 271.566983 246.944715 
L 276.306216 248.865555 
L 281.04545 251.233016 
L 285.784684 253.0464 
L 290.523918 255.937518 
L 295.263151 259.469669 
L 300.002385 263.80776 
L 304.741619 267.836359 
L 309.480853 272.688571 
L 314.220086 277.218585 
L 318.95932 282.409872 
L 323.698554 288.005298 
L 328.437788 294.598586 
L 333.177021 302.570947 
L 337.916255 314.848046 
L 342.655489 392.105584 
L 347.394723 445.187519 
L 352.133956 445.622542 
L 356.87319 445.566301 
L 361.612424 445.345934 
L 366.351658 445.455516 
L 371.090891 445.318912 
L 375.830125 445.596655 
L 380.569359 446.031833 
L 390.047827 446.133422 
L 394.78706 446.181611 
L 399.526294 445.704294 
L 404.265528 445.430805 
L 409.004762 445.404893 
L 413.743995 445.203962 
L 418.483229 445.365463 
L 423.222463 445.314655 
L 427.961697 445.660516 
L 432.70093 445.581326 
L 437.440164 446.027452 
L 442.179398 446.203422 
L 446.918632 446.044019 
L 451.657865 446.176674 
L 522.746372 446.234427 
L 527.485606 446.135276 
L 532.224839 445.792403 
L 541.703307 445.403906 
L 546.442541 445.73172 
L 551.181774 445.465172 
L 555.921008 445.658789 
L 560.660242 445.556182 
L 565.399476 445.780711 
L 570.138709 446.175656 
L 579.617177 446.144127 
L 612.791813 446.189478 
L 627.009515 446.217243 
L 664.923385 446.267376 
L 679.141086 446.194414 
L 693.358787 446.208512 
L 698.098021 446.151874 
L 707.576488 446.298998 
L 717.054956 446.148573 
L 740.751125 446.276322 
L 750.229592 446.260126 
L 778.664995 446.129939 
L 783.404229 446.288416 
L 792.882696 446.257102 
L 797.62193 446.391211 
L 802.361164 446.273207 
L 811.839631 446.26562 
L 826.057332 446.138821 
L 830.796566 446.349254 
L 868.710436 446.370849 
L 873.44967 446.233042 
L 878.188904 446.330527 
L 897.145839 446.340276 
L 901.885073 446.403548 
L 906.624306 446.222398 
L 911.36354 446.348513 
L 1029.844384 446.414873 
L 1029.844384 446.414873 
" clip-path="url(#pd75c2e5f74)" style="fill: none; stroke: #9467bd; stroke-width: 1.5; stroke-linecap: square"/>
   </g>
   <g id="line2d_38">
    <path d="M 86.736866 86.848254 
L 91.4761 105.613471 
L 96.215333 114.330159 
L 100.954567 117.076087 
L 105.693801 106.951052 
L 110.433035 102.399601 
L 115.172268 104.584548 
L 119.911502 113.075038 
L 124.650736 117.44352 
L 129.38997 121.042031 
L 134.129204 124.48287 
L 138.868437 119.403661 
L 143.607671 110.393122 
L 148.346905 102.402439 
L 153.086139 113.806597 
L 157.825372 126.343826 
L 162.564606 134.162368 
L 167.30384 138.174832 
L 172.043074 140.588257 
L 176.782307 141.730803 
L 181.521541 143.164358 
L 186.260775 144.919409 
L 191.000009 146.402724 
L 195.739242 147.097138 
L 200.478476 148.929004 
L 205.21771 149.854422 
L 209.956944 149.604377 
L 214.696177 150.096169 
L 219.435411 151.191445 
L 224.174645 151.71208 
L 228.913879 151.881694 
L 233.653112 152.289724 
L 238.392346 152.908334 
L 243.13158 153.171673 
L 247.870814 153.630726 
L 252.610047 153.794236 
L 257.349281 154.494323 
L 262.088515 154.988947 
L 266.827749 155.673948 
L 271.566983 155.964563 
L 276.306216 156.508915 
L 281.04545 155.146252 
L 285.784684 152.472511 
L 290.523918 155.27672 
L 295.263151 157.559341 
L 300.002385 158.26119 
L 304.741619 157.710476 
L 309.480853 158.081978 
L 314.220086 157.757804 
L 318.95932 157.804293 
L 323.698554 157.699218 
L 328.437788 157.78387 
L 337.916255 158.759112 
L 342.655489 158.334831 
L 352.133956 159.227239 
L 361.612424 160.420377 
L 366.351658 160.734712 
L 371.090891 160.84207 
L 380.569359 161.458832 
L 385.308593 161.405769 
L 390.047827 161.490084 
L 394.78706 161.081626 
L 399.526294 161.305288 
L 409.004762 161.22403 
L 413.743995 131.479375 
L 418.483229 126.726622 
L 423.222463 129.975449 
L 427.961697 132.88282 
L 432.70093 135.377293 
L 437.440164 137.127309 
L 442.179398 138.437498 
L 446.918632 139.384543 
L 451.657865 139.912391 
L 461.136333 141.454544 
L 465.875567 142.467359 
L 470.6148 142.953718 
L 475.354034 143.709769 
L 480.093268 144.265755 
L 494.310969 144.67625 
L 503.789437 146.279419 
L 518.007138 148.748626 
L 522.746372 149.07453 
L 532.224839 150.425038 
L 541.703307 150.744772 
L 546.442541 151.263704 
L 551.181774 151.193861 
L 565.399476 151.69456 
L 570.138709 152.007016 
L 574.877943 152.686835 
L 579.617177 152.995953 
L 584.356411 152.65682 
L 589.095644 152.513083 
L 598.574112 154.026483 
L 603.313346 153.850881 
L 612.791813 154.023491 
L 617.531047 154.08186 
L 622.270281 154.755817 
L 631.748748 155.195129 
L 636.487982 154.863483 
L 641.227216 154.985807 
L 645.96645 154.647349 
L 650.705683 155.096221 
L 655.444917 155.662879 
L 664.923385 155.934921 
L 669.662618 156.65028 
L 679.141086 157.169091 
L 683.88032 157.689164 
L 688.619553 158.052771 
L 693.358787 158.916951 
L 698.098021 159.658656 
L 702.837255 159.766353 
L 707.576488 160.127365 
L 712.315722 160.296674 
L 721.79419 161.065837 
L 726.533423 160.834332 
L 731.272657 160.946756 
L 745.490359 162.340236 
L 750.229592 162.475732 
L 759.70806 163.439742 
L 764.447294 163.34312 
L 769.186527 162.904148 
L 783.404229 162.418658 
L 788.143462 162.406007 
L 797.62193 163.078023 
L 802.361164 163.563824 
L 811.839631 163.738809 
L 816.578865 163.91129 
L 826.057332 163.938256 
L 854.492735 164.727688 
L 859.231969 164.128202 
L 863.971203 164.204495 
L 868.710436 163.627654 
L 873.44967 164.002673 
L 878.188904 164.602776 
L 882.928138 164.675735 
L 897.145839 164.009553 
L 901.885073 163.867269 
L 906.624306 163.099806 
L 911.36354 163.346332 
L 920.842008 163.382856 
L 925.581241 163.85379 
L 930.320475 164.134063 
L 944.538176 164.302046 
L 949.27741 164.61237 
L 954.016644 164.438159 
L 958.755878 164.428191 
L 977.712813 166.068909 
L 982.452046 166.014893 
L 987.19128 166.308401 
L 991.930514 167.350836 
L 996.669748 167.029991 
L 1001.408982 167.662889 
L 1006.148215 168.081068 
L 1010.887449 167.98287 
L 1015.626683 168.606601 
L 1020.365917 168.806854 
L 1025.10515 168.576707 
L 1029.844384 169.023146 
L 1029.844384 169.023146 
" clip-path="url(#pd75c2e5f74)" style="fill: none; stroke: #8c564b; stroke-width: 1.5; stroke-linecap: square"/>
   </g>
   <g id="line2d_39">
    <path d="M 86.736866 38.68769 
L 96.215333 42.508172 
L 100.954567 46.797608 
L 105.693801 48.09737 
L 110.433035 46.749577 
L 115.172268 48.474823 
L 119.911502 49.750798 
L 124.650736 50.305452 
L 134.129204 50.736959 
L 138.868437 50.951773 
L 148.346905 51.116112 
L 153.086139 51.255681 
L 157.825372 51.609934 
L 162.564606 50.919842 
L 172.043074 43.245901 
L 176.782307 41.724973 
L 181.521541 46.310329 
L 186.260775 47.679626 
L 191.000009 48.571235 
L 195.739242 47.661269 
L 200.478476 48.064332 
L 205.21771 49.790469 
L 209.956944 48.225956 
L 214.696177 48.265321 
L 219.435411 50.012965 
L 228.913879 49.674998 
L 233.653112 50.719195 
L 238.392346 52.097308 
L 243.13158 49.061756 
L 247.870814 47.628663 
L 252.610047 49.648809 
L 257.349281 50.738258 
L 262.088515 52.250208 
L 266.827749 52.395327 
L 271.566983 51.211225 
L 276.306216 49.87849 
L 281.04545 50.582958 
L 285.784684 51.696936 
L 290.523918 52.255853 
L 295.263151 51.150791 
L 300.002385 52.460545 
L 304.741619 51.845665 
L 309.480853 47.18195 
L 314.220086 47.409101 
L 318.95932 47.457599 
L 323.698554 47.277495 
L 328.437788 49.791309 
L 333.177021 50.042736 
L 337.916255 51.156656 
L 342.655489 50.704171 
L 347.394723 51.951884 
L 352.133956 52.801628 
L 356.87319 49.227242 
L 361.612424 48.06245 
L 366.351658 47.967127 
L 371.090891 48.384189 
L 375.830125 48.455612 
L 380.569359 50.563648 
L 385.308593 51.72609 
L 390.047827 51.31964 
L 394.78706 52.393756 
L 399.526294 51.252907 
L 409.004762 53.478179 
L 413.743995 51.42962 
L 418.483229 50.247095 
L 423.222463 52.414673 
L 427.961697 53.074562 
L 432.70093 52.729132 
L 437.440164 53.085332 
L 442.179398 53.244762 
L 446.918632 52.837788 
L 451.657865 53.949542 
L 456.397099 54.106172 
L 461.136333 53.287926 
L 465.875567 54.57303 
L 470.6148 54.691093 
L 475.354034 53.892441 
L 480.093268 54.558253 
L 484.832502 54.084576 
L 494.310969 54.638989 
L 499.050203 53.224777 
L 503.789437 50.039997 
L 508.528671 53.308442 
L 513.267904 54.151399 
L 518.007138 54.331657 
L 522.746372 54.140632 
L 527.485606 54.711704 
L 532.224839 49.944054 
L 536.964073 49.222618 
L 546.442541 48.165528 
L 555.921008 51.278303 
L 560.660242 49.784956 
L 565.399476 51.938038 
L 570.138709 51.124762 
L 574.877943 52.857502 
L 579.617177 51.151263 
L 584.356411 48.973377 
L 589.095644 50.113483 
L 598.574112 47.264698 
L 603.313346 46.789109 
L 608.052579 46.982016 
L 612.791813 49.569686 
L 617.531047 51.022924 
L 622.270281 52.032935 
L 627.009515 48.498035 
L 631.748748 43.443633 
L 636.487982 45.168043 
L 641.227216 48.431832 
L 645.96645 49.907931 
L 650.705683 47.855546 
L 660.184151 51.647029 
L 664.923385 50.705105 
L 669.662618 49.98006 
L 674.401852 51.356016 
L 679.141086 50.685731 
L 683.88032 50.394318 
L 688.619553 48.288222 
L 693.358787 51.078983 
L 698.098021 50.750209 
L 702.837255 48.903102 
L 707.576488 50.887183 
L 712.315722 51.526899 
L 717.054956 51.497714 
L 721.79419 51.299316 
L 726.533423 50.38849 
L 731.272657 48.590032 
L 736.011891 47.82584 
L 740.751125 49.623739 
L 745.490359 49.643388 
L 750.229592 47.709011 
L 754.968826 48.257189 
L 759.70806 52.199159 
L 764.447294 50.914644 
L 769.186527 51.739091 
L 773.925761 51.440825 
L 778.664995 50.83255 
L 783.404229 50.914829 
L 788.143462 51.806376 
L 797.62193 52.731578 
L 802.361164 52.019765 
L 807.100397 51.904913 
L 811.839631 52.458244 
L 816.578865 52.449911 
L 821.318099 52.631409 
L 826.057332 54.331697 
L 830.796566 54.0562 
L 835.5358 54.496067 
L 840.275034 54.386858 
L 845.014267 54.589791 
L 849.753501 54.524727 
L 854.492735 54.120554 
L 863.971203 54.482647 
L 868.710436 54.525193 
L 882.928138 54.007492 
L 887.667371 54.401756 
L 897.145839 54.108834 
L 901.885073 54.129813 
L 906.624306 54.015637 
L 916.102774 54.463214 
L 930.320475 54.272621 
L 939.798943 53.987532 
L 944.538176 54.246644 
L 949.27741 54.303225 
L 954.016644 53.687018 
L 958.755878 54.139099 
L 968.234345 53.96535 
L 972.973579 54.248033 
L 977.712813 54.694993 
L 987.19128 53.891435 
L 991.930514 54.442729 
L 996.669748 54.483825 
L 1006.148215 54.375598 
L 1010.887449 53.042866 
L 1015.626683 53.371818 
L 1025.10515 52.990601 
L 1029.844384 52.949943 
L 1029.844384 52.949943 
" clip-path="url(#pd75c2e5f74)" style="fill: none; stroke: #e377c2; stroke-width: 1.5; stroke-linecap: square"/>
   </g>
   <g id="patch_3">
    <path d="M 39.58149 470.64351 
L 39.58149 18.118365 
" style="fill: none; stroke: #000000; stroke-width: 0.8; stroke-linejoin: miter; stroke-linecap: square"/>
   </g>
   <g id="patch_4">
    <path d="M 1076.99976 470.64351 
L 1076.99976 18.118365 
" style="fill: none; stroke: #000000; stroke-width: 0.8; stroke-linejoin: miter; stroke-linecap: square"/>
   </g>
   <g id="patch_5">
    <path d="M 39.58149 470.64351 
L 1076.99976 470.64351 
" style="fill: none; stroke: #000000; stroke-width: 0.8; stroke-linejoin: miter; stroke-linecap: square"/>
   </g>
   <g id="patch_6">
    <path d="M 39.58149 18.118365 
L 1076.99976 18.118365 
" style="fill: none; stroke: #000000; stroke-width: 0.8; stroke-linejoin: miter; stroke-linecap: square"/>
   </g>
   <g id="text_20">
    <!-- r7-7700x -->
    <g transform="translate(531.020625 12.118365) scale(0.12 -0.12)">
     <defs>
      <path id="DejaVuSans-2d" d="M 313 2009 
L 1997 2009 
L 1997 1497 
L 313 1497 
L 313 2009 
z
" transform="scale(0.015625)"/>
      <path id="DejaVuSans-78" d="M 3513 3500 
L 2247 1797 
L 3578 0 
L 2900 0 
L 1881 1375 
L 863 0 
L 184 0 
L 1544 1831 
L 300 3500 
L 978 3500 
L 1906 2253 
L 2834 3500 
L 3513 3500 
z
" transform="scale(0.015625)"/>
     </defs>
     <use xlink:href="#DejaVuSans-72"/>
     <use xlink:href="#DejaVuSans-37" x="41.113281"/>
     <use xlink:href="#DejaVuSans-2d" x="104.736328"/>
     <use xlink:href="#DejaVuSans-37" x="140.820312"/>
     <use xlink:href="#DejaVuSans-37" x="204.443359"/>
     <use xlink:href="#DejaVuSans-30" x="268.066406"/>
     <use xlink:href="#DejaVuSans-30" x="331.689453"/>
     <use xlink:href="#DejaVuSans-78" x="395.3125"/>
    </g>
   </g>
   <g id="legend_1">
    <g id="patch_7">
     <path d="M 612.66851 297.254375 
L 1069.99976 297.254375 
Q 1071.99976 297.254375 1071.99976 295.254375 
L 1071.99976 193.5075 
Q 1071.99976 191.5075 1069.99976 191.5075 
L 612.66851 191.5075 
Q 610.66851 191.5075 610.66851 193.5075 
L 610.66851 295.254375 
Q 610.66851 297.254375 612.66851 297.254375 
z
" style="fill: #ffffff; opacity: 0.8; stroke: #cccccc; stroke-linejoin: miter"/>
    </g>
    <g id="line2d_40">
     <path d="M 614.66851 199.605937 
L 624.66851 199.605937 
L 634.66851 199.605937 
" style="fill: none; stroke: #1f77b4; stroke-width: 1.5; stroke-linecap: square"/>
    </g>
    <g id="text_21">
     <!-- concat(rng(x,5), copy(60000, srand(5k, x)), lit(qwertyuiopasdfghjkl)); 300.000MB -->
     <g transform="translate(642.66851 203.105937) scale(0.1 -0.1)">
      <defs>
       <path id="DejaVuSans-63" d="M 3122 3366 
L 3122 2828 
Q 2878 2963 2633 3030 
Q 2388 3097 2138 3097 
Q 1578 3097 1268 2742 
Q 959 2388 959 1747 
Q 959 1106 1268 751 
Q 1578 397 2138 397 
Q 2388 397 2633 464 
Q 2878 531 3122 666 
L 3122 134 
Q 2881 22 2623 -34 
Q 2366 -91 2075 -91 
Q 1284 -91 818 406 
Q 353 903 353 1747 
Q 353 2603 823 3093 
Q 1294 3584 2113 3584 
Q 2378 3584 2631 3529 
Q 2884 3475 3122 3366 
z
" transform="scale(0.015625)"/>
       <path id="DejaVuSans-6f" d="M 1959 3097 
Q 1497 3097 1228 2736 
Q 959 2375 959 1747 
Q 959 1119 1226 758 
Q 1494 397 1959 397 
Q 2419 397 2687 759 
Q 2956 1122 2956 1747 
Q 2956 2369 2687 2733 
Q 2419 3097 1959 3097 
z
M 1959 3584 
Q 2709 3584 3137 3096 
Q 3566 2609 3566 1747 
Q 3566 888 3137 398 
Q 2709 -91 1959 -91 
Q 1206 -91 779 398 
Q 353 888 353 1747 
Q 353 2609 779 3096 
Q 1206 3584 1959 3584 
z
" transform="scale(0.015625)"/>
       <path id="DejaVuSans-74" d="M 1172 4494 
L 1172 3500 
L 2356 3500 
L 2356 3053 
L 1172 3053 
L 1172 1153 
Q 1172 725 1289 603 
Q 1406 481 1766 481 
L 2356 481 
L 2356 0 
L 1766 0 
Q 1100 0 847 248 
Q 594 497 594 1153 
L 594 3053 
L 172 3053 
L 172 3500 
L 594 3500 
L 594 4494 
L 1172 4494 
z
" transform="scale(0.015625)"/>
       <path id="DejaVuSans-67" d="M 2906 1791 
Q 2906 2416 2648 2759 
Q 2391 3103 1925 3103 
Q 1463 3103 1205 2759 
Q 947 2416 947 1791 
Q 947 1169 1205 825 
Q 1463 481 1925 481 
Q 2391 481 2648 825 
Q 2906 1169 2906 1791 
z
M 3481 434 
Q 3481 -459 3084 -895 
Q 2688 -1331 1869 -1331 
Q 1566 -1331 1297 -1286 
Q 1028 -1241 775 -1147 
L 775 -588 
Q 1028 -725 1275 -790 
Q 1522 -856 1778 -856 
Q 2344 -856 2625 -561 
Q 2906 -266 2906 331 
L 2906 616 
Q 2728 306 2450 153 
Q 2172 0 1784 0 
Q 1141 0 747 490 
Q 353 981 353 1791 
Q 353 2603 747 3093 
Q 1141 3584 1784 3584 
Q 2172 3584 2450 3431 
Q 2728 3278 2906 2969 
L 2906 3500 
L 3481 3500 
L 3481 434 
z
" transform="scale(0.015625)"/>
       <path id="DejaVuSans-2c" d="M 750 794 
L 1409 794 
L 1409 256 
L 897 -744 
L 494 -744 
L 750 256 
L 750 794 
z
" transform="scale(0.015625)"/>
       <path id="DejaVuSans-70" d="M 1159 525 
L 1159 -1331 
L 581 -1331 
L 581 3500 
L 1159 3500 
L 1159 2969 
Q 1341 3281 1617 3432 
Q 1894 3584 2278 3584 
Q 2916 3584 3314 3078 
Q 3713 2572 3713 1747 
Q 3713 922 3314 415 
Q 2916 -91 2278 -91 
Q 1894 -91 1617 61 
Q 1341 213 1159 525 
z
M 3116 1747 
Q 3116 2381 2855 2742 
Q 2594 3103 2138 3103 
Q 1681 3103 1420 2742 
Q 1159 2381 1159 1747 
Q 1159 1113 1420 752 
Q 1681 391 2138 391 
Q 2594 391 2855 752 
Q 3116 1113 3116 1747 
z
" transform="scale(0.015625)"/>
       <path id="DejaVuSans-79" d="M 2059 -325 
Q 1816 -950 1584 -1140 
Q 1353 -1331 966 -1331 
L 506 -1331 
L 506 -850 
L 844 -850 
Q 1081 -850 1212 -737 
Q 1344 -625 1503 -206 
L 1606 56 
L 191 3500 
L 800 3500 
L 1894 763 
L 2988 3500 
L 3597 3500 
L 2059 -325 
z
" transform="scale(0.015625)"/>
       <path id="DejaVuSans-64" d="M 2906 2969 
L 2906 4863 
L 3481 4863 
L 3481 0 
L 2906 0 
L 2906 525 
Q 2725 213 2448 61 
Q 2172 -91 1784 -91 
Q 1150 -91 751 415 
Q 353 922 353 1747 
Q 353 2572 751 3078 
Q 1150 3584 1784 3584 
Q 2172 3584 2448 3432 
Q 2725 3281 2906 2969 
z
M 947 1747 
Q 947 1113 1208 752 
Q 1469 391 1925 391 
Q 2381 391 2643 752 
Q 2906 1113 2906 1747 
Q 2906 2381 2643 2742 
Q 2381 3103 1925 3103 
Q 1469 3103 1208 2742 
Q 947 2381 947 1747 
z
" transform="scale(0.015625)"/>
       <path id="DejaVuSans-6b" d="M 581 4863 
L 1159 4863 
L 1159 1991 
L 2875 3500 
L 3609 3500 
L 1753 1863 
L 3688 0 
L 2938 0 
L 1159 1709 
L 1159 0 
L 581 0 
L 581 4863 
z
" transform="scale(0.015625)"/>
       <path id="DejaVuSans-71" d="M 947 1747 
Q 947 1113 1208 752 
Q 1469 391 1925 391 
Q 2381 391 2643 752 
Q 2906 1113 2906 1747 
Q 2906 2381 2643 2742 
Q 2381 3103 1925 3103 
Q 1469 3103 1208 2742 
Q 947 2381 947 1747 
z
M 2906 525 
Q 2725 213 2448 61 
Q 2172 -91 1784 -91 
Q 1150 -91 751 415 
Q 353 922 353 1747 
Q 353 2572 751 3078 
Q 1150 3584 1784 3584 
Q 2172 3584 2448 3432 
Q 2725 3281 2906 2969 
L 2906 3500 
L 3481 3500 
L 3481 -1331 
L 2906 -1331 
L 2906 525 
z
" transform="scale(0.015625)"/>
       <path id="DejaVuSans-77" d="M 269 3500 
L 844 3500 
L 1563 769 
L 2278 3500 
L 2956 3500 
L 3675 769 
L 4391 3500 
L 4966 3500 
L 4050 0 
L 3372 0 
L 2619 2869 
L 1863 0 
L 1184 0 
L 269 3500 
z
" transform="scale(0.015625)"/>
       <path id="DejaVuSans-66" d="M 2375 4863 
L 2375 4384 
L 1825 4384 
Q 1516 4384 1395 4259 
Q 1275 4134 1275 3809 
L 1275 3500 
L 2222 3500 
L 2222 3053 
L 1275 3053 
L 1275 0 
L 697 0 
L 697 3053 
L 147 3053 
L 147 3500 
L 697 3500 
L 697 3744 
Q 697 4328 969 4595 
Q 1241 4863 1831 4863 
L 2375 4863 
z
" transform="scale(0.015625)"/>
       <path id="DejaVuSans-68" d="M 3513 2113 
L 3513 0 
L 2938 0 
L 2938 2094 
Q 2938 2591 2744 2837 
Q 2550 3084 2163 3084 
Q 1697 3084 1428 2787 
Q 1159 2491 1159 1978 
L 1159 0 
L 581 0 
L 581 4863 
L 1159 4863 
L 1159 2956 
Q 1366 3272 1645 3428 
Q 1925 3584 2291 3584 
Q 2894 3584 3203 3211 
Q 3513 2838 3513 2113 
z
" transform="scale(0.015625)"/>
       <path id="DejaVuSans-6a" d="M 603 3500 
L 1178 3500 
L 1178 -63 
Q 1178 -731 923 -1031 
Q 669 -1331 103 -1331 
L -116 -1331 
L -116 -844 
L 38 -844 
Q 366 -844 484 -692 
Q 603 -541 603 -63 
L 603 3500 
z
M 603 4863 
L 1178 4863 
L 1178 4134 
L 603 4134 
L 603 4863 
z
" transform="scale(0.015625)"/>
       <path id="DejaVuSans-3b" d="M 750 3309 
L 1409 3309 
L 1409 2516 
L 750 2516 
L 750 3309 
z
M 750 794 
L 1409 794 
L 1409 256 
L 897 -744 
L 494 -744 
L 750 256 
L 750 794 
z
" transform="scale(0.015625)"/>
       <path id="DejaVuSans-33" d="M 2597 2516 
Q 3050 2419 3304 2112 
Q 3559 1806 3559 1356 
Q 3559 666 3084 287 
Q 2609 -91 1734 -91 
Q 1441 -91 1130 -33 
Q 819 25 488 141 
L 488 750 
Q 750 597 1062 519 
Q 1375 441 1716 441 
Q 2309 441 2620 675 
Q 2931 909 2931 1356 
Q 2931 1769 2642 2001 
Q 2353 2234 1838 2234 
L 1294 2234 
L 1294 2753 
L 1863 2753 
Q 2328 2753 2575 2939 
Q 2822 3125 2822 3475 
Q 2822 3834 2567 4026 
Q 2313 4219 1838 4219 
Q 1578 4219 1281 4162 
Q 984 4106 628 3988 
L 628 4550 
Q 988 4650 1302 4700 
Q 1616 4750 1894 4750 
Q 2613 4750 3031 4423 
Q 3450 4097 3450 3541 
Q 3450 3153 3228 2886 
Q 3006 2619 2597 2516 
z
" transform="scale(0.015625)"/>
       <path id="DejaVuSans-4d" d="M 628 4666 
L 1569 4666 
L 2759 1491 
L 3956 4666 
L 4897 4666 
L 4897 0 
L 4281 0 
L 4281 4097 
L 3078 897 
L 2444 897 
L 1241 4097 
L 1241 0 
L 628 0 
L 628 4666 
z
" transform="scale(0.015625)"/>
       <path id="DejaVuSans-42" d="M 1259 2228 
L 1259 519 
L 2272 519 
Q 2781 519 3026 730 
Q 3272 941 3272 1375 
Q 3272 1813 3026 2020 
Q 2781 2228 2272 2228 
L 1259 2228 
z
M 1259 4147 
L 1259 2741 
L 2194 2741 
Q 2656 2741 2882 2914 
Q 3109 3088 3109 3444 
Q 3109 3797 2882 3972 
Q 2656 4147 2194 4147 
L 1259 4147 
z
M 628 4666 
L 2241 4666 
Q 2963 4666 3353 4366 
Q 3744 4066 3744 3513 
Q 3744 3084 3544 2831 
Q 3344 2578 2956 2516 
Q 3422 2416 3680 2098 
Q 3938 1781 3938 1306 
Q 3938 681 3513 340 
Q 3088 0 2303 0 
L 628 0 
L 628 4666 
z
" transform="scale(0.015625)"/>
      </defs>
      <use xlink:href="#DejaVuSans-63"/>
      <use xlink:href="#DejaVuSans-6f" x="54.980469"/>
      <use xlink:href="#DejaVuSans-6e" x="116.162109"/>
      <use xlink:href="#DejaVuSans-63" x="179.541016"/>
      <use xlink:href="#DejaVuSans-61" x="234.521484"/>
      <use xlink:href="#DejaVuSans-74" x="295.800781"/>
      <use xlink:href="#DejaVuSans-28" x="335.009766"/>
      <use xlink:href="#DejaVuSans-72" x="374.023438"/>
      <use xlink:href="#DejaVuSans-6e" x="413.386719"/>
      <use xlink:href="#DejaVuSans-67" x="476.765625"/>
      <use xlink:href="#DejaVuSans-28" x="540.242188"/>
      <use xlink:href="#DejaVuSans-78" x="579.255859"/>
      <use xlink:href="#DejaVuSans-2c" x="638.435547"/>
      <use xlink:href="#DejaVuSans-35" x="670.222656"/>
      <use xlink:href="#DejaVuSans-29" x="733.845703"/>
      <use xlink:href="#DejaVuSans-2c" x="772.859375"/>
      <use xlink:href="#DejaVuSans-20" x="804.646484"/>
      <use xlink:href="#DejaVuSans-63" x="836.433594"/>
      <use xlink:href="#DejaVuSans-6f" x="891.414062"/>
      <use xlink:href="#DejaVuSans-70" x="952.595703"/>
      <use xlink:href="#DejaVuSans-79" x="1016.072266"/>
      <use xlink:href="#DejaVuSans-28" x="1075.251953"/>
      <use xlink:href="#DejaVuSans-36" x="1114.265625"/>
      <use xlink:href="#DejaVuSans-30" x="1177.888672"/>
      <use xlink:href="#DejaVuSans-30" x="1241.511719"/>
      <use xlink:href="#DejaVuSans-30" x="1305.134766"/>
      <use xlink:href="#DejaVuSans-30" x="1368.757812"/>
      <use xlink:href="#DejaVuSans-2c" x="1432.380859"/>
      <use xlink:href="#DejaVuSans-20" x="1464.167969"/>
      <use xlink:href="#DejaVuSans-73" x="1495.955078"/>
      <use xlink:href="#DejaVuSans-72" x="1548.054688"/>
      <use xlink:href="#DejaVuSans-61" x="1589.167969"/>
      <use xlink:href="#DejaVuSans-6e" x="1650.447266"/>
      <use xlink:href="#DejaVuSans-64" x="1713.826172"/>
      <use xlink:href="#DejaVuSans-28" x="1777.302734"/>
      <use xlink:href="#DejaVuSans-35" x="1816.316406"/>
      <use xlink:href="#DejaVuSans-6b" x="1879.939453"/>
      <use xlink:href="#DejaVuSans-2c" x="1937.849609"/>
      <use xlink:href="#DejaVuSans-20" x="1969.636719"/>
      <use xlink:href="#DejaVuSans-78" x="2001.423828"/>
      <use xlink:href="#DejaVuSans-29" x="2060.603516"/>
      <use xlink:href="#DejaVuSans-29" x="2099.617188"/>
      <use xlink:href="#DejaVuSans-2c" x="2138.630859"/>
      <use xlink:href="#DejaVuSans-20" x="2170.417969"/>
      <use xlink:href="#DejaVuSans-6c" x="2202.205078"/>
      <use xlink:href="#DejaVuSans-69" x="2229.988281"/>
      <use xlink:href="#DejaVuSans-74" x="2257.771484"/>
      <use xlink:href="#DejaVuSans-28" x="2296.980469"/>
      <use xlink:href="#DejaVuSans-71" x="2335.994141"/>
      <use xlink:href="#DejaVuSans-77" x="2399.470703"/>
      <use xlink:href="#DejaVuSans-65" x="2481.257812"/>
      <use xlink:href="#DejaVuSans-72" x="2542.78125"/>
      <use xlink:href="#DejaVuSans-74" x="2583.894531"/>
      <use xlink:href="#DejaVuSans-79" x="2623.103516"/>
      <use xlink:href="#DejaVuSans-75" x="2682.283203"/>
      <use xlink:href="#DejaVuSans-69" x="2745.662109"/>
      <use xlink:href="#DejaVuSans-6f" x="2773.445312"/>
      <use xlink:href="#DejaVuSans-70" x="2834.626953"/>
      <use xlink:href="#DejaVuSans-61" x="2898.103516"/>
      <use xlink:href="#DejaVuSans-73" x="2959.382812"/>
      <use xlink:href="#DejaVuSans-64" x="3011.482422"/>
      <use xlink:href="#DejaVuSans-66" x="3074.958984"/>
      <use xlink:href="#DejaVuSans-67" x="3110.164062"/>
      <use xlink:href="#DejaVuSans-68" x="3173.640625"/>
      <use xlink:href="#DejaVuSans-6a" x="3237.019531"/>
      <use xlink:href="#DejaVuSans-6b" x="3264.802734"/>
      <use xlink:href="#DejaVuSans-6c" x="3322.712891"/>
      <use xlink:href="#DejaVuSans-29" x="3350.496094"/>
      <use xlink:href="#DejaVuSans-29" x="3389.509766"/>
      <use xlink:href="#DejaVuSans-3b" x="3428.523438"/>
      <use xlink:href="#DejaVuSans-20" x="3462.214844"/>
      <use xlink:href="#DejaVuSans-33" x="3494.001953"/>
      <use xlink:href="#DejaVuSans-30" x="3557.625"/>
      <use xlink:href="#DejaVuSans-30" x="3621.248047"/>
      <use xlink:href="#DejaVuSans-2e" x="3684.871094"/>
      <use xlink:href="#DejaVuSans-30" x="3716.658203"/>
      <use xlink:href="#DejaVuSans-30" x="3780.28125"/>
      <use xlink:href="#DejaVuSans-30" x="3843.904297"/>
      <use xlink:href="#DejaVuSans-4d" x="3907.527344"/>
      <use xlink:href="#DejaVuSans-42" x="3993.806641"/>
     </g>
    </g>
    <g id="line2d_41">
     <path d="M 614.66851 214.284063 
L 624.66851 214.284063 
L 634.66851 214.284063 
" style="fill: none; stroke: #ff7f0e; stroke-width: 1.5; stroke-linecap: square"/>
    </g>
    <g id="text_22">
     <!-- concat(rng(x,100), copy(3000, srand(100k, x)), lit(qwertyuiopasdfghjkl)); 300.000MB -->
     <g transform="translate(642.66851 217.784063) scale(0.1 -0.1)">
      <use xlink:href="#DejaVuSans-63"/>
      <use xlink:href="#DejaVuSans-6f" x="54.980469"/>
      <use xlink:href="#DejaVuSans-6e" x="116.162109"/>
      <use xlink:href="#DejaVuSans-63" x="179.541016"/>
      <use xlink:href="#DejaVuSans-61" x="234.521484"/>
      <use xlink:href="#DejaVuSans-74" x="295.800781"/>
      <use xlink:href="#DejaVuSans-28" x="335.009766"/>
      <use xlink:href="#DejaVuSans-72" x="374.023438"/>
      <use xlink:href="#DejaVuSans-6e" x="413.386719"/>
      <use xlink:href="#DejaVuSans-67" x="476.765625"/>
      <use xlink:href="#DejaVuSans-28" x="540.242188"/>
      <use xlink:href="#DejaVuSans-78" x="579.255859"/>
      <use xlink:href="#DejaVuSans-2c" x="638.435547"/>
      <use xlink:href="#DejaVuSans-31" x="670.222656"/>
      <use xlink:href="#DejaVuSans-30" x="733.845703"/>
      <use xlink:href="#DejaVuSans-30" x="797.46875"/>
      <use xlink:href="#DejaVuSans-29" x="861.091797"/>
      <use xlink:href="#DejaVuSans-2c" x="900.105469"/>
      <use xlink:href="#DejaVuSans-20" x="931.892578"/>
      <use xlink:href="#DejaVuSans-63" x="963.679688"/>
      <use xlink:href="#DejaVuSans-6f" x="1018.660156"/>
      <use xlink:href="#DejaVuSans-70" x="1079.841797"/>
      <use xlink:href="#DejaVuSans-79" x="1143.318359"/>
      <use xlink:href="#DejaVuSans-28" x="1202.498047"/>
      <use xlink:href="#DejaVuSans-33" x="1241.511719"/>
      <use xlink:href="#DejaVuSans-30" x="1305.134766"/>
      <use xlink:href="#DejaVuSans-30" x="1368.757812"/>
      <use xlink:href="#DejaVuSans-30" x="1432.380859"/>
      <use xlink:href="#DejaVuSans-2c" x="1496.003906"/>
      <use xlink:href="#DejaVuSans-20" x="1527.791016"/>
      <use xlink:href="#DejaVuSans-73" x="1559.578125"/>
      <use xlink:href="#DejaVuSans-72" x="1611.677734"/>
      <use xlink:href="#DejaVuSans-61" x="1652.791016"/>
      <use xlink:href="#DejaVuSans-6e" x="1714.070312"/>
      <use xlink:href="#DejaVuSans-64" x="1777.449219"/>
      <use xlink:href="#DejaVuSans-28" x="1840.925781"/>
      <use xlink:href="#DejaVuSans-31" x="1879.939453"/>
      <use xlink:href="#DejaVuSans-30" x="1943.5625"/>
      <use xlink:href="#DejaVuSans-30" x="2007.185547"/>
      <use xlink:href="#DejaVuSans-6b" x="2070.808594"/>
      <use xlink:href="#DejaVuSans-2c" x="2128.71875"/>
      <use xlink:href="#DejaVuSans-20" x="2160.505859"/>
      <use xlink:href="#DejaVuSans-78" x="2192.292969"/>
      <use xlink:href="#DejaVuSans-29" x="2251.472656"/>
      <use xlink:href="#DejaVuSans-29" x="2290.486328"/>
      <use xlink:href="#DejaVuSans-2c" x="2329.5"/>
      <use xlink:href="#DejaVuSans-20" x="2361.287109"/>
      <use xlink:href="#DejaVuSans-6c" x="2393.074219"/>
      <use xlink:href="#DejaVuSans-69" x="2420.857422"/>
      <use xlink:href="#DejaVuSans-74" x="2448.640625"/>
      <use xlink:href="#DejaVuSans-28" x="2487.849609"/>
      <use xlink:href="#DejaVuSans-71" x="2526.863281"/>
      <use xlink:href="#DejaVuSans-77" x="2590.339844"/>
      <use xlink:href="#DejaVuSans-65" x="2672.126953"/>
      <use xlink:href="#DejaVuSans-72" x="2733.650391"/>
      <use xlink:href="#DejaVuSans-74" x="2774.763672"/>
      <use xlink:href="#DejaVuSans-79" x="2813.972656"/>
      <use xlink:href="#DejaVuSans-75" x="2873.152344"/>
      <use xlink:href="#DejaVuSans-69" x="2936.53125"/>
      <use xlink:href="#DejaVuSans-6f" x="2964.314453"/>
      <use xlink:href="#DejaVuSans-70" x="3025.496094"/>
      <use xlink:href="#DejaVuSans-61" x="3088.972656"/>
      <use xlink:href="#DejaVuSans-73" x="3150.251953"/>
      <use xlink:href="#DejaVuSans-64" x="3202.351562"/>
      <use xlink:href="#DejaVuSans-66" x="3265.828125"/>
      <use xlink:href="#DejaVuSans-67" x="3301.033203"/>
      <use xlink:href="#DejaVuSans-68" x="3364.509766"/>
      <use xlink:href="#DejaVuSans-6a" x="3427.888672"/>
      <use xlink:href="#DejaVuSans-6b" x="3455.671875"/>
      <use xlink:href="#DejaVuSans-6c" x="3513.582031"/>
      <use xlink:href="#DejaVuSans-29" x="3541.365234"/>
      <use xlink:href="#DejaVuSans-29" x="3580.378906"/>
      <use xlink:href="#DejaVuSans-3b" x="3619.392578"/>
      <use xlink:href="#DejaVuSans-20" x="3653.083984"/>
      <use xlink:href="#DejaVuSans-33" x="3684.871094"/>
      <use xlink:href="#DejaVuSans-30" x="3748.494141"/>
      <use xlink:href="#DejaVuSans-30" x="3812.117188"/>
      <use xlink:href="#DejaVuSans-2e" x="3875.740234"/>
      <use xlink:href="#DejaVuSans-30" x="3907.527344"/>
      <use xlink:href="#DejaVuSans-30" x="3971.150391"/>
      <use xlink:href="#DejaVuSans-30" x="4034.773438"/>
      <use xlink:href="#DejaVuSans-4d" x="4098.396484"/>
      <use xlink:href="#DejaVuSans-42" x="4184.675781"/>
     </g>
    </g>
    <g id="line2d_42">
     <path d="M 614.66851 228.962187 
L 624.66851 228.962187 
L 634.66851 228.962187 
" style="fill: none; stroke: #2ca02c; stroke-width: 1.5; stroke-linecap: square"/>
    </g>
    <g id="text_23">
     <!-- concat(rng(x,250), copy(1200, srand(250k, x)), lit(qwertyuiopasdfghjkl)); 300.000MB -->
     <g transform="translate(642.66851 232.462187) scale(0.1 -0.1)">
      <use xlink:href="#DejaVuSans-63"/>
      <use xlink:href="#DejaVuSans-6f" x="54.980469"/>
      <use xlink:href="#DejaVuSans-6e" x="116.162109"/>
      <use xlink:href="#DejaVuSans-63" x="179.541016"/>
      <use xlink:href="#DejaVuSans-61" x="234.521484"/>
      <use xlink:href="#DejaVuSans-74" x="295.800781"/>
      <use xlink:href="#DejaVuSans-28" x="335.009766"/>
      <use xlink:href="#DejaVuSans-72" x="374.023438"/>
      <use xlink:href="#DejaVuSans-6e" x="413.386719"/>
      <use xlink:href="#DejaVuSans-67" x="476.765625"/>
      <use xlink:href="#DejaVuSans-28" x="540.242188"/>
      <use xlink:href="#DejaVuSans-78" x="579.255859"/>
      <use xlink:href="#DejaVuSans-2c" x="638.435547"/>
      <use xlink:href="#DejaVuSans-32" x="670.222656"/>
      <use xlink:href="#DejaVuSans-35" x="733.845703"/>
      <use xlink:href="#DejaVuSans-30" x="797.46875"/>
      <use xlink:href="#DejaVuSans-29" x="861.091797"/>
      <use xlink:href="#DejaVuSans-2c" x="900.105469"/>
      <use xlink:href="#DejaVuSans-20" x="931.892578"/>
      <use xlink:href="#DejaVuSans-63" x="963.679688"/>
      <use xlink:href="#DejaVuSans-6f" x="1018.660156"/>
      <use xlink:href="#DejaVuSans-70" x="1079.841797"/>
      <use xlink:href="#DejaVuSans-79" x="1143.318359"/>
      <use xlink:href="#DejaVuSans-28" x="1202.498047"/>
      <use xlink:href="#DejaVuSans-31" x="1241.511719"/>
      <use xlink:href="#DejaVuSans-32" x="1305.134766"/>
      <use xlink:href="#DejaVuSans-30" x="1368.757812"/>
      <use xlink:href="#DejaVuSans-30" x="1432.380859"/>
      <use xlink:href="#DejaVuSans-2c" x="1496.003906"/>
      <use xlink:href="#DejaVuSans-20" x="1527.791016"/>
      <use xlink:href="#DejaVuSans-73" x="1559.578125"/>
      <use xlink:href="#DejaVuSans-72" x="1611.677734"/>
      <use xlink:href="#DejaVuSans-61" x="1652.791016"/>
      <use xlink:href="#DejaVuSans-6e" x="1714.070312"/>
      <use xlink:href="#DejaVuSans-64" x="1777.449219"/>
      <use xlink:href="#DejaVuSans-28" x="1840.925781"/>
      <use xlink:href="#DejaVuSans-32" x="1879.939453"/>
      <use xlink:href="#DejaVuSans-35" x="1943.5625"/>
      <use xlink:href="#DejaVuSans-30" x="2007.185547"/>
      <use xlink:href="#DejaVuSans-6b" x="2070.808594"/>
      <use xlink:href="#DejaVuSans-2c" x="2128.71875"/>
      <use xlink:href="#DejaVuSans-20" x="2160.505859"/>
      <use xlink:href="#DejaVuSans-78" x="2192.292969"/>
      <use xlink:href="#DejaVuSans-29" x="2251.472656"/>
      <use xlink:href="#DejaVuSans-29" x="2290.486328"/>
      <use xlink:href="#DejaVuSans-2c" x="2329.5"/>
      <use xlink:href="#DejaVuSans-20" x="2361.287109"/>
      <use xlink:href="#DejaVuSans-6c" x="2393.074219"/>
      <use xlink:href="#DejaVuSans-69" x="2420.857422"/>
      <use xlink:href="#DejaVuSans-74" x="2448.640625"/>
      <use xlink:href="#DejaVuSans-28" x="2487.849609"/>
      <use xlink:href="#DejaVuSans-71" x="2526.863281"/>
      <use xlink:href="#DejaVuSans-77" x="2590.339844"/>
      <use xlink:href="#DejaVuSans-65" x="2672.126953"/>
      <use xlink:href="#DejaVuSans-72" x="2733.650391"/>
      <use xlink:href="#DejaVuSans-74" x="2774.763672"/>
      <use xlink:href="#DejaVuSans-79" x="2813.972656"/>
      <use xlink:href="#DejaVuSans-75" x="2873.152344"/>
      <use xlink:href="#DejaVuSans-69" x="2936.53125"/>
      <use xlink:href="#DejaVuSans-6f" x="2964.314453"/>
      <use xlink:href="#DejaVuSans-70" x="3025.496094"/>
      <use xlink:href="#DejaVuSans-61" x="3088.972656"/>
      <use xlink:href="#DejaVuSans-73" x="3150.251953"/>
      <use xlink:href="#DejaVuSans-64" x="3202.351562"/>
      <use xlink:href="#DejaVuSans-66" x="3265.828125"/>
      <use xlink:href="#DejaVuSans-67" x="3301.033203"/>
      <use xlink:href="#DejaVuSans-68" x="3364.509766"/>
      <use xlink:href="#DejaVuSans-6a" x="3427.888672"/>
      <use xlink:href="#DejaVuSans-6b" x="3455.671875"/>
      <use xlink:href="#DejaVuSans-6c" x="3513.582031"/>
      <use xlink:href="#DejaVuSans-29" x="3541.365234"/>
      <use xlink:href="#DejaVuSans-29" x="3580.378906"/>
      <use xlink:href="#DejaVuSans-3b" x="3619.392578"/>
      <use xlink:href="#DejaVuSans-20" x="3653.083984"/>
      <use xlink:href="#DejaVuSans-33" x="3684.871094"/>
      <use xlink:href="#DejaVuSans-30" x="3748.494141"/>
      <use xlink:href="#DejaVuSans-30" x="3812.117188"/>
      <use xlink:href="#DejaVuSans-2e" x="3875.740234"/>
      <use xlink:href="#DejaVuSans-30" x="3907.527344"/>
      <use xlink:href="#DejaVuSans-30" x="3971.150391"/>
      <use xlink:href="#DejaVuSans-30" x="4034.773438"/>
      <use xlink:href="#DejaVuSans-4d" x="4098.396484"/>
      <use xlink:href="#DejaVuSans-42" x="4184.675781"/>
     </g>
    </g>
    <g id="line2d_43">
     <path d="M 614.66851 243.640312 
L 624.66851 243.640312 
L 634.66851 243.640312 
" style="fill: none; stroke: #d62728; stroke-width: 1.5; stroke-linecap: square"/>
    </g>
    <g id="text_24">
     <!-- concat(rng(x,290), copy(1034, srand(290k, x)), lit(qwertyuiopasdfghjkl)); 299.860MB -->
     <g transform="translate(642.66851 247.140312) scale(0.1 -0.1)">
      <defs>
       <path id="DejaVuSans-39" d="M 703 97 
L 703 672 
Q 941 559 1184 500 
Q 1428 441 1663 441 
Q 2288 441 2617 861 
Q 2947 1281 2994 2138 
Q 2813 1869 2534 1725 
Q 2256 1581 1919 1581 
Q 1219 1581 811 2004 
Q 403 2428 403 3163 
Q 403 3881 828 4315 
Q 1253 4750 1959 4750 
Q 2769 4750 3195 4129 
Q 3622 3509 3622 2328 
Q 3622 1225 3098 567 
Q 2575 -91 1691 -91 
Q 1453 -91 1209 -44 
Q 966 3 703 97 
z
M 1959 2075 
Q 2384 2075 2632 2365 
Q 2881 2656 2881 3163 
Q 2881 3666 2632 3958 
Q 2384 4250 1959 4250 
Q 1534 4250 1286 3958 
Q 1038 3666 1038 3163 
Q 1038 2656 1286 2365 
Q 1534 2075 1959 2075 
z
" transform="scale(0.015625)"/>
      </defs>
      <use xlink:href="#DejaVuSans-63"/>
      <use xlink:href="#DejaVuSans-6f" x="54.980469"/>
      <use xlink:href="#DejaVuSans-6e" x="116.162109"/>
      <use xlink:href="#DejaVuSans-63" x="179.541016"/>
      <use xlink:href="#DejaVuSans-61" x="234.521484"/>
      <use xlink:href="#DejaVuSans-74" x="295.800781"/>
      <use xlink:href="#DejaVuSans-28" x="335.009766"/>
      <use xlink:href="#DejaVuSans-72" x="374.023438"/>
      <use xlink:href="#DejaVuSans-6e" x="413.386719"/>
      <use xlink:href="#DejaVuSans-67" x="476.765625"/>
      <use xlink:href="#DejaVuSans-28" x="540.242188"/>
      <use xlink:href="#DejaVuSans-78" x="579.255859"/>
      <use xlink:href="#DejaVuSans-2c" x="638.435547"/>
      <use xlink:href="#DejaVuSans-32" x="670.222656"/>
      <use xlink:href="#DejaVuSans-39" x="733.845703"/>
      <use xlink:href="#DejaVuSans-30" x="797.46875"/>
      <use xlink:href="#DejaVuSans-29" x="861.091797"/>
      <use xlink:href="#DejaVuSans-2c" x="900.105469"/>
      <use xlink:href="#DejaVuSans-20" x="931.892578"/>
      <use xlink:href="#DejaVuSans-63" x="963.679688"/>
      <use xlink:href="#DejaVuSans-6f" x="1018.660156"/>
      <use xlink:href="#DejaVuSans-70" x="1079.841797"/>
      <use xlink:href="#DejaVuSans-79" x="1143.318359"/>
      <use xlink:href="#DejaVuSans-28" x="1202.498047"/>
      <use xlink:href="#DejaVuSans-31" x="1241.511719"/>
      <use xlink:href="#DejaVuSans-30" x="1305.134766"/>
      <use xlink:href="#DejaVuSans-33" x="1368.757812"/>
      <use xlink:href="#DejaVuSans-34" x="1432.380859"/>
      <use xlink:href="#DejaVuSans-2c" x="1496.003906"/>
      <use xlink:href="#DejaVuSans-20" x="1527.791016"/>
      <use xlink:href="#DejaVuSans-73" x="1559.578125"/>
      <use xlink:href="#DejaVuSans-72" x="1611.677734"/>
      <use xlink:href="#DejaVuSans-61" x="1652.791016"/>
      <use xlink:href="#DejaVuSans-6e" x="1714.070312"/>
      <use xlink:href="#DejaVuSans-64" x="1777.449219"/>
      <use xlink:href="#DejaVuSans-28" x="1840.925781"/>
      <use xlink:href="#DejaVuSans-32" x="1879.939453"/>
      <use xlink:href="#DejaVuSans-39" x="1943.5625"/>
      <use xlink:href="#DejaVuSans-30" x="2007.185547"/>
      <use xlink:href="#DejaVuSans-6b" x="2070.808594"/>
      <use xlink:href="#DejaVuSans-2c" x="2128.71875"/>
      <use xlink:href="#DejaVuSans-20" x="2160.505859"/>
      <use xlink:href="#DejaVuSans-78" x="2192.292969"/>
      <use xlink:href="#DejaVuSans-29" x="2251.472656"/>
      <use xlink:href="#DejaVuSans-29" x="2290.486328"/>
      <use xlink:href="#DejaVuSans-2c" x="2329.5"/>
      <use xlink:href="#DejaVuSans-20" x="2361.287109"/>
      <use xlink:href="#DejaVuSans-6c" x="2393.074219"/>
      <use xlink:href="#DejaVuSans-69" x="2420.857422"/>
      <use xlink:href="#DejaVuSans-74" x="2448.640625"/>
      <use xlink:href="#DejaVuSans-28" x="2487.849609"/>
      <use xlink:href="#DejaVuSans-71" x="2526.863281"/>
      <use xlink:href="#DejaVuSans-77" x="2590.339844"/>
      <use xlink:href="#DejaVuSans-65" x="2672.126953"/>
      <use xlink:href="#DejaVuSans-72" x="2733.650391"/>
      <use xlink:href="#DejaVuSans-74" x="2774.763672"/>
      <use xlink:href="#DejaVuSans-79" x="2813.972656"/>
      <use xlink:href="#DejaVuSans-75" x="2873.152344"/>
      <use xlink:href="#DejaVuSans-69" x="2936.53125"/>
      <use xlink:href="#DejaVuSans-6f" x="2964.314453"/>
      <use xlink:href="#DejaVuSans-70" x="3025.496094"/>
      <use xlink:href="#DejaVuSans-61" x="3088.972656"/>
      <use xlink:href="#DejaVuSans-73" x="3150.251953"/>
      <use xlink:href="#DejaVuSans-64" x="3202.351562"/>
      <use xlink:href="#DejaVuSans-66" x="3265.828125"/>
      <use xlink:href="#DejaVuSans-67" x="3301.033203"/>
      <use xlink:href="#DejaVuSans-68" x="3364.509766"/>
      <use xlink:href="#DejaVuSans-6a" x="3427.888672"/>
      <use xlink:href="#DejaVuSans-6b" x="3455.671875"/>
      <use xlink:href="#DejaVuSans-6c" x="3513.582031"/>
      <use xlink:href="#DejaVuSans-29" x="3541.365234"/>
      <use xlink:href="#DejaVuSans-29" x="3580.378906"/>
      <use xlink:href="#DejaVuSans-3b" x="3619.392578"/>
      <use xlink:href="#DejaVuSans-20" x="3653.083984"/>
      <use xlink:href="#DejaVuSans-32" x="3684.871094"/>
      <use xlink:href="#DejaVuSans-39" x="3748.494141"/>
      <use xlink:href="#DejaVuSans-39" x="3812.117188"/>
      <use xlink:href="#DejaVuSans-2e" x="3875.740234"/>
      <use xlink:href="#DejaVuSans-38" x="3907.527344"/>
      <use xlink:href="#DejaVuSans-36" x="3971.150391"/>
      <use xlink:href="#DejaVuSans-30" x="4034.773438"/>
      <use xlink:href="#DejaVuSans-4d" x="4098.396484"/>
      <use xlink:href="#DejaVuSans-42" x="4184.675781"/>
     </g>
    </g>
    <g id="line2d_44">
     <path d="M 614.66851 258.318437 
L 624.66851 258.318437 
L 634.66851 258.318437 
" style="fill: none; stroke: #9467bd; stroke-width: 1.5; stroke-linecap: square"/>
    </g>
    <g id="text_25">
     <!-- concat(rng(x,300), copy(1000, srand(300k, x)), lit(qwertyuiopasdfghjkl)); 300.000MB -->
     <g transform="translate(642.66851 261.818437) scale(0.1 -0.1)">
      <use xlink:href="#DejaVuSans-63"/>
      <use xlink:href="#DejaVuSans-6f" x="54.980469"/>
      <use xlink:href="#DejaVuSans-6e" x="116.162109"/>
      <use xlink:href="#DejaVuSans-63" x="179.541016"/>
      <use xlink:href="#DejaVuSans-61" x="234.521484"/>
      <use xlink:href="#DejaVuSans-74" x="295.800781"/>
      <use xlink:href="#DejaVuSans-28" x="335.009766"/>
      <use xlink:href="#DejaVuSans-72" x="374.023438"/>
      <use xlink:href="#DejaVuSans-6e" x="413.386719"/>
      <use xlink:href="#DejaVuSans-67" x="476.765625"/>
      <use xlink:href="#DejaVuSans-28" x="540.242188"/>
      <use xlink:href="#DejaVuSans-78" x="579.255859"/>
      <use xlink:href="#DejaVuSans-2c" x="638.435547"/>
      <use xlink:href="#DejaVuSans-33" x="670.222656"/>
      <use xlink:href="#DejaVuSans-30" x="733.845703"/>
      <use xlink:href="#DejaVuSans-30" x="797.46875"/>
      <use xlink:href="#DejaVuSans-29" x="861.091797"/>
      <use xlink:href="#DejaVuSans-2c" x="900.105469"/>
      <use xlink:href="#DejaVuSans-20" x="931.892578"/>
      <use xlink:href="#DejaVuSans-63" x="963.679688"/>
      <use xlink:href="#DejaVuSans-6f" x="1018.660156"/>
      <use xlink:href="#DejaVuSans-70" x="1079.841797"/>
      <use xlink:href="#DejaVuSans-79" x="1143.318359"/>
      <use xlink:href="#DejaVuSans-28" x="1202.498047"/>
      <use xlink:href="#DejaVuSans-31" x="1241.511719"/>
      <use xlink:href="#DejaVuSans-30" x="1305.134766"/>
      <use xlink:href="#DejaVuSans-30" x="1368.757812"/>
      <use xlink:href="#DejaVuSans-30" x="1432.380859"/>
      <use xlink:href="#DejaVuSans-2c" x="1496.003906"/>
      <use xlink:href="#DejaVuSans-20" x="1527.791016"/>
      <use xlink:href="#DejaVuSans-73" x="1559.578125"/>
      <use xlink:href="#DejaVuSans-72" x="1611.677734"/>
      <use xlink:href="#DejaVuSans-61" x="1652.791016"/>
      <use xlink:href="#DejaVuSans-6e" x="1714.070312"/>
      <use xlink:href="#DejaVuSans-64" x="1777.449219"/>
      <use xlink:href="#DejaVuSans-28" x="1840.925781"/>
      <use xlink:href="#DejaVuSans-33" x="1879.939453"/>
      <use xlink:href="#DejaVuSans-30" x="1943.5625"/>
      <use xlink:href="#DejaVuSans-30" x="2007.185547"/>
      <use xlink:href="#DejaVuSans-6b" x="2070.808594"/>
      <use xlink:href="#DejaVuSans-2c" x="2128.71875"/>
      <use xlink:href="#DejaVuSans-20" x="2160.505859"/>
      <use xlink:href="#DejaVuSans-78" x="2192.292969"/>
      <use xlink:href="#DejaVuSans-29" x="2251.472656"/>
      <use xlink:href="#DejaVuSans-29" x="2290.486328"/>
      <use xlink:href="#DejaVuSans-2c" x="2329.5"/>
      <use xlink:href="#DejaVuSans-20" x="2361.287109"/>
      <use xlink:href="#DejaVuSans-6c" x="2393.074219"/>
      <use xlink:href="#DejaVuSans-69" x="2420.857422"/>
      <use xlink:href="#DejaVuSans-74" x="2448.640625"/>
      <use xlink:href="#DejaVuSans-28" x="2487.849609"/>
      <use xlink:href="#DejaVuSans-71" x="2526.863281"/>
      <use xlink:href="#DejaVuSans-77" x="2590.339844"/>
      <use xlink:href="#DejaVuSans-65" x="2672.126953"/>
      <use xlink:href="#DejaVuSans-72" x="2733.650391"/>
      <use xlink:href="#DejaVuSans-74" x="2774.763672"/>
      <use xlink:href="#DejaVuSans-79" x="2813.972656"/>
      <use xlink:href="#DejaVuSans-75" x="2873.152344"/>
      <use xlink:href="#DejaVuSans-69" x="2936.53125"/>
      <use xlink:href="#DejaVuSans-6f" x="2964.314453"/>
      <use xlink:href="#DejaVuSans-70" x="3025.496094"/>
      <use xlink:href="#DejaVuSans-61" x="3088.972656"/>
      <use xlink:href="#DejaVuSans-73" x="3150.251953"/>
      <use xlink:href="#DejaVuSans-64" x="3202.351562"/>
      <use xlink:href="#DejaVuSans-66" x="3265.828125"/>
      <use xlink:href="#DejaVuSans-67" x="3301.033203"/>
      <use xlink:href="#DejaVuSans-68" x="3364.509766"/>
      <use xlink:href="#DejaVuSans-6a" x="3427.888672"/>
      <use xlink:href="#DejaVuSans-6b" x="3455.671875"/>
      <use xlink:href="#DejaVuSans-6c" x="3513.582031"/>
      <use xlink:href="#DejaVuSans-29" x="3541.365234"/>
      <use xlink:href="#DejaVuSans-29" x="3580.378906"/>
      <use xlink:href="#DejaVuSans-3b" x="3619.392578"/>
      <use xlink:href="#DejaVuSans-20" x="3653.083984"/>
      <use xlink:href="#DejaVuSans-33" x="3684.871094"/>
      <use xlink:href="#DejaVuSans-30" x="3748.494141"/>
      <use xlink:href="#DejaVuSans-30" x="3812.117188"/>
      <use xlink:href="#DejaVuSans-2e" x="3875.740234"/>
      <use xlink:href="#DejaVuSans-30" x="3907.527344"/>
      <use xlink:href="#DejaVuSans-30" x="3971.150391"/>
      <use xlink:href="#DejaVuSans-30" x="4034.773438"/>
      <use xlink:href="#DejaVuSans-4d" x="4098.396484"/>
      <use xlink:href="#DejaVuSans-42" x="4184.675781"/>
     </g>
    </g>
    <g id="line2d_45">
     <path d="M 614.66851 272.996562 
L 624.66851 272.996562 
L 634.66851 272.996562 
" style="fill: none; stroke: #8c564b; stroke-width: 1.5; stroke-linecap: square"/>
    </g>
    <g id="text_26">
     <!-- concat(rng(x,310), copy(967, srand(310k, x)), lit(qwertyuiopasdfghjkl)); 299.770MB -->
     <g transform="translate(642.66851 276.496562) scale(0.1 -0.1)">
      <use xlink:href="#DejaVuSans-63"/>
      <use xlink:href="#DejaVuSans-6f" x="54.980469"/>
      <use xlink:href="#DejaVuSans-6e" x="116.162109"/>
      <use xlink:href="#DejaVuSans-63" x="179.541016"/>
      <use xlink:href="#DejaVuSans-61" x="234.521484"/>
      <use xlink:href="#DejaVuSans-74" x="295.800781"/>
      <use xlink:href="#DejaVuSans-28" x="335.009766"/>
      <use xlink:href="#DejaVuSans-72" x="374.023438"/>
      <use xlink:href="#DejaVuSans-6e" x="413.386719"/>
      <use xlink:href="#DejaVuSans-67" x="476.765625"/>
      <use xlink:href="#DejaVuSans-28" x="540.242188"/>
      <use xlink:href="#DejaVuSans-78" x="579.255859"/>
      <use xlink:href="#DejaVuSans-2c" x="638.435547"/>
      <use xlink:href="#DejaVuSans-33" x="670.222656"/>
      <use xlink:href="#DejaVuSans-31" x="733.845703"/>
      <use xlink:href="#DejaVuSans-30" x="797.46875"/>
      <use xlink:href="#DejaVuSans-29" x="861.091797"/>
      <use xlink:href="#DejaVuSans-2c" x="900.105469"/>
      <use xlink:href="#DejaVuSans-20" x="931.892578"/>
      <use xlink:href="#DejaVuSans-63" x="963.679688"/>
      <use xlink:href="#DejaVuSans-6f" x="1018.660156"/>
      <use xlink:href="#DejaVuSans-70" x="1079.841797"/>
      <use xlink:href="#DejaVuSans-79" x="1143.318359"/>
      <use xlink:href="#DejaVuSans-28" x="1202.498047"/>
      <use xlink:href="#DejaVuSans-39" x="1241.511719"/>
      <use xlink:href="#DejaVuSans-36" x="1305.134766"/>
      <use xlink:href="#DejaVuSans-37" x="1368.757812"/>
      <use xlink:href="#DejaVuSans-2c" x="1432.380859"/>
      <use xlink:href="#DejaVuSans-20" x="1464.167969"/>
      <use xlink:href="#DejaVuSans-73" x="1495.955078"/>
      <use xlink:href="#DejaVuSans-72" x="1548.054688"/>
      <use xlink:href="#DejaVuSans-61" x="1589.167969"/>
      <use xlink:href="#DejaVuSans-6e" x="1650.447266"/>
      <use xlink:href="#DejaVuSans-64" x="1713.826172"/>
      <use xlink:href="#DejaVuSans-28" x="1777.302734"/>
      <use xlink:href="#DejaVuSans-33" x="1816.316406"/>
      <use xlink:href="#DejaVuSans-31" x="1879.939453"/>
      <use xlink:href="#DejaVuSans-30" x="1943.5625"/>
      <use xlink:href="#DejaVuSans-6b" x="2007.185547"/>
      <use xlink:href="#DejaVuSans-2c" x="2065.095703"/>
      <use xlink:href="#DejaVuSans-20" x="2096.882812"/>
      <use xlink:href="#DejaVuSans-78" x="2128.669922"/>
      <use xlink:href="#DejaVuSans-29" x="2187.849609"/>
      <use xlink:href="#DejaVuSans-29" x="2226.863281"/>
      <use xlink:href="#DejaVuSans-2c" x="2265.876953"/>
      <use xlink:href="#DejaVuSans-20" x="2297.664062"/>
      <use xlink:href="#DejaVuSans-6c" x="2329.451172"/>
      <use xlink:href="#DejaVuSans-69" x="2357.234375"/>
      <use xlink:href="#DejaVuSans-74" x="2385.017578"/>
      <use xlink:href="#DejaVuSans-28" x="2424.226562"/>
      <use xlink:href="#DejaVuSans-71" x="2463.240234"/>
      <use xlink:href="#DejaVuSans-77" x="2526.716797"/>
      <use xlink:href="#DejaVuSans-65" x="2608.503906"/>
      <use xlink:href="#DejaVuSans-72" x="2670.027344"/>
      <use xlink:href="#DejaVuSans-74" x="2711.140625"/>
      <use xlink:href="#DejaVuSans-79" x="2750.349609"/>
      <use xlink:href="#DejaVuSans-75" x="2809.529297"/>
      <use xlink:href="#DejaVuSans-69" x="2872.908203"/>
      <use xlink:href="#DejaVuSans-6f" x="2900.691406"/>
      <use xlink:href="#DejaVuSans-70" x="2961.873047"/>
      <use xlink:href="#DejaVuSans-61" x="3025.349609"/>
      <use xlink:href="#DejaVuSans-73" x="3086.628906"/>
      <use xlink:href="#DejaVuSans-64" x="3138.728516"/>
      <use xlink:href="#DejaVuSans-66" x="3202.205078"/>
      <use xlink:href="#DejaVuSans-67" x="3237.410156"/>
      <use xlink:href="#DejaVuSans-68" x="3300.886719"/>
      <use xlink:href="#DejaVuSans-6a" x="3364.265625"/>
      <use xlink:href="#DejaVuSans-6b" x="3392.048828"/>
      <use xlink:href="#DejaVuSans-6c" x="3449.958984"/>
      <use xlink:href="#DejaVuSans-29" x="3477.742188"/>
      <use xlink:href="#DejaVuSans-29" x="3516.755859"/>
      <use xlink:href="#DejaVuSans-3b" x="3555.769531"/>
      <use xlink:href="#DejaVuSans-20" x="3589.460938"/>
      <use xlink:href="#DejaVuSans-32" x="3621.248047"/>
      <use xlink:href="#DejaVuSans-39" x="3684.871094"/>
      <use xlink:href="#DejaVuSans-39" x="3748.494141"/>
      <use xlink:href="#DejaVuSans-2e" x="3812.117188"/>
      <use xlink:href="#DejaVuSans-37" x="3843.904297"/>
      <use xlink:href="#DejaVuSans-37" x="3907.527344"/>
      <use xlink:href="#DejaVuSans-30" x="3971.150391"/>
      <use xlink:href="#DejaVuSans-4d" x="4034.773438"/>
      <use xlink:href="#DejaVuSans-42" x="4121.052734"/>
     </g>
    </g>
    <g id="line2d_46">
     <path d="M 614.66851 287.674688 
L 624.66851 287.674688 
L 634.66851 287.674688 
" style="fill: none; stroke: #e377c2; stroke-width: 1.5; stroke-linecap: square"/>
    </g>
    <g id="text_27">
     <!-- concat(rng(x,350), copy(857, srand(350k, x)), lit(qwertyuiopasdfghjkl)); 299.950MB -->
     <g transform="translate(642.66851 291.174688) scale(0.1 -0.1)">
      <use xlink:href="#DejaVuSans-63"/>
      <use xlink:href="#DejaVuSans-6f" x="54.980469"/>
      <use xlink:href="#DejaVuSans-6e" x="116.162109"/>
      <use xlink:href="#DejaVuSans-63" x="179.541016"/>
      <use xlink:href="#DejaVuSans-61" x="234.521484"/>
      <use xlink:href="#DejaVuSans-74" x="295.800781"/>
      <use xlink:href="#DejaVuSans-28" x="335.009766"/>
      <use xlink:href="#DejaVuSans-72" x="374.023438"/>
      <use xlink:href="#DejaVuSans-6e" x="413.386719"/>
      <use xlink:href="#DejaVuSans-67" x="476.765625"/>
      <use xlink:href="#DejaVuSans-28" x="540.242188"/>
      <use xlink:href="#DejaVuSans-78" x="579.255859"/>
      <use xlink:href="#DejaVuSans-2c" x="638.435547"/>
      <use xlink:href="#DejaVuSans-33" x="670.222656"/>
      <use xlink:href="#DejaVuSans-35" x="733.845703"/>
      <use xlink:href="#DejaVuSans-30" x="797.46875"/>
      <use xlink:href="#DejaVuSans-29" x="861.091797"/>
      <use xlink:href="#DejaVuSans-2c" x="900.105469"/>
      <use xlink:href="#DejaVuSans-20" x="931.892578"/>
      <use xlink:href="#DejaVuSans-63" x="963.679688"/>
      <use xlink:href="#DejaVuSans-6f" x="1018.660156"/>
      <use xlink:href="#DejaVuSans-70" x="1079.841797"/>
      <use xlink:href="#DejaVuSans-79" x="1143.318359"/>
      <use xlink:href="#DejaVuSans-28" x="1202.498047"/>
      <use xlink:href="#DejaVuSans-38" x="1241.511719"/>
      <use xlink:href="#DejaVuSans-35" x="1305.134766"/>
      <use xlink:href="#DejaVuSans-37" x="1368.757812"/>
      <use xlink:href="#DejaVuSans-2c" x="1432.380859"/>
      <use xlink:href="#DejaVuSans-20" x="1464.167969"/>
      <use xlink:href="#DejaVuSans-73" x="1495.955078"/>
      <use xlink:href="#DejaVuSans-72" x="1548.054688"/>
      <use xlink:href="#DejaVuSans-61" x="1589.167969"/>
      <use xlink:href="#DejaVuSans-6e" x="1650.447266"/>
      <use xlink:href="#DejaVuSans-64" x="1713.826172"/>
      <use xlink:href="#DejaVuSans-28" x="1777.302734"/>
      <use xlink:href="#DejaVuSans-33" x="1816.316406"/>
      <use xlink:href="#DejaVuSans-35" x="1879.939453"/>
      <use xlink:href="#DejaVuSans-30" x="1943.5625"/>
      <use xlink:href="#DejaVuSans-6b" x="2007.185547"/>
      <use xlink:href="#DejaVuSans-2c" x="2065.095703"/>
      <use xlink:href="#DejaVuSans-20" x="2096.882812"/>
      <use xlink:href="#DejaVuSans-78" x="2128.669922"/>
      <use xlink:href="#DejaVuSans-29" x="2187.849609"/>
      <use xlink:href="#DejaVuSans-29" x="2226.863281"/>
      <use xlink:href="#DejaVuSans-2c" x="2265.876953"/>
      <use xlink:href="#DejaVuSans-20" x="2297.664062"/>
      <use xlink:href="#DejaVuSans-6c" x="2329.451172"/>
      <use xlink:href="#DejaVuSans-69" x="2357.234375"/>
      <use xlink:href="#DejaVuSans-74" x="2385.017578"/>
      <use xlink:href="#DejaVuSans-28" x="2424.226562"/>
      <use xlink:href="#DejaVuSans-71" x="2463.240234"/>
      <use xlink:href="#DejaVuSans-77" x="2526.716797"/>
      <use xlink:href="#DejaVuSans-65" x="2608.503906"/>
      <use xlink:href="#DejaVuSans-72" x="2670.027344"/>
      <use xlink:href="#DejaVuSans-74" x="2711.140625"/>
      <use xlink:href="#DejaVuSans-79" x="2750.349609"/>
      <use xlink:href="#DejaVuSans-75" x="2809.529297"/>
      <use xlink:href="#DejaVuSans-69" x="2872.908203"/>
      <use xlink:href="#DejaVuSans-6f" x="2900.691406"/>
      <use xlink:href="#DejaVuSans-70" x="2961.873047"/>
      <use xlink:href="#DejaVuSans-61" x="3025.349609"/>
      <use xlink:href="#DejaVuSans-73" x="3086.628906"/>
      <use xlink:href="#DejaVuSans-64" x="3138.728516"/>
      <use xlink:href="#DejaVuSans-66" x="3202.205078"/>
      <use xlink:href="#DejaVuSans-67" x="3237.410156"/>
      <use xlink:href="#DejaVuSans-68" x="3300.886719"/>
      <use xlink:href="#DejaVuSans-6a" x="3364.265625"/>
      <use xlink:href="#DejaVuSans-6b" x="3392.048828"/>
      <use xlink:href="#DejaVuSans-6c" x="3449.958984"/>
      <use xlink:href="#DejaVuSans-29" x="3477.742188"/>
      <use xlink:href="#DejaVuSans-29" x="3516.755859"/>
      <use xlink:href="#DejaVuSans-3b" x="3555.769531"/>
      <use xlink:href="#DejaVuSans-20" x="3589.460938"/>
      <use xlink:href="#DejaVuSans-32" x="3621.248047"/>
      <use xlink:href="#DejaVuSans-39" x="3684.871094"/>
      <use xlink:href="#DejaVuSans-39" x="3748.494141"/>
      <use xlink:href="#DejaVuSans-2e" x="3812.117188"/>
      <use xlink:href="#DejaVuSans-39" x="3843.904297"/>
      <use xlink:href="#DejaVuSans-35" x="3907.527344"/>
      <use xlink:href="#DejaVuSans-30" x="3971.150391"/>
      <use xlink:href="#DejaVuSans-4d" x="4034.773438"/>
      <use xlink:href="#DejaVuSans-42" x="4121.052734"/>
     </g>
    </g>
   </g>
  </g>
 </g>
 <defs>
  <clipPath id="pd75c2e5f74">
   <rect x="39.58149" y="18.118365" width="1037.41827" height="452.525145"/>
  </clipPath>
 </defs>
</svg>
