<?xml version="1.0" encoding="utf-8" standalone="no"?>
<!DOCTYPE svg PUBLIC "-//W3C//DTD SVG 1.1//EN"
  "http://www.w3.org/Graphics/SVG/1.1/DTD/svg11.dtd">
<svg xmlns:xlink="http://www.w3.org/1999/xlink" width="1080pt" height="504pt" viewBox="0 0 1080 504" xmlns="http://www.w3.org/2000/svg" version="1.1">
 <metadata>
  <rdf:RDF xmlns:dc="http://purl.org/dc/elements/1.1/" xmlns:cc="http://creativecommons.org/ns#" xmlns:rdf="http://www.w3.org/1999/02/22-rdf-syntax-ns#">
   <cc:Work>
    <dc:type rdf:resource="http://purl.org/dc/dcmitype/StillImage"/>
    <dc:date>2024-09-26T17:05:24.510899</dc:date>
    <dc:format>image/svg+xml</dc:format>
    <dc:creator>
     <cc:Agent>
      <dc:title>Matplotlib v3.9.1.post1, https://matplotlib.org/</dc:title>
     </cc:Agent>
    </dc:creator>
   </cc:Work>
  </rdf:RDF>
 </metadata>
 <defs>
  <style type="text/css">*{stroke-linejoin: round; stroke-linecap: butt}</style>
 </defs>
 <g id="figure_1">
  <g id="patch_1">
   <path d="M 0 504 
L 1080 504 
L 1080 0 
L 0 0 
z
" style="fill: #ffffff"/>
  </g>
  <g id="axes_1">
   <g id="patch_2">
    <path d="M 39.58149 470.64351 
L 1076.99976 470.64351 
L 1076.99976 18.118365 
L 39.58149 18.118365 
z
" style="fill: #ffffff"/>
   </g>
   <g id="matplotlib.axis_1">
    <g id="xtick_1">
     <g id="line2d_1">
      <path d="M 81.997632 470.64351 
L 81.997632 18.118365 
" clip-path="url(#p4c384c296b)" style="fill: none; stroke: #b0b0b0; stroke-width: 0.8; stroke-linecap: square"/>
     </g>
     <g id="line2d_2">
      <defs>
       <path id="m191811db34" d="M 0 0 
L 0 3.5 
" style="stroke: #000000; stroke-width: 0.8"/>
      </defs>
      <g>
       <use xlink:href="#m191811db34" x="81.997632" y="470.64351" style="stroke: #000000; stroke-width: 0.8"/>
      </g>
     </g>
     <g id="text_1">
      <!-- 0 -->
      <g transform="translate(78.816382 485.241947) scale(0.1 -0.1)">
       <defs>
        <path id="DejaVuSans-30" d="M 2034 4250 
Q 1547 4250 1301 3770 
Q 1056 3291 1056 2328 
Q 1056 1369 1301 889 
Q 1547 409 2034 409 
Q 2525 409 2770 889 
Q 3016 1369 3016 2328 
Q 3016 3291 2770 3770 
Q 2525 4250 2034 4250 
z
M 2034 4750 
Q 2819 4750 3233 4129 
Q 3647 3509 3647 2328 
Q 3647 1150 3233 529 
Q 2819 -91 2034 -91 
Q 1250 -91 836 529 
Q 422 1150 422 2328 
Q 422 3509 836 4129 
Q 1250 4750 2034 4750 
z
" transform="scale(0.015625)"/>
       </defs>
       <use xlink:href="#DejaVuSans-30"/>
      </g>
     </g>
    </g>
    <g id="xtick_2">
     <g id="line2d_3">
      <path d="M 200.478476 470.64351 
L 200.478476 18.118365 
" clip-path="url(#p4c384c296b)" style="fill: none; stroke: #b0b0b0; stroke-width: 0.8; stroke-linecap: square"/>
     </g>
     <g id="line2d_4">
      <g>
       <use xlink:href="#m191811db34" x="200.478476" y="470.64351" style="stroke: #000000; stroke-width: 0.8"/>
      </g>
     </g>
     <g id="text_2">
      <!-- 25 -->
      <g transform="translate(194.115976 485.241947) scale(0.1 -0.1)">
       <defs>
        <path id="DejaVuSans-32" d="M 1228 531 
L 3431 531 
L 3431 0 
L 469 0 
L 469 531 
Q 828 903 1448 1529 
Q 2069 2156 2228 2338 
Q 2531 2678 2651 2914 
Q 2772 3150 2772 3378 
Q 2772 3750 2511 3984 
Q 2250 4219 1831 4219 
Q 1534 4219 1204 4116 
Q 875 4013 500 3803 
L 500 4441 
Q 881 4594 1212 4672 
Q 1544 4750 1819 4750 
Q 2544 4750 2975 4387 
Q 3406 4025 3406 3419 
Q 3406 3131 3298 2873 
Q 3191 2616 2906 2266 
Q 2828 2175 2409 1742 
Q 1991 1309 1228 531 
z
" transform="scale(0.015625)"/>
        <path id="DejaVuSans-35" d="M 691 4666 
L 3169 4666 
L 3169 4134 
L 1269 4134 
L 1269 2991 
Q 1406 3038 1543 3061 
Q 1681 3084 1819 3084 
Q 2600 3084 3056 2656 
Q 3513 2228 3513 1497 
Q 3513 744 3044 326 
Q 2575 -91 1722 -91 
Q 1428 -91 1123 -41 
Q 819 9 494 109 
L 494 744 
Q 775 591 1075 516 
Q 1375 441 1709 441 
Q 2250 441 2565 725 
Q 2881 1009 2881 1497 
Q 2881 1984 2565 2268 
Q 2250 2553 1709 2553 
Q 1456 2553 1204 2497 
Q 953 2441 691 2322 
L 691 4666 
z
" transform="scale(0.015625)"/>
       </defs>
       <use xlink:href="#DejaVuSans-32"/>
       <use xlink:href="#DejaVuSans-35" x="63.623047"/>
      </g>
     </g>
    </g>
    <g id="xtick_3">
     <g id="line2d_5">
      <path d="M 318.95932 470.64351 
L 318.95932 18.118365 
" clip-path="url(#p4c384c296b)" style="fill: none; stroke: #b0b0b0; stroke-width: 0.8; stroke-linecap: square"/>
     </g>
     <g id="line2d_6">
      <g>
       <use xlink:href="#m191811db34" x="318.95932" y="470.64351" style="stroke: #000000; stroke-width: 0.8"/>
      </g>
     </g>
     <g id="text_3">
      <!-- 50 -->
      <g transform="translate(312.59682 485.241947) scale(0.1 -0.1)">
       <use xlink:href="#DejaVuSans-35"/>
       <use xlink:href="#DejaVuSans-30" x="63.623047"/>
      </g>
     </g>
    </g>
    <g id="xtick_4">
     <g id="line2d_7">
      <path d="M 437.440164 470.64351 
L 437.440164 18.118365 
" clip-path="url(#p4c384c296b)" style="fill: none; stroke: #b0b0b0; stroke-width: 0.8; stroke-linecap: square"/>
     </g>
     <g id="line2d_8">
      <g>
       <use xlink:href="#m191811db34" x="437.440164" y="470.64351" style="stroke: #000000; stroke-width: 0.8"/>
      </g>
     </g>
     <g id="text_4">
      <!-- 75 -->
      <g transform="translate(431.077664 485.241947) scale(0.1 -0.1)">
       <defs>
        <path id="DejaVuSans-37" d="M 525 4666 
L 3525 4666 
L 3525 4397 
L 1831 0 
L 1172 0 
L 2766 4134 
L 525 4134 
L 525 4666 
z
" transform="scale(0.015625)"/>
       </defs>
       <use xlink:href="#DejaVuSans-37"/>
       <use xlink:href="#DejaVuSans-35" x="63.623047"/>
      </g>
     </g>
    </g>
    <g id="xtick_5">
     <g id="line2d_9">
      <path d="M 555.921008 470.64351 
L 555.921008 18.118365 
" clip-path="url(#p4c384c296b)" style="fill: none; stroke: #b0b0b0; stroke-width: 0.8; stroke-linecap: square"/>
     </g>
     <g id="line2d_10">
      <g>
       <use xlink:href="#m191811db34" x="555.921008" y="470.64351" style="stroke: #000000; stroke-width: 0.8"/>
      </g>
     </g>
     <g id="text_5">
      <!-- 100 -->
      <g transform="translate(546.377258 485.241947) scale(0.1 -0.1)">
       <defs>
        <path id="DejaVuSans-31" d="M 794 531 
L 1825 531 
L 1825 4091 
L 703 3866 
L 703 4441 
L 1819 4666 
L 2450 4666 
L 2450 531 
L 3481 531 
L 3481 0 
L 794 0 
L 794 531 
z
" transform="scale(0.015625)"/>
       </defs>
       <use xlink:href="#DejaVuSans-31"/>
       <use xlink:href="#DejaVuSans-30" x="63.623047"/>
       <use xlink:href="#DejaVuSans-30" x="127.246094"/>
      </g>
     </g>
    </g>
    <g id="xtick_6">
     <g id="line2d_11">
      <path d="M 674.401852 470.64351 
L 674.401852 18.118365 
" clip-path="url(#p4c384c296b)" style="fill: none; stroke: #b0b0b0; stroke-width: 0.8; stroke-linecap: square"/>
     </g>
     <g id="line2d_12">
      <g>
       <use xlink:href="#m191811db34" x="674.401852" y="470.64351" style="stroke: #000000; stroke-width: 0.8"/>
      </g>
     </g>
     <g id="text_6">
      <!-- 125 -->
      <g transform="translate(664.858102 485.241947) scale(0.1 -0.1)">
       <use xlink:href="#DejaVuSans-31"/>
       <use xlink:href="#DejaVuSans-32" x="63.623047"/>
       <use xlink:href="#DejaVuSans-35" x="127.246094"/>
      </g>
     </g>
    </g>
    <g id="xtick_7">
     <g id="line2d_13">
      <path d="M 792.882696 470.64351 
L 792.882696 18.118365 
" clip-path="url(#p4c384c296b)" style="fill: none; stroke: #b0b0b0; stroke-width: 0.8; stroke-linecap: square"/>
     </g>
     <g id="line2d_14">
      <g>
       <use xlink:href="#m191811db34" x="792.882696" y="470.64351" style="stroke: #000000; stroke-width: 0.8"/>
      </g>
     </g>
     <g id="text_7">
      <!-- 150 -->
      <g transform="translate(783.338946 485.241947) scale(0.1 -0.1)">
       <use xlink:href="#DejaVuSans-31"/>
       <use xlink:href="#DejaVuSans-35" x="63.623047"/>
       <use xlink:href="#DejaVuSans-30" x="127.246094"/>
      </g>
     </g>
    </g>
    <g id="xtick_8">
     <g id="line2d_15">
      <path d="M 911.36354 470.64351 
L 911.36354 18.118365 
" clip-path="url(#p4c384c296b)" style="fill: none; stroke: #b0b0b0; stroke-width: 0.8; stroke-linecap: square"/>
     </g>
     <g id="line2d_16">
      <g>
       <use xlink:href="#m191811db34" x="911.36354" y="470.64351" style="stroke: #000000; stroke-width: 0.8"/>
      </g>
     </g>
     <g id="text_8">
      <!-- 175 -->
      <g transform="translate(901.81979 485.241947) scale(0.1 -0.1)">
       <use xlink:href="#DejaVuSans-31"/>
       <use xlink:href="#DejaVuSans-37" x="63.623047"/>
       <use xlink:href="#DejaVuSans-35" x="127.246094"/>
      </g>
     </g>
    </g>
    <g id="xtick_9">
     <g id="line2d_17">
      <path d="M 1029.844384 470.64351 
L 1029.844384 18.118365 
" clip-path="url(#p4c384c296b)" style="fill: none; stroke: #b0b0b0; stroke-width: 0.8; stroke-linecap: square"/>
     </g>
     <g id="line2d_18">
      <g>
       <use xlink:href="#m191811db34" x="1029.844384" y="470.64351" style="stroke: #000000; stroke-width: 0.8"/>
      </g>
     </g>
     <g id="text_9">
      <!-- 200 -->
      <g transform="translate(1020.300634 485.241947) scale(0.1 -0.1)">
       <use xlink:href="#DejaVuSans-32"/>
       <use xlink:href="#DejaVuSans-30" x="63.623047"/>
       <use xlink:href="#DejaVuSans-30" x="127.246094"/>
      </g>
     </g>
    </g>
    <g id="text_10">
     <!-- Trial number -->
     <g transform="translate(526.973438 498.920073) scale(0.1 -0.1)">
      <defs>
       <path id="DejaVuSans-54" d="M -19 4666 
L 3928 4666 
L 3928 4134 
L 2272 4134 
L 2272 0 
L 1638 0 
L 1638 4134 
L -19 4134 
L -19 4666 
z
" transform="scale(0.015625)"/>
       <path id="DejaVuSans-72" d="M 2631 2963 
Q 2534 3019 2420 3045 
Q 2306 3072 2169 3072 
Q 1681 3072 1420 2755 
Q 1159 2438 1159 1844 
L 1159 0 
L 581 0 
L 581 3500 
L 1159 3500 
L 1159 2956 
Q 1341 3275 1631 3429 
Q 1922 3584 2338 3584 
Q 2397 3584 2469 3576 
Q 2541 3569 2628 3553 
L 2631 2963 
z
" transform="scale(0.015625)"/>
       <path id="DejaVuSans-69" d="M 603 3500 
L 1178 3500 
L 1178 0 
L 603 0 
L 603 3500 
z
M 603 4863 
L 1178 4863 
L 1178 4134 
L 603 4134 
L 603 4863 
z
" transform="scale(0.015625)"/>
       <path id="DejaVuSans-61" d="M 2194 1759 
Q 1497 1759 1228 1600 
Q 959 1441 959 1056 
Q 959 750 1161 570 
Q 1363 391 1709 391 
Q 2188 391 2477 730 
Q 2766 1069 2766 1631 
L 2766 1759 
L 2194 1759 
z
M 3341 1997 
L 3341 0 
L 2766 0 
L 2766 531 
Q 2569 213 2275 61 
Q 1981 -91 1556 -91 
Q 1019 -91 701 211 
Q 384 513 384 1019 
Q 384 1609 779 1909 
Q 1175 2209 1959 2209 
L 2766 2209 
L 2766 2266 
Q 2766 2663 2505 2880 
Q 2244 3097 1772 3097 
Q 1472 3097 1187 3025 
Q 903 2953 641 2809 
L 641 3341 
Q 956 3463 1253 3523 
Q 1550 3584 1831 3584 
Q 2591 3584 2966 3190 
Q 3341 2797 3341 1997 
z
" transform="scale(0.015625)"/>
       <path id="DejaVuSans-6c" d="M 603 4863 
L 1178 4863 
L 1178 0 
L 603 0 
L 603 4863 
z
" transform="scale(0.015625)"/>
       <path id="DejaVuSans-20" transform="scale(0.015625)"/>
       <path id="DejaVuSans-6e" d="M 3513 2113 
L 3513 0 
L 2938 0 
L 2938 2094 
Q 2938 2591 2744 2837 
Q 2550 3084 2163 3084 
Q 1697 3084 1428 2787 
Q 1159 2491 1159 1978 
L 1159 0 
L 581 0 
L 581 3500 
L 1159 3500 
L 1159 2956 
Q 1366 3272 1645 3428 
Q 1925 3584 2291 3584 
Q 2894 3584 3203 3211 
Q 3513 2838 3513 2113 
z
" transform="scale(0.015625)"/>
       <path id="DejaVuSans-75" d="M 544 1381 
L 544 3500 
L 1119 3500 
L 1119 1403 
Q 1119 906 1312 657 
Q 1506 409 1894 409 
Q 2359 409 2629 706 
Q 2900 1003 2900 1516 
L 2900 3500 
L 3475 3500 
L 3475 0 
L 2900 0 
L 2900 538 
Q 2691 219 2414 64 
Q 2138 -91 1772 -91 
Q 1169 -91 856 284 
Q 544 659 544 1381 
z
M 1991 3584 
L 1991 3584 
z
" transform="scale(0.015625)"/>
       <path id="DejaVuSans-6d" d="M 3328 2828 
Q 3544 3216 3844 3400 
Q 4144 3584 4550 3584 
Q 5097 3584 5394 3201 
Q 5691 2819 5691 2113 
L 5691 0 
L 5113 0 
L 5113 2094 
Q 5113 2597 4934 2840 
Q 4756 3084 4391 3084 
Q 3944 3084 3684 2787 
Q 3425 2491 3425 1978 
L 3425 0 
L 2847 0 
L 2847 2094 
Q 2847 2600 2669 2842 
Q 2491 3084 2119 3084 
Q 1678 3084 1418 2786 
Q 1159 2488 1159 1978 
L 1159 0 
L 581 0 
L 581 3500 
L 1159 3500 
L 1159 2956 
Q 1356 3278 1631 3431 
Q 1906 3584 2284 3584 
Q 2666 3584 2933 3390 
Q 3200 3197 3328 2828 
z
" transform="scale(0.015625)"/>
       <path id="DejaVuSans-62" d="M 3116 1747 
Q 3116 2381 2855 2742 
Q 2594 3103 2138 3103 
Q 1681 3103 1420 2742 
Q 1159 2381 1159 1747 
Q 1159 1113 1420 752 
Q 1681 391 2138 391 
Q 2594 391 2855 752 
Q 3116 1113 3116 1747 
z
M 1159 2969 
Q 1341 3281 1617 3432 
Q 1894 3584 2278 3584 
Q 2916 3584 3314 3078 
Q 3713 2572 3713 1747 
Q 3713 922 3314 415 
Q 2916 -91 2278 -91 
Q 1894 -91 1617 61 
Q 1341 213 1159 525 
L 1159 0 
L 581 0 
L 581 4863 
L 1159 4863 
L 1159 2969 
z
" transform="scale(0.015625)"/>
       <path id="DejaVuSans-65" d="M 3597 1894 
L 3597 1613 
L 953 1613 
Q 991 1019 1311 708 
Q 1631 397 2203 397 
Q 2534 397 2845 478 
Q 3156 559 3463 722 
L 3463 178 
Q 3153 47 2828 -22 
Q 2503 -91 2169 -91 
Q 1331 -91 842 396 
Q 353 884 353 1716 
Q 353 2575 817 3079 
Q 1281 3584 2069 3584 
Q 2775 3584 3186 3129 
Q 3597 2675 3597 1894 
z
M 3022 2063 
Q 3016 2534 2758 2815 
Q 2500 3097 2075 3097 
Q 1594 3097 1305 2825 
Q 1016 2553 972 2059 
L 3022 2063 
z
" transform="scale(0.015625)"/>
      </defs>
      <use xlink:href="#DejaVuSans-54"/>
      <use xlink:href="#DejaVuSans-72" x="46.333984"/>
      <use xlink:href="#DejaVuSans-69" x="87.447266"/>
      <use xlink:href="#DejaVuSans-61" x="115.230469"/>
      <use xlink:href="#DejaVuSans-6c" x="176.509766"/>
      <use xlink:href="#DejaVuSans-20" x="204.292969"/>
      <use xlink:href="#DejaVuSans-6e" x="236.080078"/>
      <use xlink:href="#DejaVuSans-75" x="299.458984"/>
      <use xlink:href="#DejaVuSans-6d" x="362.837891"/>
      <use xlink:href="#DejaVuSans-62" x="460.25"/>
      <use xlink:href="#DejaVuSans-65" x="523.726562"/>
      <use xlink:href="#DejaVuSans-72" x="585.25"/>
     </g>
    </g>
   </g>
   <g id="matplotlib.axis_2">
    <g id="ytick_1">
     <g id="line2d_19">
      <path d="M 39.58149 436.44451 
L 1076.99976 436.44451 
" clip-path="url(#p4c384c296b)" style="fill: none; stroke: #b0b0b0; stroke-width: 0.8; stroke-linecap: square"/>
     </g>
     <g id="line2d_20">
      <defs>
       <path id="m769c1171f4" d="M 0 0 
L -3.5 0 
" style="stroke: #000000; stroke-width: 0.8"/>
      </defs>
      <g>
       <use xlink:href="#m769c1171f4" x="39.58149" y="436.44451" style="stroke: #000000; stroke-width: 0.8"/>
      </g>
     </g>
     <g id="text_11">
      <!-- 1.0 -->
      <g transform="translate(16.678365 440.243729) scale(0.1 -0.1)">
       <defs>
        <path id="DejaVuSans-2e" d="M 684 794 
L 1344 794 
L 1344 0 
L 684 0 
L 684 794 
z
" transform="scale(0.015625)"/>
       </defs>
       <use xlink:href="#DejaVuSans-31"/>
       <use xlink:href="#DejaVuSans-2e" x="63.623047"/>
       <use xlink:href="#DejaVuSans-30" x="95.410156"/>
      </g>
     </g>
    </g>
    <g id="ytick_2">
     <g id="line2d_21">
      <path d="M 39.58149 366.003201 
L 1076.99976 366.003201 
" clip-path="url(#p4c384c296b)" style="fill: none; stroke: #b0b0b0; stroke-width: 0.8; stroke-linecap: square"/>
     </g>
     <g id="line2d_22">
      <g>
       <use xlink:href="#m769c1171f4" x="39.58149" y="366.003201" style="stroke: #000000; stroke-width: 0.8"/>
      </g>
     </g>
     <g id="text_12">
      <!-- 1.5 -->
      <g transform="translate(16.678365 369.80242) scale(0.1 -0.1)">
       <use xlink:href="#DejaVuSans-31"/>
       <use xlink:href="#DejaVuSans-2e" x="63.623047"/>
       <use xlink:href="#DejaVuSans-35" x="95.410156"/>
      </g>
     </g>
    </g>
    <g id="ytick_3">
     <g id="line2d_23">
      <path d="M 39.58149 295.561892 
L 1076.99976 295.561892 
" clip-path="url(#p4c384c296b)" style="fill: none; stroke: #b0b0b0; stroke-width: 0.8; stroke-linecap: square"/>
     </g>
     <g id="line2d_24">
      <g>
       <use xlink:href="#m769c1171f4" x="39.58149" y="295.561892" style="stroke: #000000; stroke-width: 0.8"/>
      </g>
     </g>
     <g id="text_13">
      <!-- 2.0 -->
      <g transform="translate(16.678365 299.361111) scale(0.1 -0.1)">
       <use xlink:href="#DejaVuSans-32"/>
       <use xlink:href="#DejaVuSans-2e" x="63.623047"/>
       <use xlink:href="#DejaVuSans-30" x="95.410156"/>
      </g>
     </g>
    </g>
    <g id="ytick_4">
     <g id="line2d_25">
      <path d="M 39.58149 225.120583 
L 1076.99976 225.120583 
" clip-path="url(#p4c384c296b)" style="fill: none; stroke: #b0b0b0; stroke-width: 0.8; stroke-linecap: square"/>
     </g>
     <g id="line2d_26">
      <g>
       <use xlink:href="#m769c1171f4" x="39.58149" y="225.120583" style="stroke: #000000; stroke-width: 0.8"/>
      </g>
     </g>
     <g id="text_14">
      <!-- 2.5 -->
      <g transform="translate(16.678365 228.919802) scale(0.1 -0.1)">
       <use xlink:href="#DejaVuSans-32"/>
       <use xlink:href="#DejaVuSans-2e" x="63.623047"/>
       <use xlink:href="#DejaVuSans-35" x="95.410156"/>
      </g>
     </g>
    </g>
    <g id="ytick_5">
     <g id="line2d_27">
      <path d="M 39.58149 154.679274 
L 1076.99976 154.679274 
" clip-path="url(#p4c384c296b)" style="fill: none; stroke: #b0b0b0; stroke-width: 0.8; stroke-linecap: square"/>
     </g>
     <g id="line2d_28">
      <g>
       <use xlink:href="#m769c1171f4" x="39.58149" y="154.679274" style="stroke: #000000; stroke-width: 0.8"/>
      </g>
     </g>
     <g id="text_15">
      <!-- 3.0 -->
      <g transform="translate(16.678365 158.478493) scale(0.1 -0.1)">
       <defs>
        <path id="DejaVuSans-33" d="M 2597 2516 
Q 3050 2419 3304 2112 
Q 3559 1806 3559 1356 
Q 3559 666 3084 287 
Q 2609 -91 1734 -91 
Q 1441 -91 1130 -33 
Q 819 25 488 141 
L 488 750 
Q 750 597 1062 519 
Q 1375 441 1716 441 
Q 2309 441 2620 675 
Q 2931 909 2931 1356 
Q 2931 1769 2642 2001 
Q 2353 2234 1838 2234 
L 1294 2234 
L 1294 2753 
L 1863 2753 
Q 2328 2753 2575 2939 
Q 2822 3125 2822 3475 
Q 2822 3834 2567 4026 
Q 2313 4219 1838 4219 
Q 1578 4219 1281 4162 
Q 984 4106 628 3988 
L 628 4550 
Q 988 4650 1302 4700 
Q 1616 4750 1894 4750 
Q 2613 4750 3031 4423 
Q 3450 4097 3450 3541 
Q 3450 3153 3228 2886 
Q 3006 2619 2597 2516 
z
" transform="scale(0.015625)"/>
       </defs>
       <use xlink:href="#DejaVuSans-33"/>
       <use xlink:href="#DejaVuSans-2e" x="63.623047"/>
       <use xlink:href="#DejaVuSans-30" x="95.410156"/>
      </g>
     </g>
    </g>
    <g id="ytick_6">
     <g id="line2d_29">
      <path d="M 39.58149 84.237965 
L 1076.99976 84.237965 
" clip-path="url(#p4c384c296b)" style="fill: none; stroke: #b0b0b0; stroke-width: 0.8; stroke-linecap: square"/>
     </g>
     <g id="line2d_30">
      <g>
       <use xlink:href="#m769c1171f4" x="39.58149" y="84.237965" style="stroke: #000000; stroke-width: 0.8"/>
      </g>
     </g>
     <g id="text_16">
      <!-- 3.5 -->
      <g transform="translate(16.678365 88.037184) scale(0.1 -0.1)">
       <use xlink:href="#DejaVuSans-33"/>
       <use xlink:href="#DejaVuSans-2e" x="63.623047"/>
       <use xlink:href="#DejaVuSans-35" x="95.410156"/>
      </g>
     </g>
    </g>
    <g id="text_17">
     <!-- Time (ns) -->
     <g transform="translate(10.598678 267.878594) rotate(-90) scale(0.1 -0.1)">
      <defs>
       <path id="DejaVuSans-28" d="M 1984 4856 
Q 1566 4138 1362 3434 
Q 1159 2731 1159 2009 
Q 1159 1288 1364 580 
Q 1569 -128 1984 -844 
L 1484 -844 
Q 1016 -109 783 600 
Q 550 1309 550 2009 
Q 550 2706 781 3412 
Q 1013 4119 1484 4856 
L 1984 4856 
z
" transform="scale(0.015625)"/>
       <path id="DejaVuSans-73" d="M 2834 3397 
L 2834 2853 
Q 2591 2978 2328 3040 
Q 2066 3103 1784 3103 
Q 1356 3103 1142 2972 
Q 928 2841 928 2578 
Q 928 2378 1081 2264 
Q 1234 2150 1697 2047 
L 1894 2003 
Q 2506 1872 2764 1633 
Q 3022 1394 3022 966 
Q 3022 478 2636 193 
Q 2250 -91 1575 -91 
Q 1294 -91 989 -36 
Q 684 19 347 128 
L 347 722 
Q 666 556 975 473 
Q 1284 391 1588 391 
Q 1994 391 2212 530 
Q 2431 669 2431 922 
Q 2431 1156 2273 1281 
Q 2116 1406 1581 1522 
L 1381 1569 
Q 847 1681 609 1914 
Q 372 2147 372 2553 
Q 372 3047 722 3315 
Q 1072 3584 1716 3584 
Q 2034 3584 2315 3537 
Q 2597 3491 2834 3397 
z
" transform="scale(0.015625)"/>
       <path id="DejaVuSans-29" d="M 513 4856 
L 1013 4856 
Q 1481 4119 1714 3412 
Q 1947 2706 1947 2009 
Q 1947 1309 1714 600 
Q 1481 -109 1013 -844 
L 513 -844 
Q 928 -128 1133 580 
Q 1338 1288 1338 2009 
Q 1338 2731 1133 3434 
Q 928 4138 513 4856 
z
" transform="scale(0.015625)"/>
      </defs>
      <use xlink:href="#DejaVuSans-54"/>
      <use xlink:href="#DejaVuSans-69" x="57.958984"/>
      <use xlink:href="#DejaVuSans-6d" x="85.742188"/>
      <use xlink:href="#DejaVuSans-65" x="183.154297"/>
      <use xlink:href="#DejaVuSans-20" x="244.677734"/>
      <use xlink:href="#DejaVuSans-28" x="276.464844"/>
      <use xlink:href="#DejaVuSans-6e" x="315.478516"/>
      <use xlink:href="#DejaVuSans-73" x="378.857422"/>
      <use xlink:href="#DejaVuSans-29" x="430.957031"/>
     </g>
    </g>
    <g id="text_18">
     <!-- 1e8 -->
     <g transform="translate(39.58149 15.118365) scale(0.1 -0.1)">
      <defs>
       <path id="DejaVuSans-38" d="M 2034 2216 
Q 1584 2216 1326 1975 
Q 1069 1734 1069 1313 
Q 1069 891 1326 650 
Q 1584 409 2034 409 
Q 2484 409 2743 651 
Q 3003 894 3003 1313 
Q 3003 1734 2745 1975 
Q 2488 2216 2034 2216 
z
M 1403 2484 
Q 997 2584 770 2862 
Q 544 3141 544 3541 
Q 544 4100 942 4425 
Q 1341 4750 2034 4750 
Q 2731 4750 3128 4425 
Q 3525 4100 3525 3541 
Q 3525 3141 3298 2862 
Q 3072 2584 2669 2484 
Q 3125 2378 3379 2068 
Q 3634 1759 3634 1313 
Q 3634 634 3220 271 
Q 2806 -91 2034 -91 
Q 1263 -91 848 271 
Q 434 634 434 1313 
Q 434 1759 690 2068 
Q 947 2378 1403 2484 
z
M 1172 3481 
Q 1172 3119 1398 2916 
Q 1625 2713 2034 2713 
Q 2441 2713 2670 2916 
Q 2900 3119 2900 3481 
Q 2900 3844 2670 4047 
Q 2441 4250 2034 4250 
Q 1625 4250 1398 4047 
Q 1172 3844 1172 3481 
z
" transform="scale(0.015625)"/>
      </defs>
      <use xlink:href="#DejaVuSans-31"/>
      <use xlink:href="#DejaVuSans-65" x="63.623047"/>
      <use xlink:href="#DejaVuSans-38" x="125.146484"/>
     </g>
    </g>
   </g>
   <g id="line2d_31">
    <path d="M 86.736866 446.226792 
L 91.4761 446.433012 
L 96.215333 446.011131 
L 100.954567 447.107657 
L 105.693801 447.459936 
L 110.433035 447.219151 
L 115.172268 446.570218 
L 119.911502 446.681819 
L 124.650736 445.258107 
L 129.38997 446.62162 
L 134.129204 447.050357 
L 138.868437 446.805535 
L 148.346905 447.619052 
L 153.086139 446.511722 
L 162.564606 447.542151 
L 167.30384 447.284309 
L 172.043074 447.710785 
L 176.782307 447.425588 
L 181.521541 447.343446 
L 186.260775 446.217931 
L 191.000009 447.156801 
L 205.21771 446.997596 
L 214.696177 447.029551 
L 219.435411 445.614228 
L 224.174645 446.786465 
L 228.913879 446.86174 
L 243.13158 446.414173 
L 247.870814 445.286895 
L 252.610047 447.162132 
L 257.349281 447.012741 
L 262.088515 447.037322 
L 266.827749 447.385679 
L 271.566983 447.050796 
L 276.306216 447.217011 
L 281.04545 445.662353 
L 285.784684 446.854213 
L 290.523918 447.106375 
L 295.263151 446.693828 
L 300.002385 446.16724 
L 304.741619 446.503803 
L 309.480853 445.157311 
L 314.220086 446.742306 
L 323.698554 447.226869 
L 333.177021 446.383861 
L 337.916255 446.683873 
L 342.655489 444.903795 
L 347.394723 446.684864 
L 352.133956 446.190645 
L 356.87319 446.647886 
L 361.612424 446.706938 
L 366.351658 447.114029 
L 371.090891 445.91676 
L 375.830125 446.940584 
L 380.569359 447.039498 
L 385.308593 446.9287 
L 390.047827 446.515085 
L 394.78706 446.343974 
L 399.526294 446.565673 
L 404.265528 445.520491 
L 409.004762 446.765634 
L 413.743995 447.085065 
L 418.483229 447.274508 
L 423.222463 447.165951 
L 427.961697 447.216922 
L 432.70093 445.935698 
L 437.440164 446.311873 
L 442.179398 447.183502 
L 446.918632 447.269965 
L 451.657865 447.09795 
L 456.397099 447.530607 
L 461.136333 447.830486 
L 465.875567 446.503479 
L 475.354034 448.177143 
L 480.093268 447.989331 
L 484.832502 448.342408 
L 489.571735 448.229186 
L 494.310969 446.515435 
L 499.050203 447.229558 
L 503.789437 448.094119 
L 508.528671 445.432596 
L 513.267904 447.832781 
L 518.007138 447.810705 
L 522.746372 448.197813 
L 527.485606 446.670778 
L 532.224839 448.095742 
L 536.964073 448.224009 
L 541.703307 448.236583 
L 546.442541 448.087395 
L 551.181774 447.763262 
L 555.921008 446.443513 
L 560.660242 447.734621 
L 565.399476 446.664619 
L 570.138709 447.677293 
L 574.877943 447.871702 
L 579.617177 447.466403 
L 584.356411 447.697432 
L 589.095644 446.857119 
L 593.834878 447.679685 
L 598.574112 447.497108 
L 603.313346 449.996162 
L 608.052579 450.074185 
L 612.791813 449.163657 
L 617.531047 445.411275 
L 622.270281 446.293321 
L 627.009515 446.813498 
L 631.748748 447.160138 
L 641.227216 446.97574 
L 645.96645 446.853397 
L 650.705683 445.82718 
L 655.444917 446.436479 
L 660.184151 446.786422 
L 664.923385 446.798443 
L 669.662618 446.282654 
L 674.401852 446.939041 
L 679.141086 445.627183 
L 683.88032 446.469743 
L 688.619553 446.688801 
L 693.358787 446.35375 
L 698.098021 446.41235 
L 702.837255 446.008342 
L 707.576488 446.552499 
L 712.315722 444.956265 
L 717.054956 446.375263 
L 721.79419 444.495241 
L 726.533423 444.469511 
L 731.272657 444.880181 
L 736.011891 446.195106 
L 740.751125 445.069391 
L 745.490359 446.091732 
L 750.229592 446.037997 
L 759.70806 446.266396 
L 764.447294 446.443813 
L 769.186527 445.796272 
L 773.925761 444.64869 
L 778.664995 446.168557 
L 783.404229 446.523645 
L 792.882696 446.532088 
L 797.62193 446.778004 
L 802.361164 446.171141 
L 811.839631 447.04757 
L 816.578865 447.287781 
L 821.318099 446.935842 
L 826.057332 446.891275 
L 830.796566 445.93501 
L 835.5358 445.241466 
L 840.275034 447.100093 
L 849.753501 446.83311 
L 854.492735 446.797599 
L 859.231969 446.05635 
L 863.971203 445.520563 
L 868.710436 446.639508 
L 873.44967 446.166468 
L 878.188904 446.13491 
L 892.406605 447.03392 
L 897.145839 445.797161 
L 901.885073 447.044314 
L 906.624306 447.238527 
L 916.102774 447.123766 
L 920.842008 447.321695 
L 925.581241 445.667707 
L 930.320475 446.855747 
L 935.059709 446.724016 
L 939.798943 447.363673 
L 944.538176 447.291935 
L 954.016644 447.524063 
L 958.755878 446.181098 
L 963.495111 447.450366 
L 972.973579 446.90002 
L 977.712813 447.182109 
L 982.452046 447.179846 
L 987.19128 446.271287 
L 991.930514 447.450377 
L 996.669748 446.992178 
L 1001.408982 447.072225 
L 1010.887449 447.426451 
L 1015.626683 447.41524 
L 1020.365917 444.781632 
L 1025.10515 447.167363 
L 1029.844384 447.057023 
L 1029.844384 447.057023 
" clip-path="url(#p4c384c296b)" style="fill: none; stroke: #1f77b4; stroke-width: 1.5; stroke-linecap: square"/>
   </g>
   <g id="line2d_32">
    <path d="M 86.736866 352.047258 
L 91.4761 359.676918 
L 96.215333 357.720063 
L 100.954567 358.840429 
L 105.693801 358.386264 
L 110.433035 360.513 
L 115.172268 358.977888 
L 119.911502 359.04037 
L 124.650736 358.907493 
L 129.38997 359.124391 
L 134.129204 358.056509 
L 138.868437 359.761651 
L 143.607671 360.046242 
L 148.346905 359.814118 
L 153.086139 358.546691 
L 157.825372 356.736177 
L 162.564606 359.602972 
L 167.30384 360.573744 
L 172.043074 357.476487 
L 176.782307 359.356241 
L 181.521541 359.865299 
L 186.260775 359.15336 
L 191.000009 358.65381 
L 195.739242 360.412534 
L 200.478476 359.691142 
L 205.21771 359.843103 
L 209.956944 357.470603 
L 214.696177 360.029292 
L 219.435411 360.116847 
L 224.174645 359.936841 
L 228.913879 357.985748 
L 233.653112 359.800631 
L 238.392346 359.478702 
L 243.13158 359.546604 
L 247.870814 358.100781 
L 252.610047 359.956614 
L 257.349281 359.464308 
L 262.088515 359.282962 
L 266.827749 359.329151 
L 271.566983 360.412669 
L 276.306216 360.381486 
L 281.04545 357.176176 
L 285.784684 360.205425 
L 290.523918 360.383326 
L 295.263151 359.798718 
L 300.002385 359.849542 
L 304.741619 359.66262 
L 309.480853 360.200019 
L 314.220086 359.100009 
L 318.95932 358.555175 
L 323.698554 359.226988 
L 328.437788 360.079724 
L 333.177021 358.649146 
L 337.916255 358.500637 
L 342.655489 359.064286 
L 347.394723 359.804662 
L 352.133956 359.553594 
L 356.87319 359.022472 
L 361.612424 359.290607 
L 366.351658 359.916806 
L 371.090891 360.096853 
L 375.830125 359.131367 
L 380.569359 360.727783 
L 390.047827 359.260914 
L 394.78706 358.227063 
L 399.526294 359.397303 
L 409.004762 360.343742 
L 413.743995 357.648613 
L 418.483229 360.287434 
L 423.222463 359.706682 
L 427.961697 360.010432 
L 432.70093 358.696799 
L 437.440164 358.239407 
L 442.179398 359.938229 
L 446.918632 358.890389 
L 451.657865 358.556681 
L 456.397099 364.171651 
L 461.136333 360.41545 
L 465.875567 357.298836 
L 470.6148 359.780257 
L 475.354034 359.452772 
L 480.093268 359.281044 
L 484.832502 358.081491 
L 489.571735 360.219809 
L 494.310969 358.549701 
L 499.050203 359.082093 
L 503.789437 359.064589 
L 508.528671 359.826348 
L 513.267904 360.304784 
L 518.007138 359.486119 
L 522.746372 357.724186 
L 527.485606 358.100784 
L 532.224839 359.220264 
L 536.964073 359.580818 
L 541.703307 358.074871 
L 546.442541 359.419697 
L 551.181774 358.828472 
L 555.921008 359.956962 
L 560.660242 357.920771 
L 565.399476 360.334514 
L 570.138709 360.217758 
L 574.877943 359.929698 
L 579.617177 358.333129 
L 584.356411 359.622118 
L 589.095644 359.235586 
L 593.834878 359.468362 
L 603.313346 358.655816 
L 608.052579 359.983573 
L 612.791813 360.006285 
L 617.531047 358.371572 
L 622.270281 359.715063 
L 627.009515 360.038038 
L 631.748748 358.553162 
L 636.487982 360.094387 
L 641.227216 360.155933 
L 645.96645 359.607905 
L 650.705683 358.551859 
L 655.444917 359.082361 
L 660.184151 359.899155 
L 664.923385 359.546495 
L 669.662618 357.429587 
L 674.401852 360.459959 
L 683.88032 359.622759 
L 688.619553 358.0246 
L 693.358787 359.122544 
L 698.098021 358.004189 
L 702.837255 359.504231 
L 707.576488 358.478338 
L 712.315722 360.762014 
L 717.054956 360.667095 
L 721.79419 360.820593 
L 726.533423 357.750361 
L 731.272657 358.611261 
L 736.011891 359.680419 
L 740.751125 360.106658 
L 745.490359 358.92912 
L 750.229592 359.058253 
L 754.968826 359.394153 
L 759.70806 359.324411 
L 764.447294 358.308088 
L 769.186527 359.086572 
L 773.925761 359.490175 
L 778.664995 360.090658 
L 783.404229 358.97493 
L 788.143462 360.562157 
L 792.882696 360.411701 
L 797.62193 360.499871 
L 802.361164 359.19972 
L 807.100397 359.671133 
L 811.839631 358.594632 
L 816.578865 359.407744 
L 821.318099 359.087181 
L 826.057332 359.429794 
L 830.796566 359.590949 
L 835.5358 358.47381 
L 840.275034 359.752344 
L 845.014267 360.138869 
L 849.753501 360.866262 
L 854.492735 358.810707 
L 859.231969 359.752509 
L 868.710436 359.600598 
L 878.188904 358.893288 
L 882.928138 359.507928 
L 887.667371 359.981643 
L 892.406605 358.512873 
L 897.145839 359.715403 
L 901.885073 359.541172 
L 906.624306 359.978015 
L 911.36354 358.780179 
L 916.102774 359.058057 
L 925.581241 360.346528 
L 930.320475 358.463751 
L 935.059709 360.355147 
L 939.798943 359.516615 
L 944.538176 359.68174 
L 949.27741 358.363172 
L 954.016644 359.865667 
L 958.755878 360.161526 
L 963.495111 359.603975 
L 968.234345 358.739402 
L 972.973579 359.908192 
L 982.452046 359.035082 
L 987.19128 358.420647 
L 991.930514 359.904803 
L 996.669748 360.496162 
L 1001.408982 358.701171 
L 1006.148215 359.610264 
L 1010.887449 359.839787 
L 1015.626683 358.425348 
L 1020.365917 358.727616 
L 1025.10515 360.337312 
L 1029.844384 360.500535 
L 1029.844384 360.500535 
" clip-path="url(#p4c384c296b)" style="fill: none; stroke: #ff7f0e; stroke-width: 1.5; stroke-linecap: square"/>
   </g>
   <g id="line2d_33">
    <path d="M 86.736866 256.177942 
L 91.4761 255.141655 
L 96.215333 262.197234 
L 100.954567 263.046567 
L 105.693801 255.819995 
L 110.433035 263.328006 
L 115.172268 256.542356 
L 119.911502 255.782285 
L 124.650736 257.089849 
L 129.38997 254.750646 
L 134.129204 256.140753 
L 138.868437 255.291783 
L 143.607671 255.319668 
L 148.346905 257.211322 
L 153.086139 255.07646 
L 157.825372 255.579976 
L 162.564606 256.588942 
L 167.30384 255.241101 
L 172.043074 261.352913 
L 176.782307 264.057062 
L 181.521541 255.550506 
L 186.260775 256.465747 
L 191.000009 254.818948 
L 195.739242 256.748993 
L 200.478476 256.335652 
L 205.21771 255.394485 
L 209.956944 256.291956 
L 214.696177 256.54237 
L 219.435411 256.362179 
L 224.174645 256.912298 
L 228.913879 260.874693 
L 233.653112 263.622261 
L 238.392346 256.044073 
L 243.13158 255.723959 
L 247.870814 256.509439 
L 252.610047 256.718806 
L 257.349281 254.968197 
L 262.088515 256.759647 
L 266.827749 255.180874 
L 271.566983 256.958173 
L 276.306216 256.336058 
L 281.04545 255.147327 
L 285.784684 260.299925 
L 290.523918 262.794169 
L 295.263151 253.375546 
L 300.002385 257.036965 
L 304.741619 255.934676 
L 309.480853 255.03041 
L 314.220086 256.54844 
L 318.95932 255.458453 
L 323.698554 257.142806 
L 328.437788 256.995974 
L 333.177021 258.253068 
L 337.916255 263.00852 
L 342.655489 260.543972 
L 347.394723 253.142868 
L 352.133956 256.198714 
L 356.87319 255.319295 
L 361.612424 256.873135 
L 366.351658 257.554191 
L 371.090891 256.102087 
L 375.830125 256.87776 
L 380.569359 255.307771 
L 385.308593 257.195499 
L 390.047827 256.557542 
L 394.78706 256.290991 
L 399.526294 263.501803 
L 404.265528 263.634345 
L 409.004762 253.708832 
L 413.743995 257.359404 
L 418.483229 255.629025 
L 423.222463 256.339437 
L 427.961697 257.726763 
L 432.70093 255.09019 
L 437.440164 256.695246 
L 442.179398 254.918012 
L 446.918632 256.910659 
L 451.657865 256.773853 
L 456.397099 252.977657 
L 461.136333 256.532606 
L 465.875567 260.388957 
L 470.6148 255.614382 
L 475.354034 255.973452 
L 480.093268 255.209167 
L 484.832502 261.01316 
L 489.571735 263.778497 
L 494.310969 257.715289 
L 499.050203 256.104473 
L 503.789437 258.933906 
L 508.528671 254.646192 
L 513.267904 256.741288 
L 518.007138 254.131414 
L 522.746372 258.419056 
L 527.485606 263.16529 
L 532.224839 257.260107 
L 536.964073 257.081404 
L 541.703307 256.564996 
L 546.442541 255.673615 
L 551.181774 257.25475 
L 555.921008 255.677905 
L 560.660242 256.294449 
L 565.399476 257.134082 
L 570.138709 255.380517 
L 574.877943 257.21032 
L 579.617177 257.382927 
L 584.356411 256.172515 
L 589.095644 257.142982 
L 593.834878 255.396042 
L 598.574112 256.377336 
L 603.313346 256.210342 
L 608.052579 253.78583 
L 612.791813 256.717855 
L 617.531047 256.976101 
L 622.270281 255.581475 
L 627.009515 257.190602 
L 631.748748 254.977453 
L 636.487982 256.328957 
L 641.227216 257.333781 
L 645.96645 255.739666 
L 650.705683 256.649562 
L 655.444917 256.890217 
L 660.184151 255.606197 
L 664.923385 256.80742 
L 669.662618 256.125441 
L 674.401852 257.044824 
L 679.141086 256.298745 
L 683.88032 255.749004 
L 688.619553 254.466316 
L 693.358787 255.037682 
L 698.098021 256.345033 
L 702.837255 256.865841 
L 707.576488 255.957241 
L 712.315722 256.98653 
L 717.054956 257.062927 
L 721.79419 256.057862 
L 726.533423 257.20392 
L 731.272657 256.158827 
L 736.011891 255.952988 
L 740.751125 256.519287 
L 745.490359 255.765984 
L 750.229592 256.67959 
L 754.968826 256.902265 
L 759.70806 255.727331 
L 769.186527 257.531637 
L 773.925761 255.654417 
L 778.664995 256.393438 
L 783.404229 255.753398 
L 788.143462 257.179068 
L 792.882696 256.826322 
L 797.62193 255.533569 
L 802.361164 256.860482 
L 807.100397 255.065226 
L 811.839631 256.325746 
L 816.578865 256.944596 
L 821.318099 256.181032 
L 826.057332 263.792728 
L 830.796566 264.21119 
L 835.5358 254.18489 
L 840.275034 256.043522 
L 845.014267 255.600171 
L 849.753501 255.607504 
L 854.492735 260.133527 
L 859.231969 255.803633 
L 868.710436 256.747926 
L 873.44967 255.515085 
L 878.188904 257.144666 
L 882.928138 256.064427 
L 887.667371 256.62292 
L 892.406605 255.98869 
L 897.145839 255.590076 
L 901.885073 255.423069 
L 906.624306 256.301548 
L 911.36354 254.689932 
L 916.102774 257.063723 
L 920.842008 255.830578 
L 930.320475 258.427683 
L 935.059709 254.849022 
L 939.798943 256.704123 
L 944.538176 255.588185 
L 949.27741 256.728499 
L 954.016644 256.291026 
L 958.755878 255.7232 
L 963.495111 257.515297 
L 968.234345 256.895421 
L 972.973579 255.710973 
L 977.712813 256.371284 
L 982.452046 255.257374 
L 987.19128 256.171257 
L 991.930514 256.667416 
L 996.669748 255.320318 
L 1001.408982 256.441818 
L 1006.148215 256.869191 
L 1010.887449 255.879881 
L 1015.626683 256.378682 
L 1020.365917 255.777389 
L 1025.10515 255.861104 
L 1029.844384 257.09267 
L 1029.844384 257.09267 
" clip-path="url(#p4c384c296b)" style="fill: none; stroke: #2ca02c; stroke-width: 1.5; stroke-linecap: square"/>
   </g>
   <g id="line2d_34">
    <path d="M 86.736866 194.122312 
L 91.4761 195.40601 
L 96.215333 193.652725 
L 100.954567 195.895946 
L 105.693801 193.614217 
L 110.433035 195.653556 
L 115.172268 195.497768 
L 119.911502 197.321416 
L 124.650736 195.862898 
L 129.38997 201.878018 
L 134.129204 207.01297 
L 138.868437 205.720913 
L 143.607671 213.435393 
L 148.346905 211.284535 
L 153.086139 204.677084 
L 157.825372 207.396765 
L 162.564606 205.420675 
L 167.30384 205.22954 
L 172.043074 207.287751 
L 181.521541 207.032458 
L 186.260775 206.806742 
L 195.739242 206.713322 
L 200.478476 207.022818 
L 205.21771 206.479268 
L 209.956944 206.408416 
L 214.696177 207.790597 
L 219.435411 206.4916 
L 224.174645 207.112608 
L 233.653112 207.027847 
L 238.392346 206.973916 
L 243.13158 204.802944 
L 247.870814 207.482725 
L 252.610047 207.245409 
L 257.349281 206.730155 
L 262.088515 205.981792 
L 266.827749 206.802173 
L 271.566983 207.457271 
L 276.306216 207.586127 
L 281.04545 206.082237 
L 285.784684 207.11302 
L 290.523918 207.448301 
L 295.263151 207.2841 
L 300.002385 205.23544 
L 304.741619 207.136696 
L 309.480853 207.380933 
L 314.220086 206.613062 
L 318.95932 205.133345 
L 323.698554 207.158565 
L 328.437788 207.100218 
L 333.177021 207.330507 
L 342.655489 206.560646 
L 347.394723 207.103195 
L 352.133956 207.132224 
L 356.87319 206.735342 
L 361.612424 207.379413 
L 366.351658 207.199449 
L 371.090891 207.399876 
L 375.830125 206.937551 
L 380.569359 207.002918 
L 385.308593 206.896123 
L 390.047827 207.487347 
L 394.78706 206.162815 
L 399.526294 207.131284 
L 404.265528 207.29639 
L 409.004762 206.984962 
L 413.743995 207.3642 
L 418.483229 207.010861 
L 423.222463 207.552283 
L 427.961697 206.959692 
L 432.70093 206.893573 
L 437.440164 207.114022 
L 442.179398 206.920121 
L 446.918632 207.294372 
L 456.397099 206.458487 
L 461.136333 207.33497 
L 465.875567 206.26344 
L 470.6148 207.755108 
L 475.354034 207.600693 
L 480.093268 206.680749 
L 484.832502 206.638683 
L 489.571735 213.000694 
L 494.310969 204.543159 
L 499.050203 207.174834 
L 503.789437 207.123573 
L 508.528671 207.610908 
L 513.267904 207.065871 
L 518.007138 207.454173 
L 527.485606 206.403461 
L 532.224839 207.457967 
L 536.964073 207.666978 
L 541.703307 206.348205 
L 546.442541 207.067686 
L 551.181774 206.314439 
L 555.921008 207.322402 
L 560.660242 206.585629 
L 565.399476 207.26755 
L 570.138709 206.783293 
L 574.877943 207.108501 
L 584.356411 207.514711 
L 589.095644 206.962432 
L 593.834878 206.758024 
L 598.574112 214.440313 
L 603.313346 205.644229 
L 608.052579 207.815899 
L 612.791813 206.74231 
L 617.531047 207.12006 
L 622.270281 209.519966 
L 627.009515 214.491215 
L 631.748748 213.819736 
L 636.487982 209.140141 
L 641.227216 206.252178 
L 645.96645 206.823091 
L 650.705683 206.658129 
L 660.184151 207.858537 
L 664.923385 207.08228 
L 674.401852 206.683088 
L 679.141086 207.399671 
L 683.88032 207.450837 
L 688.619553 207.235724 
L 693.358787 207.679893 
L 698.098021 207.582141 
L 702.837255 206.91369 
L 707.576488 213.79297 
L 712.315722 207.571151 
L 717.054956 207.511255 
L 721.79419 207.297826 
L 726.533423 207.224168 
L 731.272657 201.857718 
L 736.011891 207.028074 
L 740.751125 206.699143 
L 745.490359 205.985651 
L 750.229592 207.331831 
L 754.968826 207.477782 
L 759.70806 207.109559 
L 764.447294 207.197302 
L 769.186527 205.696268 
L 773.925761 207.073656 
L 778.664995 207.428093 
L 783.404229 213.943966 
L 788.143462 206.974946 
L 792.882696 207.448775 
L 797.62193 207.237493 
L 802.361164 207.855207 
L 807.100397 207.823513 
L 811.839631 207.236968 
L 816.578865 206.139712 
L 821.318099 207.588805 
L 826.057332 206.745213 
L 830.796566 207.10644 
L 835.5358 207.082981 
L 840.275034 207.567674 
L 845.014267 207.376441 
L 849.753501 206.262857 
L 854.492735 206.651147 
L 859.231969 206.889172 
L 863.971203 207.778705 
L 868.710436 207.111147 
L 873.44967 207.143071 
L 878.188904 207.521274 
L 882.928138 206.889527 
L 887.667371 205.362452 
L 892.406605 205.50809 
L 897.145839 215.043538 
L 901.885073 214.192797 
L 906.624306 214.844026 
L 911.36354 213.637209 
L 916.102774 214.62034 
L 920.842008 213.132144 
L 925.581241 214.542288 
L 930.320475 214.696997 
L 939.798943 214.783634 
L 944.538176 215.048145 
L 949.27741 214.305289 
L 954.016644 209.173667 
L 958.755878 206.15611 
L 963.495111 206.855349 
L 968.234345 206.822136 
L 972.973579 207.224732 
L 977.712813 207.304621 
L 982.452046 207.208925 
L 987.19128 206.976935 
L 991.930514 207.492229 
L 996.669748 206.775254 
L 1001.408982 207.375875 
L 1006.148215 207.130266 
L 1010.887449 207.006589 
L 1015.626683 213.088844 
L 1020.365917 214.698575 
L 1025.10515 215.090034 
L 1029.844384 214.210939 
L 1029.844384 214.210939 
" clip-path="url(#p4c384c296b)" style="fill: none; stroke: #d62728; stroke-width: 1.5; stroke-linecap: square"/>
   </g>
   <g id="line2d_35">
    <path d="M 86.736866 151.044071 
L 91.4761 150.504149 
L 96.215333 151.577798 
L 100.954567 150.883248 
L 105.693801 151.324488 
L 110.433035 147.56095 
L 115.172268 151.222322 
L 119.911502 150.256694 
L 124.650736 151.146213 
L 129.38997 149.731967 
L 134.129204 152.195399 
L 138.868437 149.763033 
L 143.607671 151.931228 
L 148.346905 150.018576 
L 153.086139 152.034579 
L 157.825372 150.687292 
L 162.564606 151.923786 
L 167.30384 150.050464 
L 172.043074 151.821729 
L 176.782307 151.741657 
L 181.521541 160.84495 
L 186.260775 158.645462 
L 191.000009 160.814105 
L 195.739242 152.98459 
L 200.478476 151.740788 
L 205.21771 149.469694 
L 209.956944 152.20043 
L 214.696177 150.818951 
L 219.435411 152.258034 
L 224.174645 151.376559 
L 228.913879 152.226519 
L 233.653112 149.776975 
L 238.392346 156.976588 
L 243.13158 158.091073 
L 247.870814 151.303832 
L 252.610047 151.124772 
L 257.349281 151.870169 
L 262.088515 149.97609 
L 266.827749 149.926654 
L 271.566983 150.296545 
L 276.306216 151.991253 
L 281.04545 150.68394 
L 285.784684 152.126425 
L 290.523918 151.179196 
L 295.263151 154.421449 
L 300.002385 157.0289 
L 304.741619 148.978377 
L 309.480853 148.891802 
L 314.220086 152.00994 
L 318.95932 148.621748 
L 323.698554 151.582812 
L 328.437788 149.385683 
L 333.177021 154.71004 
L 337.916255 157.550496 
L 342.655489 150.406314 
L 347.394723 149.968895 
L 352.133956 152.194423 
L 356.87319 150.392789 
L 361.612424 152.176603 
L 366.351658 150.581899 
L 371.090891 151.645132 
L 375.830125 150.944756 
L 380.569359 152.18845 
L 385.308593 150.727974 
L 394.78706 150.764184 
L 399.526294 151.975542 
L 404.265528 149.895419 
L 409.004762 152.05813 
L 413.743995 151.181894 
L 418.483229 151.739722 
L 423.222463 150.942423 
L 427.961697 152.217235 
L 432.70093 151.056104 
L 437.440164 151.470548 
L 442.179398 151.206918 
L 446.918632 152.301639 
L 451.657865 150.306217 
L 456.397099 151.451641 
L 461.136333 150.462463 
L 465.875567 151.602236 
L 470.6148 150.186137 
L 475.354034 152.378464 
L 480.093268 151.111095 
L 484.832502 151.472405 
L 489.571735 151.057217 
L 494.310969 152.046243 
L 499.050203 150.747594 
L 503.789437 151.832077 
L 508.528671 151.225287 
L 513.267904 152.006669 
L 518.007138 149.82697 
L 522.746372 151.079751 
L 527.485606 150.246949 
L 532.224839 151.467838 
L 536.964073 151.09485 
L 541.703307 152.178801 
L 546.442541 150.433782 
L 551.181774 152.291173 
L 555.921008 151.205472 
L 560.660242 151.750841 
L 565.399476 150.607137 
L 570.138709 152.300074 
L 574.877943 151.062034 
L 579.617177 150.636497 
L 584.356411 151.060047 
L 589.095644 159.103211 
L 593.834878 159.268266 
L 598.574112 160.779321 
L 603.313346 158.685057 
L 608.052579 156.770216 
L 612.791813 149.212989 
L 617.531047 152.426734 
L 622.270281 150.320397 
L 627.009515 151.790406 
L 631.748748 151.101175 
L 636.487982 152.571567 
L 641.227216 150.233054 
L 645.96645 152.087967 
L 650.705683 151.108365 
L 655.444917 151.931247 
L 660.184151 150.188207 
L 664.923385 152.04076 
L 669.662618 150.211916 
L 674.401852 149.959237 
L 679.141086 151.699145 
L 683.88032 159.975284 
L 688.619553 155.667115 
L 693.358787 150.979312 
L 698.098021 151.19312 
L 702.837255 151.884912 
L 707.576488 149.858296 
L 712.315722 152.25257 
L 717.054956 150.691941 
L 721.79419 151.476983 
L 726.533423 149.837381 
L 731.272657 151.90233 
L 736.011891 150.53198 
L 740.751125 152.123949 
L 745.490359 151.378114 
L 750.229592 151.467987 
L 754.968826 150.659827 
L 759.70806 152.057178 
L 764.447294 151.331414 
L 769.186527 150.830248 
L 773.925761 150.822619 
L 778.664995 152.357337 
L 783.404229 149.834205 
L 788.143462 151.992113 
L 792.882696 150.586578 
L 797.62193 151.788498 
L 802.361164 150.967702 
L 807.100397 152.013878 
L 811.839631 152.219795 
L 816.578865 150.442312 
L 821.318099 150.378966 
L 826.057332 152.030236 
L 830.796566 150.026903 
L 835.5358 152.155711 
L 840.275034 150.626469 
L 845.014267 152.202807 
L 849.753501 151.535818 
L 854.492735 160.789855 
L 859.231969 155.192729 
L 863.971203 151.663322 
L 868.710436 150.561619 
L 873.44967 152.110574 
L 878.188904 151.302068 
L 882.928138 152.180311 
L 892.406605 151.440898 
L 897.145839 151.895047 
L 901.885073 152.007566 
L 906.624306 152.699315 
L 911.36354 151.338115 
L 916.102774 151.921532 
L 920.842008 152.061235 
L 925.581241 151.830082 
L 930.320475 152.273261 
L 935.059709 157.057326 
L 939.798943 160.198452 
L 944.538176 160.951599 
L 949.27741 161.031321 
L 954.016644 158.53657 
L 958.755878 150.906218 
L 963.495111 152.502618 
L 968.234345 159.386079 
L 972.973579 160.771579 
L 982.452046 160.887602 
L 987.19128 160.449832 
L 991.930514 160.406803 
L 996.669748 161.282237 
L 1001.408982 160.859993 
L 1006.148215 154.27786 
L 1010.887449 152.204558 
L 1015.626683 152.088819 
L 1020.365917 151.008098 
L 1025.10515 151.145187 
L 1029.844384 151.696737 
L 1029.844384 151.696737 
" clip-path="url(#p4c384c296b)" style="fill: none; stroke: #9467bd; stroke-width: 1.5; stroke-linecap: square"/>
   </g>
   <g id="line2d_36">
    <path d="M 86.736866 107.189633 
L 91.4761 113.24722 
L 96.215333 117.887599 
L 100.954567 115.109487 
L 105.693801 117.273854 
L 110.433035 115.694108 
L 115.172268 117.91679 
L 119.911502 116.022801 
L 124.650736 117.94851 
L 129.38997 116.71699 
L 134.129204 116.440346 
L 138.868437 117.621671 
L 143.607671 116.334607 
L 148.346905 117.618436 
L 153.086139 116.306041 
L 157.825372 118.436984 
L 162.564606 116.668024 
L 167.30384 117.975124 
L 172.043074 116.533131 
L 176.782307 124.023312 
L 181.521541 116.445339 
L 186.260775 116.160655 
L 191.000009 117.860651 
L 195.739242 115.887325 
L 200.478476 118.126484 
L 205.21771 116.048715 
L 209.956944 117.597956 
L 214.696177 115.723741 
L 219.435411 125.147648 
L 224.174645 115.553572 
L 228.913879 118.305154 
L 233.653112 116.53099 
L 238.392346 116.000911 
L 243.13158 116.9694 
L 247.870814 122.9142 
L 252.610047 120.415914 
L 257.349281 116.297109 
L 262.088515 117.210751 
L 266.827749 116.124165 
L 271.566983 118.184463 
L 276.306216 116.58889 
L 281.04545 117.323921 
L 285.784684 116.825973 
L 290.523918 117.793887 
L 295.263151 115.897628 
L 300.002385 117.41991 
L 304.741619 117.500516 
L 309.480853 116.944795 
L 314.220086 117.642559 
L 318.95932 117.753261 
L 328.437788 115.183818 
L 333.177021 118.394378 
L 337.916255 116.55063 
L 342.655489 117.821524 
L 347.394723 116.472518 
L 352.133956 117.583948 
L 356.87319 120.260871 
L 361.612424 125.234852 
L 366.351658 117.329869 
L 371.090891 116.379403 
L 375.830125 118.060824 
L 380.569359 116.437048 
L 385.308593 117.401122 
L 390.047827 116.301757 
L 394.78706 118.283467 
L 399.526294 116.232388 
L 404.265528 117.904955 
L 413.743995 116.398542 
L 418.483229 116.65951 
L 423.222463 117.44083 
L 427.961697 117.886526 
L 432.70093 116.94729 
L 437.440164 117.966189 
L 442.179398 116.143072 
L 446.918632 117.974365 
L 451.657865 116.636135 
L 456.397099 118.30808 
L 461.136333 116.131565 
L 465.875567 118.341112 
L 470.6148 116.180888 
L 475.354034 116.572335 
L 480.093268 118.039214 
L 484.832502 117.502088 
L 489.571735 114.781528 
L 494.310969 116.550358 
L 499.050203 117.89073 
L 503.789437 116.371023 
L 508.528671 117.915019 
L 513.267904 116.483074 
L 518.007138 117.769338 
L 522.746372 116.661233 
L 527.485606 117.81528 
L 532.224839 116.920908 
L 536.964073 117.059842 
L 541.703307 122.994336 
L 546.442541 125.113483 
L 551.181774 123.295569 
L 555.921008 115.214695 
L 560.660242 117.759078 
L 565.399476 116.694052 
L 570.138709 125.439922 
L 574.877943 115.417983 
L 579.617177 118.012671 
L 584.356411 116.323539 
L 589.095644 116.468276 
L 593.834878 117.743992 
L 598.574112 117.450448 
L 603.313346 79.662609 
L 608.052579 79.612407 
L 612.791813 62.121242 
L 617.531047 51.16017 
L 622.270281 45.584987 
L 627.009515 40.679157 
L 631.748748 51.625752 
L 636.487982 53.6566 
L 641.227216 52.452753 
L 645.96645 61.372854 
L 650.705683 64.814946 
L 655.444917 63.956338 
L 660.184151 63.212302 
L 664.923385 62.092616 
L 669.662618 63.670085 
L 674.401852 65.42483 
L 679.141086 57.204585 
L 683.88032 62.516107 
L 688.619553 60.858775 
L 693.358787 64.379326 
L 698.098021 64.675913 
L 702.837255 44.345083 
L 707.576488 64.164204 
L 712.315722 38.68769 
L 717.054956 99.723785 
L 721.79419 66.249755 
L 726.533423 50.914656 
L 731.272657 52.493752 
L 736.011891 73.902268 
L 740.751125 116.736063 
L 745.490359 117.543209 
L 750.229592 115.535534 
L 754.968826 117.996533 
L 759.70806 116.877711 
L 764.447294 116.938672 
L 769.186527 117.365304 
L 773.925761 117.126256 
L 778.664995 117.893573 
L 783.404229 117.594676 
L 788.143462 118.300822 
L 792.882696 116.970992 
L 797.62193 118.255724 
L 802.361164 115.558632 
L 807.100397 118.148803 
L 811.839631 117.835098 
L 816.578865 116.831962 
L 821.318099 117.791656 
L 835.5358 118.260703 
L 840.275034 117.822595 
L 854.492735 118.29152 
L 859.231969 117.104732 
L 863.971203 117.650818 
L 868.710436 117.553078 
L 873.44967 118.076292 
L 878.188904 117.828339 
L 882.928138 118.360172 
L 887.667371 117.893532 
L 892.406605 118.107116 
L 897.145839 118.030097 
L 901.885073 118.172179 
L 906.624306 117.984855 
L 911.36354 118.098709 
L 916.102774 117.527195 
L 920.842008 118.053086 
L 925.581241 116.484707 
L 930.320475 118.050647 
L 935.059709 117.843028 
L 939.798943 118.187403 
L 949.27741 115.974312 
L 954.016644 118.027079 
L 958.755878 117.918523 
L 963.495111 116.772823 
L 968.234345 118.132425 
L 972.973579 118.354641 
L 977.712813 117.025589 
L 982.452046 117.871767 
L 996.669748 118.157082 
L 1001.408982 117.909342 
L 1006.148215 118.353025 
L 1010.887449 117.767305 
L 1015.626683 118.262618 
L 1025.10515 117.886774 
L 1029.844384 118.336935 
L 1029.844384 118.336935 
" clip-path="url(#p4c384c296b)" style="fill: none; stroke: #8c564b; stroke-width: 1.5; stroke-linecap: square"/>
   </g>
   <g id="patch_3">
    <path d="M 39.58149 470.64351 
L 39.58149 18.118365 
" style="fill: none; stroke: #000000; stroke-width: 0.8; stroke-linejoin: miter; stroke-linecap: square"/>
   </g>
   <g id="patch_4">
    <path d="M 1076.99976 470.64351 
L 1076.99976 18.118365 
" style="fill: none; stroke: #000000; stroke-width: 0.8; stroke-linejoin: miter; stroke-linecap: square"/>
   </g>
   <g id="patch_5">
    <path d="M 39.58149 470.64351 
L 1076.99976 470.64351 
" style="fill: none; stroke: #000000; stroke-width: 0.8; stroke-linejoin: miter; stroke-linecap: square"/>
   </g>
   <g id="patch_6">
    <path d="M 39.58149 18.118365 
L 1076.99976 18.118365 
" style="fill: none; stroke: #000000; stroke-width: 0.8; stroke-linejoin: miter; stroke-linecap: square"/>
   </g>
   <g id="text_19">
    <!-- i7-9750h -->
    <g transform="translate(531.569063 12.118365) scale(0.12 -0.12)">
     <defs>
      <path id="DejaVuSans-2d" d="M 313 2009 
L 1997 2009 
L 1997 1497 
L 313 1497 
L 313 2009 
z
" transform="scale(0.015625)"/>
      <path id="DejaVuSans-39" d="M 703 97 
L 703 672 
Q 941 559 1184 500 
Q 1428 441 1663 441 
Q 2288 441 2617 861 
Q 2947 1281 2994 2138 
Q 2813 1869 2534 1725 
Q 2256 1581 1919 1581 
Q 1219 1581 811 2004 
Q 403 2428 403 3163 
Q 403 3881 828 4315 
Q 1253 4750 1959 4750 
Q 2769 4750 3195 4129 
Q 3622 3509 3622 2328 
Q 3622 1225 3098 567 
Q 2575 -91 1691 -91 
Q 1453 -91 1209 -44 
Q 966 3 703 97 
z
M 1959 2075 
Q 2384 2075 2632 2365 
Q 2881 2656 2881 3163 
Q 2881 3666 2632 3958 
Q 2384 4250 1959 4250 
Q 1534 4250 1286 3958 
Q 1038 3666 1038 3163 
Q 1038 2656 1286 2365 
Q 1534 2075 1959 2075 
z
" transform="scale(0.015625)"/>
      <path id="DejaVuSans-68" d="M 3513 2113 
L 3513 0 
L 2938 0 
L 2938 2094 
Q 2938 2591 2744 2837 
Q 2550 3084 2163 3084 
Q 1697 3084 1428 2787 
Q 1159 2491 1159 1978 
L 1159 0 
L 581 0 
L 581 4863 
L 1159 4863 
L 1159 2956 
Q 1366 3272 1645 3428 
Q 1925 3584 2291 3584 
Q 2894 3584 3203 3211 
Q 3513 2838 3513 2113 
z
" transform="scale(0.015625)"/>
     </defs>
     <use xlink:href="#DejaVuSans-69"/>
     <use xlink:href="#DejaVuSans-37" x="27.783203"/>
     <use xlink:href="#DejaVuSans-2d" x="91.40625"/>
     <use xlink:href="#DejaVuSans-39" x="127.490234"/>
     <use xlink:href="#DejaVuSans-37" x="191.113281"/>
     <use xlink:href="#DejaVuSans-35" x="254.736328"/>
     <use xlink:href="#DejaVuSans-30" x="318.359375"/>
     <use xlink:href="#DejaVuSans-68" x="381.982422"/>
    </g>
   </g>
   <g id="legend_1">
    <g id="patch_7">
     <path d="M 46.58149 114.187115 
L 503.91274 114.187115 
Q 505.91274 114.187115 505.91274 112.187115 
L 505.91274 25.118365 
Q 505.91274 23.118365 503.91274 23.118365 
L 46.58149 23.118365 
Q 44.58149 23.118365 44.58149 25.118365 
L 44.58149 112.187115 
Q 44.58149 114.187115 46.58149 114.187115 
z
" style="fill: #ffffff; opacity: 0.8; stroke: #cccccc; stroke-linejoin: miter"/>
    </g>
    <g id="line2d_37">
     <path d="M 48.58149 31.216802 
L 58.58149 31.216802 
L 68.58149 31.216802 
" style="fill: none; stroke: #1f77b4; stroke-width: 1.5; stroke-linecap: square"/>
    </g>
    <g id="text_20">
     <!-- concat(rng(x,20), copy(15000, srand(20k, x)), lit(qwertyuiopasdfghjkl)); 300.000MB -->
     <g transform="translate(76.58149 34.716802) scale(0.1 -0.1)">
      <defs>
       <path id="DejaVuSans-63" d="M 3122 3366 
L 3122 2828 
Q 2878 2963 2633 3030 
Q 2388 3097 2138 3097 
Q 1578 3097 1268 2742 
Q 959 2388 959 1747 
Q 959 1106 1268 751 
Q 1578 397 2138 397 
Q 2388 397 2633 464 
Q 2878 531 3122 666 
L 3122 134 
Q 2881 22 2623 -34 
Q 2366 -91 2075 -91 
Q 1284 -91 818 406 
Q 353 903 353 1747 
Q 353 2603 823 3093 
Q 1294 3584 2113 3584 
Q 2378 3584 2631 3529 
Q 2884 3475 3122 3366 
z
" transform="scale(0.015625)"/>
       <path id="DejaVuSans-6f" d="M 1959 3097 
Q 1497 3097 1228 2736 
Q 959 2375 959 1747 
Q 959 1119 1226 758 
Q 1494 397 1959 397 
Q 2419 397 2687 759 
Q 2956 1122 2956 1747 
Q 2956 2369 2687 2733 
Q 2419 3097 1959 3097 
z
M 1959 3584 
Q 2709 3584 3137 3096 
Q 3566 2609 3566 1747 
Q 3566 888 3137 398 
Q 2709 -91 1959 -91 
Q 1206 -91 779 398 
Q 353 888 353 1747 
Q 353 2609 779 3096 
Q 1206 3584 1959 3584 
z
" transform="scale(0.015625)"/>
       <path id="DejaVuSans-74" d="M 1172 4494 
L 1172 3500 
L 2356 3500 
L 2356 3053 
L 1172 3053 
L 1172 1153 
Q 1172 725 1289 603 
Q 1406 481 1766 481 
L 2356 481 
L 2356 0 
L 1766 0 
Q 1100 0 847 248 
Q 594 497 594 1153 
L 594 3053 
L 172 3053 
L 172 3500 
L 594 3500 
L 594 4494 
L 1172 4494 
z
" transform="scale(0.015625)"/>
       <path id="DejaVuSans-67" d="M 2906 1791 
Q 2906 2416 2648 2759 
Q 2391 3103 1925 3103 
Q 1463 3103 1205 2759 
Q 947 2416 947 1791 
Q 947 1169 1205 825 
Q 1463 481 1925 481 
Q 2391 481 2648 825 
Q 2906 1169 2906 1791 
z
M 3481 434 
Q 3481 -459 3084 -895 
Q 2688 -1331 1869 -1331 
Q 1566 -1331 1297 -1286 
Q 1028 -1241 775 -1147 
L 775 -588 
Q 1028 -725 1275 -790 
Q 1522 -856 1778 -856 
Q 2344 -856 2625 -561 
Q 2906 -266 2906 331 
L 2906 616 
Q 2728 306 2450 153 
Q 2172 0 1784 0 
Q 1141 0 747 490 
Q 353 981 353 1791 
Q 353 2603 747 3093 
Q 1141 3584 1784 3584 
Q 2172 3584 2450 3431 
Q 2728 3278 2906 2969 
L 2906 3500 
L 3481 3500 
L 3481 434 
z
" transform="scale(0.015625)"/>
       <path id="DejaVuSans-78" d="M 3513 3500 
L 2247 1797 
L 3578 0 
L 2900 0 
L 1881 1375 
L 863 0 
L 184 0 
L 1544 1831 
L 300 3500 
L 978 3500 
L 1906 2253 
L 2834 3500 
L 3513 3500 
z
" transform="scale(0.015625)"/>
       <path id="DejaVuSans-2c" d="M 750 794 
L 1409 794 
L 1409 256 
L 897 -744 
L 494 -744 
L 750 256 
L 750 794 
z
" transform="scale(0.015625)"/>
       <path id="DejaVuSans-70" d="M 1159 525 
L 1159 -1331 
L 581 -1331 
L 581 3500 
L 1159 3500 
L 1159 2969 
Q 1341 3281 1617 3432 
Q 1894 3584 2278 3584 
Q 2916 3584 3314 3078 
Q 3713 2572 3713 1747 
Q 3713 922 3314 415 
Q 2916 -91 2278 -91 
Q 1894 -91 1617 61 
Q 1341 213 1159 525 
z
M 3116 1747 
Q 3116 2381 2855 2742 
Q 2594 3103 2138 3103 
Q 1681 3103 1420 2742 
Q 1159 2381 1159 1747 
Q 1159 1113 1420 752 
Q 1681 391 2138 391 
Q 2594 391 2855 752 
Q 3116 1113 3116 1747 
z
" transform="scale(0.015625)"/>
       <path id="DejaVuSans-79" d="M 2059 -325 
Q 1816 -950 1584 -1140 
Q 1353 -1331 966 -1331 
L 506 -1331 
L 506 -850 
L 844 -850 
Q 1081 -850 1212 -737 
Q 1344 -625 1503 -206 
L 1606 56 
L 191 3500 
L 800 3500 
L 1894 763 
L 2988 3500 
L 3597 3500 
L 2059 -325 
z
" transform="scale(0.015625)"/>
       <path id="DejaVuSans-64" d="M 2906 2969 
L 2906 4863 
L 3481 4863 
L 3481 0 
L 2906 0 
L 2906 525 
Q 2725 213 2448 61 
Q 2172 -91 1784 -91 
Q 1150 -91 751 415 
Q 353 922 353 1747 
Q 353 2572 751 3078 
Q 1150 3584 1784 3584 
Q 2172 3584 2448 3432 
Q 2725 3281 2906 2969 
z
M 947 1747 
Q 947 1113 1208 752 
Q 1469 391 1925 391 
Q 2381 391 2643 752 
Q 2906 1113 2906 1747 
Q 2906 2381 2643 2742 
Q 2381 3103 1925 3103 
Q 1469 3103 1208 2742 
Q 947 2381 947 1747 
z
" transform="scale(0.015625)"/>
       <path id="DejaVuSans-6b" d="M 581 4863 
L 1159 4863 
L 1159 1991 
L 2875 3500 
L 3609 3500 
L 1753 1863 
L 3688 0 
L 2938 0 
L 1159 1709 
L 1159 0 
L 581 0 
L 581 4863 
z
" transform="scale(0.015625)"/>
       <path id="DejaVuSans-71" d="M 947 1747 
Q 947 1113 1208 752 
Q 1469 391 1925 391 
Q 2381 391 2643 752 
Q 2906 1113 2906 1747 
Q 2906 2381 2643 2742 
Q 2381 3103 1925 3103 
Q 1469 3103 1208 2742 
Q 947 2381 947 1747 
z
M 2906 525 
Q 2725 213 2448 61 
Q 2172 -91 1784 -91 
Q 1150 -91 751 415 
Q 353 922 353 1747 
Q 353 2572 751 3078 
Q 1150 3584 1784 3584 
Q 2172 3584 2448 3432 
Q 2725 3281 2906 2969 
L 2906 3500 
L 3481 3500 
L 3481 -1331 
L 2906 -1331 
L 2906 525 
z
" transform="scale(0.015625)"/>
       <path id="DejaVuSans-77" d="M 269 3500 
L 844 3500 
L 1563 769 
L 2278 3500 
L 2956 3500 
L 3675 769 
L 4391 3500 
L 4966 3500 
L 4050 0 
L 3372 0 
L 2619 2869 
L 1863 0 
L 1184 0 
L 269 3500 
z
" transform="scale(0.015625)"/>
       <path id="DejaVuSans-66" d="M 2375 4863 
L 2375 4384 
L 1825 4384 
Q 1516 4384 1395 4259 
Q 1275 4134 1275 3809 
L 1275 3500 
L 2222 3500 
L 2222 3053 
L 1275 3053 
L 1275 0 
L 697 0 
L 697 3053 
L 147 3053 
L 147 3500 
L 697 3500 
L 697 3744 
Q 697 4328 969 4595 
Q 1241 4863 1831 4863 
L 2375 4863 
z
" transform="scale(0.015625)"/>
       <path id="DejaVuSans-6a" d="M 603 3500 
L 1178 3500 
L 1178 -63 
Q 1178 -731 923 -1031 
Q 669 -1331 103 -1331 
L -116 -1331 
L -116 -844 
L 38 -844 
Q 366 -844 484 -692 
Q 603 -541 603 -63 
L 603 3500 
z
M 603 4863 
L 1178 4863 
L 1178 4134 
L 603 4134 
L 603 4863 
z
" transform="scale(0.015625)"/>
       <path id="DejaVuSans-3b" d="M 750 3309 
L 1409 3309 
L 1409 2516 
L 750 2516 
L 750 3309 
z
M 750 794 
L 1409 794 
L 1409 256 
L 897 -744 
L 494 -744 
L 750 256 
L 750 794 
z
" transform="scale(0.015625)"/>
       <path id="DejaVuSans-4d" d="M 628 4666 
L 1569 4666 
L 2759 1491 
L 3956 4666 
L 4897 4666 
L 4897 0 
L 4281 0 
L 4281 4097 
L 3078 897 
L 2444 897 
L 1241 4097 
L 1241 0 
L 628 0 
L 628 4666 
z
" transform="scale(0.015625)"/>
       <path id="DejaVuSans-42" d="M 1259 2228 
L 1259 519 
L 2272 519 
Q 2781 519 3026 730 
Q 3272 941 3272 1375 
Q 3272 1813 3026 2020 
Q 2781 2228 2272 2228 
L 1259 2228 
z
M 1259 4147 
L 1259 2741 
L 2194 2741 
Q 2656 2741 2882 2914 
Q 3109 3088 3109 3444 
Q 3109 3797 2882 3972 
Q 2656 4147 2194 4147 
L 1259 4147 
z
M 628 4666 
L 2241 4666 
Q 2963 4666 3353 4366 
Q 3744 4066 3744 3513 
Q 3744 3084 3544 2831 
Q 3344 2578 2956 2516 
Q 3422 2416 3680 2098 
Q 3938 1781 3938 1306 
Q 3938 681 3513 340 
Q 3088 0 2303 0 
L 628 0 
L 628 4666 
z
" transform="scale(0.015625)"/>
      </defs>
      <use xlink:href="#DejaVuSans-63"/>
      <use xlink:href="#DejaVuSans-6f" x="54.980469"/>
      <use xlink:href="#DejaVuSans-6e" x="116.162109"/>
      <use xlink:href="#DejaVuSans-63" x="179.541016"/>
      <use xlink:href="#DejaVuSans-61" x="234.521484"/>
      <use xlink:href="#DejaVuSans-74" x="295.800781"/>
      <use xlink:href="#DejaVuSans-28" x="335.009766"/>
      <use xlink:href="#DejaVuSans-72" x="374.023438"/>
      <use xlink:href="#DejaVuSans-6e" x="413.386719"/>
      <use xlink:href="#DejaVuSans-67" x="476.765625"/>
      <use xlink:href="#DejaVuSans-28" x="540.242188"/>
      <use xlink:href="#DejaVuSans-78" x="579.255859"/>
      <use xlink:href="#DejaVuSans-2c" x="638.435547"/>
      <use xlink:href="#DejaVuSans-32" x="670.222656"/>
      <use xlink:href="#DejaVuSans-30" x="733.845703"/>
      <use xlink:href="#DejaVuSans-29" x="797.46875"/>
      <use xlink:href="#DejaVuSans-2c" x="836.482422"/>
      <use xlink:href="#DejaVuSans-20" x="868.269531"/>
      <use xlink:href="#DejaVuSans-63" x="900.056641"/>
      <use xlink:href="#DejaVuSans-6f" x="955.037109"/>
      <use xlink:href="#DejaVuSans-70" x="1016.21875"/>
      <use xlink:href="#DejaVuSans-79" x="1079.695312"/>
      <use xlink:href="#DejaVuSans-28" x="1138.875"/>
      <use xlink:href="#DejaVuSans-31" x="1177.888672"/>
      <use xlink:href="#DejaVuSans-35" x="1241.511719"/>
      <use xlink:href="#DejaVuSans-30" x="1305.134766"/>
      <use xlink:href="#DejaVuSans-30" x="1368.757812"/>
      <use xlink:href="#DejaVuSans-30" x="1432.380859"/>
      <use xlink:href="#DejaVuSans-2c" x="1496.003906"/>
      <use xlink:href="#DejaVuSans-20" x="1527.791016"/>
      <use xlink:href="#DejaVuSans-73" x="1559.578125"/>
      <use xlink:href="#DejaVuSans-72" x="1611.677734"/>
      <use xlink:href="#DejaVuSans-61" x="1652.791016"/>
      <use xlink:href="#DejaVuSans-6e" x="1714.070312"/>
      <use xlink:href="#DejaVuSans-64" x="1777.449219"/>
      <use xlink:href="#DejaVuSans-28" x="1840.925781"/>
      <use xlink:href="#DejaVuSans-32" x="1879.939453"/>
      <use xlink:href="#DejaVuSans-30" x="1943.5625"/>
      <use xlink:href="#DejaVuSans-6b" x="2007.185547"/>
      <use xlink:href="#DejaVuSans-2c" x="2065.095703"/>
      <use xlink:href="#DejaVuSans-20" x="2096.882812"/>
      <use xlink:href="#DejaVuSans-78" x="2128.669922"/>
      <use xlink:href="#DejaVuSans-29" x="2187.849609"/>
      <use xlink:href="#DejaVuSans-29" x="2226.863281"/>
      <use xlink:href="#DejaVuSans-2c" x="2265.876953"/>
      <use xlink:href="#DejaVuSans-20" x="2297.664062"/>
      <use xlink:href="#DejaVuSans-6c" x="2329.451172"/>
      <use xlink:href="#DejaVuSans-69" x="2357.234375"/>
      <use xlink:href="#DejaVuSans-74" x="2385.017578"/>
      <use xlink:href="#DejaVuSans-28" x="2424.226562"/>
      <use xlink:href="#DejaVuSans-71" x="2463.240234"/>
      <use xlink:href="#DejaVuSans-77" x="2526.716797"/>
      <use xlink:href="#DejaVuSans-65" x="2608.503906"/>
      <use xlink:href="#DejaVuSans-72" x="2670.027344"/>
      <use xlink:href="#DejaVuSans-74" x="2711.140625"/>
      <use xlink:href="#DejaVuSans-79" x="2750.349609"/>
      <use xlink:href="#DejaVuSans-75" x="2809.529297"/>
      <use xlink:href="#DejaVuSans-69" x="2872.908203"/>
      <use xlink:href="#DejaVuSans-6f" x="2900.691406"/>
      <use xlink:href="#DejaVuSans-70" x="2961.873047"/>
      <use xlink:href="#DejaVuSans-61" x="3025.349609"/>
      <use xlink:href="#DejaVuSans-73" x="3086.628906"/>
      <use xlink:href="#DejaVuSans-64" x="3138.728516"/>
      <use xlink:href="#DejaVuSans-66" x="3202.205078"/>
      <use xlink:href="#DejaVuSans-67" x="3237.410156"/>
      <use xlink:href="#DejaVuSans-68" x="3300.886719"/>
      <use xlink:href="#DejaVuSans-6a" x="3364.265625"/>
      <use xlink:href="#DejaVuSans-6b" x="3392.048828"/>
      <use xlink:href="#DejaVuSans-6c" x="3449.958984"/>
      <use xlink:href="#DejaVuSans-29" x="3477.742188"/>
      <use xlink:href="#DejaVuSans-29" x="3516.755859"/>
      <use xlink:href="#DejaVuSans-3b" x="3555.769531"/>
      <use xlink:href="#DejaVuSans-20" x="3589.460938"/>
      <use xlink:href="#DejaVuSans-33" x="3621.248047"/>
      <use xlink:href="#DejaVuSans-30" x="3684.871094"/>
      <use xlink:href="#DejaVuSans-30" x="3748.494141"/>
      <use xlink:href="#DejaVuSans-2e" x="3812.117188"/>
      <use xlink:href="#DejaVuSans-30" x="3843.904297"/>
      <use xlink:href="#DejaVuSans-30" x="3907.527344"/>
      <use xlink:href="#DejaVuSans-30" x="3971.150391"/>
      <use xlink:href="#DejaVuSans-4d" x="4034.773438"/>
      <use xlink:href="#DejaVuSans-42" x="4121.052734"/>
     </g>
    </g>
    <g id="line2d_38">
     <path d="M 48.58149 45.894927 
L 58.58149 45.894927 
L 68.58149 45.894927 
" style="fill: none; stroke: #ff7f0e; stroke-width: 1.5; stroke-linecap: square"/>
    </g>
    <g id="text_21">
     <!-- concat(rng(x,40), copy(7500, srand(40k, x)), lit(qwertyuiopasdfghjkl)); 300.000MB -->
     <g transform="translate(76.58149 49.394927) scale(0.1 -0.1)">
      <defs>
       <path id="DejaVuSans-34" d="M 2419 4116 
L 825 1625 
L 2419 1625 
L 2419 4116 
z
M 2253 4666 
L 3047 4666 
L 3047 1625 
L 3713 1625 
L 3713 1100 
L 3047 1100 
L 3047 0 
L 2419 0 
L 2419 1100 
L 313 1100 
L 313 1709 
L 2253 4666 
z
" transform="scale(0.015625)"/>
      </defs>
      <use xlink:href="#DejaVuSans-63"/>
      <use xlink:href="#DejaVuSans-6f" x="54.980469"/>
      <use xlink:href="#DejaVuSans-6e" x="116.162109"/>
      <use xlink:href="#DejaVuSans-63" x="179.541016"/>
      <use xlink:href="#DejaVuSans-61" x="234.521484"/>
      <use xlink:href="#DejaVuSans-74" x="295.800781"/>
      <use xlink:href="#DejaVuSans-28" x="335.009766"/>
      <use xlink:href="#DejaVuSans-72" x="374.023438"/>
      <use xlink:href="#DejaVuSans-6e" x="413.386719"/>
      <use xlink:href="#DejaVuSans-67" x="476.765625"/>
      <use xlink:href="#DejaVuSans-28" x="540.242188"/>
      <use xlink:href="#DejaVuSans-78" x="579.255859"/>
      <use xlink:href="#DejaVuSans-2c" x="638.435547"/>
      <use xlink:href="#DejaVuSans-34" x="670.222656"/>
      <use xlink:href="#DejaVuSans-30" x="733.845703"/>
      <use xlink:href="#DejaVuSans-29" x="797.46875"/>
      <use xlink:href="#DejaVuSans-2c" x="836.482422"/>
      <use xlink:href="#DejaVuSans-20" x="868.269531"/>
      <use xlink:href="#DejaVuSans-63" x="900.056641"/>
      <use xlink:href="#DejaVuSans-6f" x="955.037109"/>
      <use xlink:href="#DejaVuSans-70" x="1016.21875"/>
      <use xlink:href="#DejaVuSans-79" x="1079.695312"/>
      <use xlink:href="#DejaVuSans-28" x="1138.875"/>
      <use xlink:href="#DejaVuSans-37" x="1177.888672"/>
      <use xlink:href="#DejaVuSans-35" x="1241.511719"/>
      <use xlink:href="#DejaVuSans-30" x="1305.134766"/>
      <use xlink:href="#DejaVuSans-30" x="1368.757812"/>
      <use xlink:href="#DejaVuSans-2c" x="1432.380859"/>
      <use xlink:href="#DejaVuSans-20" x="1464.167969"/>
      <use xlink:href="#DejaVuSans-73" x="1495.955078"/>
      <use xlink:href="#DejaVuSans-72" x="1548.054688"/>
      <use xlink:href="#DejaVuSans-61" x="1589.167969"/>
      <use xlink:href="#DejaVuSans-6e" x="1650.447266"/>
      <use xlink:href="#DejaVuSans-64" x="1713.826172"/>
      <use xlink:href="#DejaVuSans-28" x="1777.302734"/>
      <use xlink:href="#DejaVuSans-34" x="1816.316406"/>
      <use xlink:href="#DejaVuSans-30" x="1879.939453"/>
      <use xlink:href="#DejaVuSans-6b" x="1943.5625"/>
      <use xlink:href="#DejaVuSans-2c" x="2001.472656"/>
      <use xlink:href="#DejaVuSans-20" x="2033.259766"/>
      <use xlink:href="#DejaVuSans-78" x="2065.046875"/>
      <use xlink:href="#DejaVuSans-29" x="2124.226562"/>
      <use xlink:href="#DejaVuSans-29" x="2163.240234"/>
      <use xlink:href="#DejaVuSans-2c" x="2202.253906"/>
      <use xlink:href="#DejaVuSans-20" x="2234.041016"/>
      <use xlink:href="#DejaVuSans-6c" x="2265.828125"/>
      <use xlink:href="#DejaVuSans-69" x="2293.611328"/>
      <use xlink:href="#DejaVuSans-74" x="2321.394531"/>
      <use xlink:href="#DejaVuSans-28" x="2360.603516"/>
      <use xlink:href="#DejaVuSans-71" x="2399.617188"/>
      <use xlink:href="#DejaVuSans-77" x="2463.09375"/>
      <use xlink:href="#DejaVuSans-65" x="2544.880859"/>
      <use xlink:href="#DejaVuSans-72" x="2606.404297"/>
      <use xlink:href="#DejaVuSans-74" x="2647.517578"/>
      <use xlink:href="#DejaVuSans-79" x="2686.726562"/>
      <use xlink:href="#DejaVuSans-75" x="2745.90625"/>
      <use xlink:href="#DejaVuSans-69" x="2809.285156"/>
      <use xlink:href="#DejaVuSans-6f" x="2837.068359"/>
      <use xlink:href="#DejaVuSans-70" x="2898.25"/>
      <use xlink:href="#DejaVuSans-61" x="2961.726562"/>
      <use xlink:href="#DejaVuSans-73" x="3023.005859"/>
      <use xlink:href="#DejaVuSans-64" x="3075.105469"/>
      <use xlink:href="#DejaVuSans-66" x="3138.582031"/>
      <use xlink:href="#DejaVuSans-67" x="3173.787109"/>
      <use xlink:href="#DejaVuSans-68" x="3237.263672"/>
      <use xlink:href="#DejaVuSans-6a" x="3300.642578"/>
      <use xlink:href="#DejaVuSans-6b" x="3328.425781"/>
      <use xlink:href="#DejaVuSans-6c" x="3386.335938"/>
      <use xlink:href="#DejaVuSans-29" x="3414.119141"/>
      <use xlink:href="#DejaVuSans-29" x="3453.132812"/>
      <use xlink:href="#DejaVuSans-3b" x="3492.146484"/>
      <use xlink:href="#DejaVuSans-20" x="3525.837891"/>
      <use xlink:href="#DejaVuSans-33" x="3557.625"/>
      <use xlink:href="#DejaVuSans-30" x="3621.248047"/>
      <use xlink:href="#DejaVuSans-30" x="3684.871094"/>
      <use xlink:href="#DejaVuSans-2e" x="3748.494141"/>
      <use xlink:href="#DejaVuSans-30" x="3780.28125"/>
      <use xlink:href="#DejaVuSans-30" x="3843.904297"/>
      <use xlink:href="#DejaVuSans-30" x="3907.527344"/>
      <use xlink:href="#DejaVuSans-4d" x="3971.150391"/>
      <use xlink:href="#DejaVuSans-42" x="4057.429688"/>
     </g>
    </g>
    <g id="line2d_39">
     <path d="M 48.58149 60.573052 
L 58.58149 60.573052 
L 68.58149 60.573052 
" style="fill: none; stroke: #2ca02c; stroke-width: 1.5; stroke-linecap: square"/>
    </g>
    <g id="text_22">
     <!-- concat(rng(x,60), copy(5000, srand(60k, x)), lit(qwertyuiopasdfghjkl)); 300.000MB -->
     <g transform="translate(76.58149 64.073052) scale(0.1 -0.1)">
      <defs>
       <path id="DejaVuSans-36" d="M 2113 2584 
Q 1688 2584 1439 2293 
Q 1191 2003 1191 1497 
Q 1191 994 1439 701 
Q 1688 409 2113 409 
Q 2538 409 2786 701 
Q 3034 994 3034 1497 
Q 3034 2003 2786 2293 
Q 2538 2584 2113 2584 
z
M 3366 4563 
L 3366 3988 
Q 3128 4100 2886 4159 
Q 2644 4219 2406 4219 
Q 1781 4219 1451 3797 
Q 1122 3375 1075 2522 
Q 1259 2794 1537 2939 
Q 1816 3084 2150 3084 
Q 2853 3084 3261 2657 
Q 3669 2231 3669 1497 
Q 3669 778 3244 343 
Q 2819 -91 2113 -91 
Q 1303 -91 875 529 
Q 447 1150 447 2328 
Q 447 3434 972 4092 
Q 1497 4750 2381 4750 
Q 2619 4750 2861 4703 
Q 3103 4656 3366 4563 
z
" transform="scale(0.015625)"/>
      </defs>
      <use xlink:href="#DejaVuSans-63"/>
      <use xlink:href="#DejaVuSans-6f" x="54.980469"/>
      <use xlink:href="#DejaVuSans-6e" x="116.162109"/>
      <use xlink:href="#DejaVuSans-63" x="179.541016"/>
      <use xlink:href="#DejaVuSans-61" x="234.521484"/>
      <use xlink:href="#DejaVuSans-74" x="295.800781"/>
      <use xlink:href="#DejaVuSans-28" x="335.009766"/>
      <use xlink:href="#DejaVuSans-72" x="374.023438"/>
      <use xlink:href="#DejaVuSans-6e" x="413.386719"/>
      <use xlink:href="#DejaVuSans-67" x="476.765625"/>
      <use xlink:href="#DejaVuSans-28" x="540.242188"/>
      <use xlink:href="#DejaVuSans-78" x="579.255859"/>
      <use xlink:href="#DejaVuSans-2c" x="638.435547"/>
      <use xlink:href="#DejaVuSans-36" x="670.222656"/>
      <use xlink:href="#DejaVuSans-30" x="733.845703"/>
      <use xlink:href="#DejaVuSans-29" x="797.46875"/>
      <use xlink:href="#DejaVuSans-2c" x="836.482422"/>
      <use xlink:href="#DejaVuSans-20" x="868.269531"/>
      <use xlink:href="#DejaVuSans-63" x="900.056641"/>
      <use xlink:href="#DejaVuSans-6f" x="955.037109"/>
      <use xlink:href="#DejaVuSans-70" x="1016.21875"/>
      <use xlink:href="#DejaVuSans-79" x="1079.695312"/>
      <use xlink:href="#DejaVuSans-28" x="1138.875"/>
      <use xlink:href="#DejaVuSans-35" x="1177.888672"/>
      <use xlink:href="#DejaVuSans-30" x="1241.511719"/>
      <use xlink:href="#DejaVuSans-30" x="1305.134766"/>
      <use xlink:href="#DejaVuSans-30" x="1368.757812"/>
      <use xlink:href="#DejaVuSans-2c" x="1432.380859"/>
      <use xlink:href="#DejaVuSans-20" x="1464.167969"/>
      <use xlink:href="#DejaVuSans-73" x="1495.955078"/>
      <use xlink:href="#DejaVuSans-72" x="1548.054688"/>
      <use xlink:href="#DejaVuSans-61" x="1589.167969"/>
      <use xlink:href="#DejaVuSans-6e" x="1650.447266"/>
      <use xlink:href="#DejaVuSans-64" x="1713.826172"/>
      <use xlink:href="#DejaVuSans-28" x="1777.302734"/>
      <use xlink:href="#DejaVuSans-36" x="1816.316406"/>
      <use xlink:href="#DejaVuSans-30" x="1879.939453"/>
      <use xlink:href="#DejaVuSans-6b" x="1943.5625"/>
      <use xlink:href="#DejaVuSans-2c" x="2001.472656"/>
      <use xlink:href="#DejaVuSans-20" x="2033.259766"/>
      <use xlink:href="#DejaVuSans-78" x="2065.046875"/>
      <use xlink:href="#DejaVuSans-29" x="2124.226562"/>
      <use xlink:href="#DejaVuSans-29" x="2163.240234"/>
      <use xlink:href="#DejaVuSans-2c" x="2202.253906"/>
      <use xlink:href="#DejaVuSans-20" x="2234.041016"/>
      <use xlink:href="#DejaVuSans-6c" x="2265.828125"/>
      <use xlink:href="#DejaVuSans-69" x="2293.611328"/>
      <use xlink:href="#DejaVuSans-74" x="2321.394531"/>
      <use xlink:href="#DejaVuSans-28" x="2360.603516"/>
      <use xlink:href="#DejaVuSans-71" x="2399.617188"/>
      <use xlink:href="#DejaVuSans-77" x="2463.09375"/>
      <use xlink:href="#DejaVuSans-65" x="2544.880859"/>
      <use xlink:href="#DejaVuSans-72" x="2606.404297"/>
      <use xlink:href="#DejaVuSans-74" x="2647.517578"/>
      <use xlink:href="#DejaVuSans-79" x="2686.726562"/>
      <use xlink:href="#DejaVuSans-75" x="2745.90625"/>
      <use xlink:href="#DejaVuSans-69" x="2809.285156"/>
      <use xlink:href="#DejaVuSans-6f" x="2837.068359"/>
      <use xlink:href="#DejaVuSans-70" x="2898.25"/>
      <use xlink:href="#DejaVuSans-61" x="2961.726562"/>
      <use xlink:href="#DejaVuSans-73" x="3023.005859"/>
      <use xlink:href="#DejaVuSans-64" x="3075.105469"/>
      <use xlink:href="#DejaVuSans-66" x="3138.582031"/>
      <use xlink:href="#DejaVuSans-67" x="3173.787109"/>
      <use xlink:href="#DejaVuSans-68" x="3237.263672"/>
      <use xlink:href="#DejaVuSans-6a" x="3300.642578"/>
      <use xlink:href="#DejaVuSans-6b" x="3328.425781"/>
      <use xlink:href="#DejaVuSans-6c" x="3386.335938"/>
      <use xlink:href="#DejaVuSans-29" x="3414.119141"/>
      <use xlink:href="#DejaVuSans-29" x="3453.132812"/>
      <use xlink:href="#DejaVuSans-3b" x="3492.146484"/>
      <use xlink:href="#DejaVuSans-20" x="3525.837891"/>
      <use xlink:href="#DejaVuSans-33" x="3557.625"/>
      <use xlink:href="#DejaVuSans-30" x="3621.248047"/>
      <use xlink:href="#DejaVuSans-30" x="3684.871094"/>
      <use xlink:href="#DejaVuSans-2e" x="3748.494141"/>
      <use xlink:href="#DejaVuSans-30" x="3780.28125"/>
      <use xlink:href="#DejaVuSans-30" x="3843.904297"/>
      <use xlink:href="#DejaVuSans-30" x="3907.527344"/>
      <use xlink:href="#DejaVuSans-4d" x="3971.150391"/>
      <use xlink:href="#DejaVuSans-42" x="4057.429688"/>
     </g>
    </g>
    <g id="line2d_40">
     <path d="M 48.58149 75.251177 
L 58.58149 75.251177 
L 68.58149 75.251177 
" style="fill: none; stroke: #d62728; stroke-width: 1.5; stroke-linecap: square"/>
    </g>
    <g id="text_23">
     <!-- concat(rng(x,80), copy(3750, srand(80k, x)), lit(qwertyuiopasdfghjkl)); 300.000MB -->
     <g transform="translate(76.58149 78.751177) scale(0.1 -0.1)">
      <use xlink:href="#DejaVuSans-63"/>
      <use xlink:href="#DejaVuSans-6f" x="54.980469"/>
      <use xlink:href="#DejaVuSans-6e" x="116.162109"/>
      <use xlink:href="#DejaVuSans-63" x="179.541016"/>
      <use xlink:href="#DejaVuSans-61" x="234.521484"/>
      <use xlink:href="#DejaVuSans-74" x="295.800781"/>
      <use xlink:href="#DejaVuSans-28" x="335.009766"/>
      <use xlink:href="#DejaVuSans-72" x="374.023438"/>
      <use xlink:href="#DejaVuSans-6e" x="413.386719"/>
      <use xlink:href="#DejaVuSans-67" x="476.765625"/>
      <use xlink:href="#DejaVuSans-28" x="540.242188"/>
      <use xlink:href="#DejaVuSans-78" x="579.255859"/>
      <use xlink:href="#DejaVuSans-2c" x="638.435547"/>
      <use xlink:href="#DejaVuSans-38" x="670.222656"/>
      <use xlink:href="#DejaVuSans-30" x="733.845703"/>
      <use xlink:href="#DejaVuSans-29" x="797.46875"/>
      <use xlink:href="#DejaVuSans-2c" x="836.482422"/>
      <use xlink:href="#DejaVuSans-20" x="868.269531"/>
      <use xlink:href="#DejaVuSans-63" x="900.056641"/>
      <use xlink:href="#DejaVuSans-6f" x="955.037109"/>
      <use xlink:href="#DejaVuSans-70" x="1016.21875"/>
      <use xlink:href="#DejaVuSans-79" x="1079.695312"/>
      <use xlink:href="#DejaVuSans-28" x="1138.875"/>
      <use xlink:href="#DejaVuSans-33" x="1177.888672"/>
      <use xlink:href="#DejaVuSans-37" x="1241.511719"/>
      <use xlink:href="#DejaVuSans-35" x="1305.134766"/>
      <use xlink:href="#DejaVuSans-30" x="1368.757812"/>
      <use xlink:href="#DejaVuSans-2c" x="1432.380859"/>
      <use xlink:href="#DejaVuSans-20" x="1464.167969"/>
      <use xlink:href="#DejaVuSans-73" x="1495.955078"/>
      <use xlink:href="#DejaVuSans-72" x="1548.054688"/>
      <use xlink:href="#DejaVuSans-61" x="1589.167969"/>
      <use xlink:href="#DejaVuSans-6e" x="1650.447266"/>
      <use xlink:href="#DejaVuSans-64" x="1713.826172"/>
      <use xlink:href="#DejaVuSans-28" x="1777.302734"/>
      <use xlink:href="#DejaVuSans-38" x="1816.316406"/>
      <use xlink:href="#DejaVuSans-30" x="1879.939453"/>
      <use xlink:href="#DejaVuSans-6b" x="1943.5625"/>
      <use xlink:href="#DejaVuSans-2c" x="2001.472656"/>
      <use xlink:href="#DejaVuSans-20" x="2033.259766"/>
      <use xlink:href="#DejaVuSans-78" x="2065.046875"/>
      <use xlink:href="#DejaVuSans-29" x="2124.226562"/>
      <use xlink:href="#DejaVuSans-29" x="2163.240234"/>
      <use xlink:href="#DejaVuSans-2c" x="2202.253906"/>
      <use xlink:href="#DejaVuSans-20" x="2234.041016"/>
      <use xlink:href="#DejaVuSans-6c" x="2265.828125"/>
      <use xlink:href="#DejaVuSans-69" x="2293.611328"/>
      <use xlink:href="#DejaVuSans-74" x="2321.394531"/>
      <use xlink:href="#DejaVuSans-28" x="2360.603516"/>
      <use xlink:href="#DejaVuSans-71" x="2399.617188"/>
      <use xlink:href="#DejaVuSans-77" x="2463.09375"/>
      <use xlink:href="#DejaVuSans-65" x="2544.880859"/>
      <use xlink:href="#DejaVuSans-72" x="2606.404297"/>
      <use xlink:href="#DejaVuSans-74" x="2647.517578"/>
      <use xlink:href="#DejaVuSans-79" x="2686.726562"/>
      <use xlink:href="#DejaVuSans-75" x="2745.90625"/>
      <use xlink:href="#DejaVuSans-69" x="2809.285156"/>
      <use xlink:href="#DejaVuSans-6f" x="2837.068359"/>
      <use xlink:href="#DejaVuSans-70" x="2898.25"/>
      <use xlink:href="#DejaVuSans-61" x="2961.726562"/>
      <use xlink:href="#DejaVuSans-73" x="3023.005859"/>
      <use xlink:href="#DejaVuSans-64" x="3075.105469"/>
      <use xlink:href="#DejaVuSans-66" x="3138.582031"/>
      <use xlink:href="#DejaVuSans-67" x="3173.787109"/>
      <use xlink:href="#DejaVuSans-68" x="3237.263672"/>
      <use xlink:href="#DejaVuSans-6a" x="3300.642578"/>
      <use xlink:href="#DejaVuSans-6b" x="3328.425781"/>
      <use xlink:href="#DejaVuSans-6c" x="3386.335938"/>
      <use xlink:href="#DejaVuSans-29" x="3414.119141"/>
      <use xlink:href="#DejaVuSans-29" x="3453.132812"/>
      <use xlink:href="#DejaVuSans-3b" x="3492.146484"/>
      <use xlink:href="#DejaVuSans-20" x="3525.837891"/>
      <use xlink:href="#DejaVuSans-33" x="3557.625"/>
      <use xlink:href="#DejaVuSans-30" x="3621.248047"/>
      <use xlink:href="#DejaVuSans-30" x="3684.871094"/>
      <use xlink:href="#DejaVuSans-2e" x="3748.494141"/>
      <use xlink:href="#DejaVuSans-30" x="3780.28125"/>
      <use xlink:href="#DejaVuSans-30" x="3843.904297"/>
      <use xlink:href="#DejaVuSans-30" x="3907.527344"/>
      <use xlink:href="#DejaVuSans-4d" x="3971.150391"/>
      <use xlink:href="#DejaVuSans-42" x="4057.429688"/>
     </g>
    </g>
    <g id="line2d_41">
     <path d="M 48.58149 89.929302 
L 58.58149 89.929302 
L 68.58149 89.929302 
" style="fill: none; stroke: #9467bd; stroke-width: 1.5; stroke-linecap: square"/>
    </g>
    <g id="text_24">
     <!-- concat(rng(x,100), copy(3000, srand(100k, x)), lit(qwertyuiopasdfghjkl)); 300.000MB -->
     <g transform="translate(76.58149 93.429302) scale(0.1 -0.1)">
      <use xlink:href="#DejaVuSans-63"/>
      <use xlink:href="#DejaVuSans-6f" x="54.980469"/>
      <use xlink:href="#DejaVuSans-6e" x="116.162109"/>
      <use xlink:href="#DejaVuSans-63" x="179.541016"/>
      <use xlink:href="#DejaVuSans-61" x="234.521484"/>
      <use xlink:href="#DejaVuSans-74" x="295.800781"/>
      <use xlink:href="#DejaVuSans-28" x="335.009766"/>
      <use xlink:href="#DejaVuSans-72" x="374.023438"/>
      <use xlink:href="#DejaVuSans-6e" x="413.386719"/>
      <use xlink:href="#DejaVuSans-67" x="476.765625"/>
      <use xlink:href="#DejaVuSans-28" x="540.242188"/>
      <use xlink:href="#DejaVuSans-78" x="579.255859"/>
      <use xlink:href="#DejaVuSans-2c" x="638.435547"/>
      <use xlink:href="#DejaVuSans-31" x="670.222656"/>
      <use xlink:href="#DejaVuSans-30" x="733.845703"/>
      <use xlink:href="#DejaVuSans-30" x="797.46875"/>
      <use xlink:href="#DejaVuSans-29" x="861.091797"/>
      <use xlink:href="#DejaVuSans-2c" x="900.105469"/>
      <use xlink:href="#DejaVuSans-20" x="931.892578"/>
      <use xlink:href="#DejaVuSans-63" x="963.679688"/>
      <use xlink:href="#DejaVuSans-6f" x="1018.660156"/>
      <use xlink:href="#DejaVuSans-70" x="1079.841797"/>
      <use xlink:href="#DejaVuSans-79" x="1143.318359"/>
      <use xlink:href="#DejaVuSans-28" x="1202.498047"/>
      <use xlink:href="#DejaVuSans-33" x="1241.511719"/>
      <use xlink:href="#DejaVuSans-30" x="1305.134766"/>
      <use xlink:href="#DejaVuSans-30" x="1368.757812"/>
      <use xlink:href="#DejaVuSans-30" x="1432.380859"/>
      <use xlink:href="#DejaVuSans-2c" x="1496.003906"/>
      <use xlink:href="#DejaVuSans-20" x="1527.791016"/>
      <use xlink:href="#DejaVuSans-73" x="1559.578125"/>
      <use xlink:href="#DejaVuSans-72" x="1611.677734"/>
      <use xlink:href="#DejaVuSans-61" x="1652.791016"/>
      <use xlink:href="#DejaVuSans-6e" x="1714.070312"/>
      <use xlink:href="#DejaVuSans-64" x="1777.449219"/>
      <use xlink:href="#DejaVuSans-28" x="1840.925781"/>
      <use xlink:href="#DejaVuSans-31" x="1879.939453"/>
      <use xlink:href="#DejaVuSans-30" x="1943.5625"/>
      <use xlink:href="#DejaVuSans-30" x="2007.185547"/>
      <use xlink:href="#DejaVuSans-6b" x="2070.808594"/>
      <use xlink:href="#DejaVuSans-2c" x="2128.71875"/>
      <use xlink:href="#DejaVuSans-20" x="2160.505859"/>
      <use xlink:href="#DejaVuSans-78" x="2192.292969"/>
      <use xlink:href="#DejaVuSans-29" x="2251.472656"/>
      <use xlink:href="#DejaVuSans-29" x="2290.486328"/>
      <use xlink:href="#DejaVuSans-2c" x="2329.5"/>
      <use xlink:href="#DejaVuSans-20" x="2361.287109"/>
      <use xlink:href="#DejaVuSans-6c" x="2393.074219"/>
      <use xlink:href="#DejaVuSans-69" x="2420.857422"/>
      <use xlink:href="#DejaVuSans-74" x="2448.640625"/>
      <use xlink:href="#DejaVuSans-28" x="2487.849609"/>
      <use xlink:href="#DejaVuSans-71" x="2526.863281"/>
      <use xlink:href="#DejaVuSans-77" x="2590.339844"/>
      <use xlink:href="#DejaVuSans-65" x="2672.126953"/>
      <use xlink:href="#DejaVuSans-72" x="2733.650391"/>
      <use xlink:href="#DejaVuSans-74" x="2774.763672"/>
      <use xlink:href="#DejaVuSans-79" x="2813.972656"/>
      <use xlink:href="#DejaVuSans-75" x="2873.152344"/>
      <use xlink:href="#DejaVuSans-69" x="2936.53125"/>
      <use xlink:href="#DejaVuSans-6f" x="2964.314453"/>
      <use xlink:href="#DejaVuSans-70" x="3025.496094"/>
      <use xlink:href="#DejaVuSans-61" x="3088.972656"/>
      <use xlink:href="#DejaVuSans-73" x="3150.251953"/>
      <use xlink:href="#DejaVuSans-64" x="3202.351562"/>
      <use xlink:href="#DejaVuSans-66" x="3265.828125"/>
      <use xlink:href="#DejaVuSans-67" x="3301.033203"/>
      <use xlink:href="#DejaVuSans-68" x="3364.509766"/>
      <use xlink:href="#DejaVuSans-6a" x="3427.888672"/>
      <use xlink:href="#DejaVuSans-6b" x="3455.671875"/>
      <use xlink:href="#DejaVuSans-6c" x="3513.582031"/>
      <use xlink:href="#DejaVuSans-29" x="3541.365234"/>
      <use xlink:href="#DejaVuSans-29" x="3580.378906"/>
      <use xlink:href="#DejaVuSans-3b" x="3619.392578"/>
      <use xlink:href="#DejaVuSans-20" x="3653.083984"/>
      <use xlink:href="#DejaVuSans-33" x="3684.871094"/>
      <use xlink:href="#DejaVuSans-30" x="3748.494141"/>
      <use xlink:href="#DejaVuSans-30" x="3812.117188"/>
      <use xlink:href="#DejaVuSans-2e" x="3875.740234"/>
      <use xlink:href="#DejaVuSans-30" x="3907.527344"/>
      <use xlink:href="#DejaVuSans-30" x="3971.150391"/>
      <use xlink:href="#DejaVuSans-30" x="4034.773438"/>
      <use xlink:href="#DejaVuSans-4d" x="4098.396484"/>
      <use xlink:href="#DejaVuSans-42" x="4184.675781"/>
     </g>
    </g>
    <g id="line2d_42">
     <path d="M 48.58149 104.607427 
L 58.58149 104.607427 
L 68.58149 104.607427 
" style="fill: none; stroke: #8c564b; stroke-width: 1.5; stroke-linecap: square"/>
    </g>
    <g id="text_25">
     <!-- concat(rng(x,400), copy(750, srand(400k, x)), lit(qwertyuiopasdfghjkl)); 300.000MB -->
     <g transform="translate(76.58149 108.107427) scale(0.1 -0.1)">
      <use xlink:href="#DejaVuSans-63"/>
      <use xlink:href="#DejaVuSans-6f" x="54.980469"/>
      <use xlink:href="#DejaVuSans-6e" x="116.162109"/>
      <use xlink:href="#DejaVuSans-63" x="179.541016"/>
      <use xlink:href="#DejaVuSans-61" x="234.521484"/>
      <use xlink:href="#DejaVuSans-74" x="295.800781"/>
      <use xlink:href="#DejaVuSans-28" x="335.009766"/>
      <use xlink:href="#DejaVuSans-72" x="374.023438"/>
      <use xlink:href="#DejaVuSans-6e" x="413.386719"/>
      <use xlink:href="#DejaVuSans-67" x="476.765625"/>
      <use xlink:href="#DejaVuSans-28" x="540.242188"/>
      <use xlink:href="#DejaVuSans-78" x="579.255859"/>
      <use xlink:href="#DejaVuSans-2c" x="638.435547"/>
      <use xlink:href="#DejaVuSans-34" x="670.222656"/>
      <use xlink:href="#DejaVuSans-30" x="733.845703"/>
      <use xlink:href="#DejaVuSans-30" x="797.46875"/>
      <use xlink:href="#DejaVuSans-29" x="861.091797"/>
      <use xlink:href="#DejaVuSans-2c" x="900.105469"/>
      <use xlink:href="#DejaVuSans-20" x="931.892578"/>
      <use xlink:href="#DejaVuSans-63" x="963.679688"/>
      <use xlink:href="#DejaVuSans-6f" x="1018.660156"/>
      <use xlink:href="#DejaVuSans-70" x="1079.841797"/>
      <use xlink:href="#DejaVuSans-79" x="1143.318359"/>
      <use xlink:href="#DejaVuSans-28" x="1202.498047"/>
      <use xlink:href="#DejaVuSans-37" x="1241.511719"/>
      <use xlink:href="#DejaVuSans-35" x="1305.134766"/>
      <use xlink:href="#DejaVuSans-30" x="1368.757812"/>
      <use xlink:href="#DejaVuSans-2c" x="1432.380859"/>
      <use xlink:href="#DejaVuSans-20" x="1464.167969"/>
      <use xlink:href="#DejaVuSans-73" x="1495.955078"/>
      <use xlink:href="#DejaVuSans-72" x="1548.054688"/>
      <use xlink:href="#DejaVuSans-61" x="1589.167969"/>
      <use xlink:href="#DejaVuSans-6e" x="1650.447266"/>
      <use xlink:href="#DejaVuSans-64" x="1713.826172"/>
      <use xlink:href="#DejaVuSans-28" x="1777.302734"/>
      <use xlink:href="#DejaVuSans-34" x="1816.316406"/>
      <use xlink:href="#DejaVuSans-30" x="1879.939453"/>
      <use xlink:href="#DejaVuSans-30" x="1943.5625"/>
      <use xlink:href="#DejaVuSans-6b" x="2007.185547"/>
      <use xlink:href="#DejaVuSans-2c" x="2065.095703"/>
      <use xlink:href="#DejaVuSans-20" x="2096.882812"/>
      <use xlink:href="#DejaVuSans-78" x="2128.669922"/>
      <use xlink:href="#DejaVuSans-29" x="2187.849609"/>
      <use xlink:href="#DejaVuSans-29" x="2226.863281"/>
      <use xlink:href="#DejaVuSans-2c" x="2265.876953"/>
      <use xlink:href="#DejaVuSans-20" x="2297.664062"/>
      <use xlink:href="#DejaVuSans-6c" x="2329.451172"/>
      <use xlink:href="#DejaVuSans-69" x="2357.234375"/>
      <use xlink:href="#DejaVuSans-74" x="2385.017578"/>
      <use xlink:href="#DejaVuSans-28" x="2424.226562"/>
      <use xlink:href="#DejaVuSans-71" x="2463.240234"/>
      <use xlink:href="#DejaVuSans-77" x="2526.716797"/>
      <use xlink:href="#DejaVuSans-65" x="2608.503906"/>
      <use xlink:href="#DejaVuSans-72" x="2670.027344"/>
      <use xlink:href="#DejaVuSans-74" x="2711.140625"/>
      <use xlink:href="#DejaVuSans-79" x="2750.349609"/>
      <use xlink:href="#DejaVuSans-75" x="2809.529297"/>
      <use xlink:href="#DejaVuSans-69" x="2872.908203"/>
      <use xlink:href="#DejaVuSans-6f" x="2900.691406"/>
      <use xlink:href="#DejaVuSans-70" x="2961.873047"/>
      <use xlink:href="#DejaVuSans-61" x="3025.349609"/>
      <use xlink:href="#DejaVuSans-73" x="3086.628906"/>
      <use xlink:href="#DejaVuSans-64" x="3138.728516"/>
      <use xlink:href="#DejaVuSans-66" x="3202.205078"/>
      <use xlink:href="#DejaVuSans-67" x="3237.410156"/>
      <use xlink:href="#DejaVuSans-68" x="3300.886719"/>
      <use xlink:href="#DejaVuSans-6a" x="3364.265625"/>
      <use xlink:href="#DejaVuSans-6b" x="3392.048828"/>
      <use xlink:href="#DejaVuSans-6c" x="3449.958984"/>
      <use xlink:href="#DejaVuSans-29" x="3477.742188"/>
      <use xlink:href="#DejaVuSans-29" x="3516.755859"/>
      <use xlink:href="#DejaVuSans-3b" x="3555.769531"/>
      <use xlink:href="#DejaVuSans-20" x="3589.460938"/>
      <use xlink:href="#DejaVuSans-33" x="3621.248047"/>
      <use xlink:href="#DejaVuSans-30" x="3684.871094"/>
      <use xlink:href="#DejaVuSans-30" x="3748.494141"/>
      <use xlink:href="#DejaVuSans-2e" x="3812.117188"/>
      <use xlink:href="#DejaVuSans-30" x="3843.904297"/>
      <use xlink:href="#DejaVuSans-30" x="3907.527344"/>
      <use xlink:href="#DejaVuSans-30" x="3971.150391"/>
      <use xlink:href="#DejaVuSans-4d" x="4034.773438"/>
      <use xlink:href="#DejaVuSans-42" x="4121.052734"/>
     </g>
    </g>
   </g>
  </g>
 </g>
 <defs>
  <clipPath id="p4c384c296b">
   <rect x="39.58149" y="18.118365" width="1037.41827" height="452.525145"/>
  </clipPath>
 </defs>
</svg>
